<svg xmlns="http://www.w3.org/2000/svg" xmlns:xlink="http://www.w3.org/1999/xlink" viewBox="0 0 118.76 128.7"><defs><style>.a{fill:url(#a);}.b{fill:url(#b);}.c{fill:url(#c);}.d{fill:url(#d);}.e{fill:url(#e);}.f{fill:url(#f);}.g{fill:url(#g);}.h{fill:url(#h);}.i{fill:url(#i);}.j{fill:url(#j);}.k{fill:url(#k);}.l{fill:url(#l);}.m{fill:url(#m);}.n{fill:url(#n);}.o{fill:url(#o);}.p{fill:url(#p);}.q{fill:url(#q);}.r{fill:url(#r);}.s{fill:url(#s);}.t{fill:url(#t);}.u{fill:url(#u);}.v{fill:url(#v);}.w{fill:url(#w);}.x{fill:url(#x);}.y{fill:url(#y);}.z{fill:url(#z);}.aa{fill:url(#aa);}.ab{fill:url(#ab);}.ac{fill:url(#ac);}.ad{fill:url(#ad);}.ae{fill:url(#ae);}.af{fill:url(#af);}.ag{fill:url(#ag);}.ah{fill:url(#ah);}.ai{fill:#e3e4e5;}.aj{fill:url(#ai);}.ak{fill:url(#aj);}.al{fill:url(#ak);}.am{fill:url(#al);}.an{fill:url(#am);}.ao{fill:url(#an);}.ap{fill:url(#ao);}.aq{fill:url(#ap);}.ar{fill:url(#aq);}.as{fill:url(#ar);}.at{fill:url(#as);}.au{fill:url(#at);}.av{fill:url(#au);}.aw{fill:url(#av);}.ax{fill:url(#aw);}.ay{fill:url(#ax);}.az{fill:url(#ay);}.ba{fill:url(#az);}</style><radialGradient id="a" cx="51.5" cy="133.32" r="61.96" gradientTransform="matrix(0.84, 0.54, -0.43, 0.68, 68.26, -57.66)" gradientUnits="userSpaceOnUse"><stop offset="0" stop-color="#9bb9c7"/><stop offset="0.19" stop-color="#a8c2ce"/><stop offset="0.54" stop-color="#cadae1"/><stop offset="1" stop-color="#fff"/></radialGradient><radialGradient id="b" cx="51.51" cy="133.32" r="61.96" gradientTransform="matrix(0, 1, -0.8, 0, 165.57, 27.07)" xlink:href="#a"/><radialGradient id="c" cx="51.5" cy="133.32" r="61.97" gradientTransform="matrix(0, 1, -0.8, 0, 171.22, 16.66)" xlink:href="#a"/><radialGradient id="d" cx="51.5" cy="133.32" r="61.97" gradientTransform="matrix(0, 1, -0.8, 0, 176.85, 6.27)" xlink:href="#a"/><radialGradient id="e" cx="51.52" cy="133.32" r="61.96" gradientTransform="matrix(0, 1, -0.8, 0, 182.57, -4)" xlink:href="#a"/><radialGradient id="f" cx="49.54" cy="134.9" r="61.97" gradientTransform="matrix(0, 1, -0.8, 0, 158.83, 39.57)" xlink:href="#a"/><radialGradient id="g" cx="49.51" cy="134.89" r="61.96" gradientTransform="matrix(0, 1, -0.8, 0, 164.5, 29.15)" xlink:href="#a"/><radialGradient id="h" cx="49.5" cy="134.9" r="61.96" gradientTransform="matrix(0, 1, -0.8, 0, 170.16, 18.74)" xlink:href="#a"/><radialGradient id="i" cx="49.49" cy="134.89" r="61.97" gradientTransform="matrix(0, 1, -0.8, 0, 175.79, 8.33)" xlink:href="#a"/><radialGradient id="j" cx="49.47" cy="134.89" r="61.98" gradientTransform="matrix(0, 1, -0.8, 0, 181.52, -1.94)" xlink:href="#a"/><radialGradient id="k" cx="59.93" cy="172.04" r="8.97" gradientTransform="matrix(0.64, 0.35, -0.41, 0.74, 132.39, -66.62)" gradientUnits="userSpaceOnUse"><stop offset="0" stop-color="#ccdbe4"/><stop offset="0.1" stop-color="#c7d8e1"/><stop offset="0.22" stop-color="#baced9"/><stop offset="0.34" stop-color="#a3becb"/><stop offset="0.46" stop-color="#86a9ba"/><stop offset="0.54" stop-color="#7597a8"/><stop offset="0.7" stop-color="#486978"/><stop offset="0.71" stop-color="#456675"/></radialGradient><radialGradient id="l" cx="59.76" cy="176.08" r="0.01" gradientTransform="matrix(0.64, 0.35, -0.41, 0.74, 130.42, -70.07)" gradientUnits="userSpaceOnUse"><stop offset="0" stop-color="#fff"/><stop offset="0.12" stop-color="#f9fdff"/><stop offset="0.27" stop-color="#e8f7fd"/><stop offset="0.44" stop-color="#cdedfb"/><stop offset="0.63" stop-color="#a7dff9"/><stop offset="0.68" stop-color="#9cdbf8"/><stop offset="0.73" stop-color="#98daf8"/><stop offset="0.79" stop-color="#8ed7f7"/><stop offset="0.83" stop-color="#7bd1f6"/><stop offset="0.88" stop-color="#61caf4"/><stop offset="0.93" stop-color="#40c0f2"/><stop offset="0.98" stop-color="#18b4f0"/><stop offset="1" stop-color="#00adee"/></radialGradient><radialGradient id="m" cx="57.95" cy="169.82" r="31.25" gradientTransform="matrix(0.64, 0.35, -0.41, 0.74, 132.39, -66.62)" gradientUnits="userSpaceOnUse"><stop offset="0" stop-color="#fff"/><stop offset="0.06" stop-color="#fafcfd"/><stop offset="0.13" stop-color="#edf4f8"/><stop offset="0.2" stop-color="#d6e7ef"/><stop offset="0.28" stop-color="#b6d4e2"/><stop offset="0.36" stop-color="#8ebcd2"/><stop offset="0.38" stop-color="#81b5cd"/><stop offset="0.46" stop-color="#6fa7bf"/><stop offset="0.64" stop-color="#3f839b"/><stop offset="0.71" stop-color="#29728b"/></radialGradient><radialGradient id="n" cx="40.88" cy="192.94" r="8.82" xlink:href="#k"/><radialGradient id="o" cx="40.72" cy="196.92" r="0.02" xlink:href="#l"/><radialGradient id="p" cx="38.94" cy="190.77" r="30.75" xlink:href="#m"/><radialGradient id="q" cx="-11.15" cy="216.17" r="8.82" xlink:href="#k"/><radialGradient id="r" cx="-11.32" cy="220.15" r="0.02" xlink:href="#l"/><radialGradient id="s" cx="-13.09" cy="214" r="30.74" xlink:href="#m"/><radialGradient id="t" cx="-27.84" cy="232.9" r="8.82" xlink:href="#k"/><radialGradient id="u" cx="-28.01" cy="236.87" r="0.02" xlink:href="#l"/><radialGradient id="v" cx="-29.79" cy="230.72" r="30.75" xlink:href="#m"/><radialGradient id="w" cx="-44.89" cy="217.32" r="8.82" xlink:href="#k"/><radialGradient id="x" cx="-45.06" cy="221.3" r="0.02" xlink:href="#l"/><radialGradient id="y" cx="-46.84" cy="215.15" r="30.74" xlink:href="#m"/><radialGradient id="z" cx="12.52" cy="212.37" r="14.42" xlink:href="#k"/><radialGradient id="aa" cx="12.25" cy="218.87" r="0.02" xlink:href="#l"/><radialGradient id="ab" cx="9.34" cy="208.82" r="50.24" xlink:href="#m"/><radialGradient id="ac" cx="60.09" cy="196.52" r="9.83" xlink:href="#k"/><radialGradient id="ad" cx="59.9" cy="200.95" r="0.02" xlink:href="#l"/><radialGradient id="ae" cx="57.92" cy="194.1" r="34.25" xlink:href="#m"/><radialGradient id="af" cx="59.77" cy="61.56" r="64.02" gradientTransform="matrix(0.96, 0.27, -0.23, 0.8, 12.02, -8.55)" gradientUnits="userSpaceOnUse"><stop offset="0" stop-color="#fff100"/><stop offset="0.2" stop-color="#ffed01"/><stop offset="0.4" stop-color="#fee105"/><stop offset="0.6" stop-color="#fccc0b"/><stop offset="0.8" stop-color="#f9b013"/><stop offset="1" stop-color="#f68c1e"/></radialGradient><radialGradient id="ag" cx="53.61" cy="80.56" r="31.31" gradientUnits="userSpaceOnUse"><stop offset="0" stop-color="#fff9c5"/><stop offset="0.08" stop-color="#fff798"/><stop offset="0.19" stop-color="#fff557"/><stop offset="0.29" stop-color="#fff328"/><stop offset="0.37" stop-color="#fff10b"/><stop offset="0.41" stop-color="#fff100"/><stop offset="0.51" stop-color="#feea02"/><stop offset="0.65" stop-color="#fdd608"/><stop offset="0.82" stop-color="#fab612"/><stop offset="1" stop-color="#f68c1e"/></radialGradient><radialGradient id="ah" cx="69.71" cy="47.94" r="78.17" gradientUnits="userSpaceOnUse"><stop offset="0" stop-color="#fff"/><stop offset="0.05" stop-color="#fffef3"/><stop offset="0.14" stop-color="#fffdd5"/><stop offset="0.27" stop-color="#fffaa3"/><stop offset="0.41" stop-color="#fff65e"/><stop offset="0.58" stop-color="#fff107"/><stop offset="0.59" stop-color="#fff100"/><stop offset="0.68" stop-color="#fccf0a"/><stop offset="0.83" stop-color="#f68c1e"/></radialGradient><radialGradient id="ai" cx="191.49" cy="308.49" r="19.86" gradientTransform="matrix(-0.02, 1, -1, -0.02, 339.25, -139.34)" gradientUnits="userSpaceOnUse"><stop offset="0" stop-color="#e3e4e5"/><stop offset="0.2" stop-color="#e0e1e2"/><stop offset="0.35" stop-color="#d6d8d9"/><stop offset="0.49" stop-color="#c5c8c9"/><stop offset="0.63" stop-color="#aeb1b3"/><stop offset="0.75" stop-color="#8f9497"/><stop offset="0.87" stop-color="#6a7174"/><stop offset="0.99" stop-color="#3e474c"/><stop offset="1" stop-color="#3b4449"/></radialGradient><radialGradient id="aj" cx="59.61" cy="38.95" r="36.37" gradientUnits="userSpaceOnUse"><stop offset="0" stop-color="#e3e4e5"/><stop offset="0.23" stop-color="#e0e1e2"/><stop offset="0.41" stop-color="#d6d8da"/><stop offset="0.58" stop-color="#c5cacd"/><stop offset="0.74" stop-color="#aeb5ba"/><stop offset="0.88" stop-color="#909aa1"/><stop offset="1" stop-color="#728089"/></radialGradient><radialGradient id="ak" cx="186.27" cy="316.69" r="19.75" xlink:href="#ai"/><radialGradient id="al" cx="37.39" cy="48.74" r="21.88" gradientTransform="matrix(1, 0, 0, 1, 0, 0)" xlink:href="#ai"/><radialGradient id="am" cx="-16.76" cy="-56.15" r="19.48" gradientTransform="matrix(0.87, -0.33, 0.34, 0.9, 41.66, 82.03)" xlink:href="#aj"/><radialGradient id="an" cx="188.21" cy="301.44" r="22.41" gradientTransform="matrix(-0.02, 1, -1, -0.02, 339.25, -139.34)" xlink:href="#aj"/><radialGradient id="ao" cx="383.83" cy="-110.79" r="22.63" gradientTransform="translate(343.22 354.76) rotate(-111.89)" gradientUnits="userSpaceOnUse"><stop offset="0" stop-color="#e3e4e5"/><stop offset="0.21" stop-color="#e0e1e2"/><stop offset="0.37" stop-color="#d6d8d9"/><stop offset="0.52" stop-color="#c5c8ca"/><stop offset="0.66" stop-color="#aeb2b5"/><stop offset="0.79" stop-color="#8f969a"/><stop offset="0.92" stop-color="#6a7379"/><stop offset="1" stop-color="#4f5a61"/></radialGradient><radialGradient id="ap" cx="187.52" cy="244.02" r="26.84" gradientTransform="matrix(-0.02, 1, -1, -0.02, 339.25, -139.34)" xlink:href="#ao"/><radialGradient id="aq" cx="193.3" cy="237.7" r="16.86" gradientTransform="matrix(-0.02, 1, -1, -0.02, 339.25, -139.34)" xlink:href="#ao"/><radialGradient id="ar" cx="199.02" cy="276.02" r="23.07" xlink:href="#ai"/><radialGradient id="as" cx="63.37" cy="49.6" r="18.09" gradientUnits="userSpaceOnUse"><stop offset="0" stop-color="#e3e4e5"/><stop offset="0.28" stop-color="#e1e2e3"/><stop offset="0.44" stop-color="#d8dadc"/><stop offset="0.58" stop-color="#cacdcf"/><stop offset="0.69" stop-color="#b7bbbd"/><stop offset="0.79" stop-color="#9da3a6"/><stop offset="0.89" stop-color="#7d858a"/><stop offset="0.98" stop-color="#586369"/><stop offset="1" stop-color="#4f5a61"/></radialGradient><radialGradient id="at" cx="183.55" cy="262.4" r="29.64" gradientTransform="matrix(-0.02, 1, -1, -0.02, 339.25, -139.34)" xlink:href="#aj"/><radialGradient id="au" cx="129.81" cy="-28.46" r="25.15" gradientTransform="matrix(0.89, -0.45, 0.45, 0.89, -30.24, 137)" xlink:href="#ai"/><radialGradient id="av" cx="93.96" cy="50.92" r="17.48" gradientTransform="matrix(1, 0, 0, 1, 0, 0)" xlink:href="#ai"/><radialGradient id="aw" cx="52.1" cy="37.49" r="23.05" gradientTransform="matrix(1, 0, 0, 1, 0, 0)" xlink:href="#ao"/><radialGradient id="ax" cx="50.33" cy="6.54" r="19.11" gradientUnits="userSpaceOnUse"><stop offset="0" stop-color="#e3e4e5"/><stop offset="0.2" stop-color="#dbdddf"/><stop offset="0.51" stop-color="#c5cace"/><stop offset="0.9" stop-color="#a1abb2"/><stop offset="1" stop-color="#96a2aa"/></radialGradient><radialGradient id="ay" cx="0.85" cy="-61.44" r="19.48" gradientTransform="matrix(0.87, -0.33, 0.36, 0.93, 41.93, 82.76)" xlink:href="#aj"/><radialGradient id="az" cx="76.94" cy="54.8" r="35.07" gradientTransform="matrix(0.98, 0.2, -0.2, 0.98, 1, -59.19)" xlink:href="#aj"/></defs><title>forecast-stormy-lightning</title><polygon class="a" points="9.16 103.19 8.24 102.61 50.36 36.21 51.28 36.8 9.16 103.19"/><rect class="b" x="4.66" y="72.61" width="78.63" height="1.09" transform="translate(-43.33 67.62) rotate(-57.59)"/><rect class="c" x="16.9" y="72.61" width="78.63" height="1.09" transform="translate(-37.65 77.9) rotate(-57.56)"/><rect class="d" x="29.15" y="72.61" width="78.63" height="1.09" transform="translate(-31.99 88.18) rotate(-57.52)"/><rect class="e" x="41.39" y="72.61" width="78.63" height="1.09" transform="translate(-26.3 98.57) rotate(-57.56)"/><rect class="f" x="-9.95" y="72.61" width="78.63" height="1.09" transform="translate(-50.13 55.38) rotate(-57.66)"/><rect class="g" x="2.29" y="72.61" width="78.63" height="1.09" transform="translate(-44.43 65.67) rotate(-57.63)"/><rect class="h" x="14.53" y="72.61" width="78.63" height="1.09" transform="translate(-38.75 75.96) rotate(-57.59)"/><rect class="i" x="26.78" y="72.61" width="78.63" height="1.09" transform="translate(-33.08 86.23) rotate(-57.56)"/><rect class="j" x="39.02" y="72.61" width="78.63" height="1.09" transform="translate(-27.38 96.63) rotate(-57.59)"/><path class="k" d="M102.89,79.47a6.55,6.55,0,0,1,.35-3.53,6.51,6.51,0,0,1-2.79,2.17,4.82,4.82,0,0,0-2.71,2.1,3,3,0,0,0,.89,4.05h0l0-.05,0,.06h0a3,3,0,0,0,3.9-1.4A4.73,4.73,0,0,0,102.89,79.47Z" transform="translate(-1.97 -3.45)"/><polygon class="l" points="96.7 80.76 96.68 80.79 96.7 80.76 96.7 80.76"/><path class="m" d="M98.43,80a4.91,4.91,0,0,1,2.47-1.77,1.76,1.76,0,0,0-.7,1A4.27,4.27,0,0,0,98.43,80Z" transform="translate(-1.97 -3.45)"/><path class="n" d="M82.18,88.19a6.56,6.56,0,0,1,.34-3.47,6.32,6.32,0,0,1-2.75,2.13,4.72,4.72,0,0,0-2.65,2.07,2.91,2.91,0,0,0,.87,4h0l0-.06,0,.06h0a2.93,2.93,0,0,0,3.85-1.38A4.67,4.67,0,0,0,82.18,88.19Z" transform="translate(-1.97 -3.45)"/><polygon class="o" points="76.05 89.4 76.04 89.43 76.05 89.4 76.05 89.4"/><path class="p" d="M77.79,88.69A4.85,4.85,0,0,1,80.22,87a1.73,1.73,0,0,0-.68,1A4.25,4.25,0,0,0,77.79,88.69Z" transform="translate(-1.97 -3.45)"/><path class="q" d="M39.53,86.94a6.56,6.56,0,0,1,.34-3.47,6.42,6.42,0,0,1-2.74,2.14,4.74,4.74,0,0,0-2.66,2.06,2.92,2.92,0,0,0,.87,4h0l0-.06,0,.06h0a2.92,2.92,0,0,0,3.85-1.37A4.7,4.7,0,0,0,39.53,86.94Z" transform="translate(-1.97 -3.45)"/><polygon class="r" points="33.41 88.15 33.39 88.18 33.41 88.15 33.41 88.15"/><path class="s" d="M35.14,87.44a4.85,4.85,0,0,1,2.43-1.74,1.73,1.73,0,0,0-.68,1A4.4,4.4,0,0,0,35.14,87.44Z" transform="translate(-1.97 -3.45)"/><path class="t" d="M22.06,93.38a6.54,6.54,0,0,1,.34-3.47A6.42,6.42,0,0,1,19.66,92,4.74,4.74,0,0,0,17,94.1a2.92,2.92,0,0,0,.87,4h0l0,0,0,.06h0a2.91,2.91,0,0,0,3.84-1.38A4.67,4.67,0,0,0,22.06,93.38Z" transform="translate(-1.97 -3.45)"/><polygon class="u" points="15.94 94.59 15.92 94.62 15.94 94.59 15.94 94.59"/><path class="v" d="M17.67,93.88a4.85,4.85,0,0,1,2.43-1.74,1.69,1.69,0,0,0-.68,1A4.25,4.25,0,0,0,17.67,93.88Z" transform="translate(-1.97 -3.45)"/><path class="w" d="M17.55,75.88a6.46,6.46,0,0,1,.34-3.47,6.39,6.39,0,0,1-2.75,2.14,4.7,4.7,0,0,0-2.65,2.06,2.92,2.92,0,0,0,.87,4h0l0-.06,0,.06h0a2.92,2.92,0,0,0,3.85-1.37A4.75,4.75,0,0,0,17.55,75.88Z" transform="translate(-1.97 -3.45)"/><polygon class="x" points="11.42 77.09 11.41 77.12 11.42 77.09 11.42 77.09"/><path class="y" d="M13.16,76.38a4.85,4.85,0,0,1,2.43-1.74,1.77,1.77,0,0,0-.69,1A4.38,4.38,0,0,0,13.16,76.38Z" transform="translate(-1.97 -3.45)"/><path class="z" d="M57.72,91.35a10.59,10.59,0,0,1,.55-5.68,10.43,10.43,0,0,1-4.49,3.5c-1.89.78-3.36,1.59-4.34,3.36-1.34,2.42-.67,5.36,1.43,6.52h0l.05-.09,0,.1h0c2.09,1.16,4.94.17,6.28-2.25A7.7,7.7,0,0,0,57.72,91.35Z" transform="translate(-1.97 -3.45)"/><polygon class="aa" points="48.96 95.51 48.94 95.56 48.96 95.51 48.96 95.51"/><path class="ab" d="M50.54,92.16a8,8,0,0,1,4-2.85,2.87,2.87,0,0,0-1.12,1.63A7,7,0,0,0,50.54,92.16Z" transform="translate(-1.97 -3.45)"/><path class="ac" d="M93.25,97.39a7.19,7.19,0,0,1,.37-3.87,7.06,7.06,0,0,1-3.06,2.39,5.26,5.26,0,0,0-3,2.29,3.24,3.24,0,0,0,1,4.44h0l0-.06,0,.06h0a3.24,3.24,0,0,0,4.28-1.53A5.3,5.3,0,0,0,93.25,97.39Z" transform="translate(-1.97 -3.45)"/><polygon class="ad" points="86.64 99.14 86.63 99.17 86.64 99.13 86.64 99.14"/><path class="ae" d="M88.35,98A5.47,5.47,0,0,1,91.06,96a1.9,1.9,0,0,0-.76,1.1A4.86,4.86,0,0,0,88.35,98Z" transform="translate(-1.97 -3.45)"/><polygon class="af" points="60.28 66.39 38.09 101.88 56.69 99.89 39.14 128.69 70.12 92.31 56.19 93.53 73.21 69.33 60.28 66.39"/><polygon class="ag" points="39.66 100.94 55.67 75.31 57.02 75.16 41.01 100.79 39.66 100.94"/><polygon class="ah" points="44.5 121.3 57.88 99.84 59.42 99.6 44.5 121.3"/><polygon class="ai" points="12.7 42.84 50.93 10.81 78.36 28.33 101.37 31.51 109.86 46.38 96.17 59.15 77.65 65.49 55 67.09 35.53 64.43 17.65 55.05 12.7 42.84"/><path class="aj" d="M25,67.86a7.58,7.58,0,1,0-7.42-7.74A7.58,7.58,0,0,0,25,67.86Z" transform="translate(-1.97 -3.45)"/><path class="ak" d="M72.46,22.61A19.16,19.16,0,1,0,53.31,41.77,19.15,19.15,0,0,0,72.46,22.61Z" transform="translate(-1.97 -3.45)"/><path class="al" d="M14.68,61A13,13,0,1,0,2,47.72,13,13,0,0,0,14.68,61Z" transform="translate(-1.97 -3.45)"/><circle class="am" cx="40.97" cy="56.72" r="19.16"/><path class="an" d="M10.06,39.36A12.44,12.44,0,0,1,22,38.87a11.67,11.67,0,0,0-11.22-1.68,11.87,11.87,0,0,0-7.2,13.55A12.56,12.56,0,0,1,10.06,39.36Z" transform="translate(-1.97 -3.45)"/><path class="ao" d="M27.49,48.69a13,13,0,1,0-12.7-13.25A13,13,0,0,0,27.49,48.69Z" transform="translate(-1.97 -3.45)"/><path class="ap" d="M102.91,36.51a13,13,0,1,0,16.88,7.2A13,13,0,0,0,102.91,36.51Z" transform="translate(-1.97 -3.45)"/><path class="aq" d="M99.76,48A10.5,10.5,0,1,0,89.49,37.27,10.52,10.52,0,0,0,99.76,48Z" transform="translate(-1.97 -3.45)"/><path class="ar" d="M102.93,63A10.5,10.5,0,1,0,92.66,52.32,10.49,10.49,0,0,0,102.93,63Z" transform="translate(-1.97 -3.45)"/><path class="as" d="M59,82.31A13,13,0,1,0,46.28,69.05,13,13,0,0,0,59,82.31Z" transform="translate(-1.97 -3.45)"/><path class="at" d="M65.76,53.71a7.9,7.9,0,1,1-7.9-7.9A7.9,7.9,0,0,1,65.76,53.71Z" transform="translate(-1.97 -3.45)"/><path class="au" d="M81.74,44.93A16.73,16.73,0,1,0,65.36,27.84,16.73,16.73,0,0,0,81.74,44.93Z" transform="translate(-1.97 -3.45)"/><path class="av" d="M92.07,59a14.57,14.57,0,1,0-6.36,19.6A14.57,14.57,0,0,0,92.07,59Z" transform="translate(-1.97 -3.45)"/><path class="aw" d="M107.11,62.6a9,9,0,1,0-9,9A9,9,0,0,0,107.11,62.6Z" transform="translate(-1.97 -3.45)"/><path class="ax" d="M56,43.74A11.13,11.13,0,1,0,44.83,54.87,11.13,11.13,0,0,0,56,43.74Z" transform="translate(-1.97 -3.45)"/><path class="ay" d="M51.23,8A18.48,18.48,0,0,1,67.7,13.36a17.1,17.1,0,0,0-31.24,6.32C38.39,13.83,44,9.1,51.23,8Z" transform="translate(-1.97 -3.45)"/><path class="az" d="M23,27.3a12.17,12.17,0,0,1,12-.34,11.54,11.54,0,0,0-11.31-1.9c-5.42,2.08-8.29,8-7,13.94A12.72,12.72,0,0,1,23,27.3Z" transform="translate(-1.97 -3.45)"/><path class="ba" d="M82.87,15.1a16.57,16.57,0,0,1,13.45,7.72,15.32,15.32,0,0,0-28.56-.18C70.53,17.87,76.33,14.75,82.87,15.1Z" transform="translate(-1.97 -3.45)"/></svg>