<svg xmlns="http://www.w3.org/2000/svg" xmlns:xlink="http://www.w3.org/1999/xlink" viewBox="0 0 148.74 130.21"><defs><style>.a{fill:url(#a);}.b{fill:url(#b);}.c{fill:url(#c);}.d{fill:url(#d);}.e{fill:url(#e);}.f{fill:url(#f);}.g{fill:url(#g);}.h{fill:url(#h);}.i{fill:url(#i);}.j{fill:url(#j);}.k{fill:url(#k);}.l{fill:url(#l);}.m{fill:url(#m);}.n{fill:url(#n);}.o{fill:url(#o);}.p{fill:url(#p);}.q{fill:url(#q);}.r{fill:url(#r);}.s{fill:url(#s);}.t{fill:url(#t);}.u{fill:url(#u);}.v{fill:url(#v);}.w{fill:url(#w);}.x{fill:url(#x);}.y{fill:url(#y);}.z{fill:url(#z);}.aa{fill:url(#aa);}.ab{fill:url(#ab);}.ac{fill:url(#ac);}.ad{fill:url(#ad);}.ae{fill:url(#ae);}.af{fill:url(#af);}.ag{fill:url(#ag);}.ah{fill:url(#ah);}.ai{fill:url(#ai);}.aj{fill:url(#aj);}.ak{fill:url(#ak);}.al{fill:url(#al);}.am{fill:url(#am);}.an{fill:url(#an);}.ao{fill:url(#ao);}.ap{fill:url(#ap);}.aq{fill:url(#aq);}.ar{fill:url(#ar);}.as{fill:url(#as);}.at{fill:url(#at);}.au{fill:url(#au);}.av{fill:#e3e4e5;}.aw{fill:url(#av);}.ax{fill:url(#aw);}.ay{fill:url(#ax);}.az{fill:url(#ay);}.ba{fill:url(#az);}.bb{fill:url(#ba);}.bc{fill:url(#bb);}.bd{fill:url(#bc);}.be{fill:url(#bd);}.bf{fill:url(#be);}.bg{fill:url(#bf);}.bh{fill:url(#bg);}.bi{fill:url(#bh);}.bj{fill:url(#bi);}.bk{fill:url(#bj);}.bl{fill:url(#bk);}.bm{fill:url(#bl);}.bn{fill:url(#bm);}</style><linearGradient id="a" x1="47.92" y1="98.73" x2="47.92" y2="125.02" gradientTransform="translate(95.48 -0.2) rotate(57.65)" gradientUnits="userSpaceOnUse"><stop offset="0" stop-color="#9bb9c7"/><stop offset="0.19" stop-color="#a8c2ce"/><stop offset="0.54" stop-color="#cadae1"/><stop offset="1" stop-color="#fff"/></linearGradient><linearGradient id="b" x1="63.25" y1="98.73" x2="63.25" y2="125.02" gradientTransform="translate(102.55 -13.18) rotate(57.61)" xlink:href="#a"/><linearGradient id="c" x1="78.59" y1="98.73" x2="78.59" y2="125.02" gradientTransform="translate(109.71 -26.11) rotate(57.63)" xlink:href="#a"/><linearGradient id="d" x1="93.92" y1="98.73" x2="93.92" y2="125.02" gradientTransform="translate(116.79 -39.07) rotate(57.61)" xlink:href="#a"/><linearGradient id="e" x1="109.26" y1="98.73" x2="109.26" y2="125.02" gradientTransform="translate(123.95 -52.02) rotate(57.63)" xlink:href="#a"/><radialGradient id="f" cx="56.17" cy="93.89" r="113.35" gradientTransform="matrix(0, 1, -0.8, 0, 177.53, 32.48)" xlink:href="#a"/><radialGradient id="g" cx="56.16" cy="93.89" r="113.35" gradientTransform="matrix(0, 1, -0.8, 0, 184.64, 19.49)" xlink:href="#a"/><radialGradient id="h" cx="56.16" cy="93.89" r="113.35" gradientTransform="matrix(0, 1, -0.8, 0, 191.78, 6.57)" xlink:href="#a"/><radialGradient id="i" cx="56.19" cy="93.89" r="113.34" gradientTransform="matrix(0, 1, -0.8, 0, 198.87, -6.42)" xlink:href="#a"/><radialGradient id="j" cx="56.17" cy="93.89" r="113.35" gradientTransform="matrix(0, 1, -0.8, 0, 206.02, -19.33)" xlink:href="#a"/><radialGradient id="k" cx="68.08" cy="136.71" r="77.61" gradientTransform="matrix(0, 1, -0.8, 0, 174.24, 38.37)" xlink:href="#a"/><radialGradient id="l" cx="68.07" cy="136.71" r="77.61" gradientTransform="matrix(0, 1, -0.8, 0, 181.36, 25.43)" xlink:href="#a"/><radialGradient id="m" cx="68.06" cy="136.71" r="77.61" gradientTransform="matrix(0, 1, -0.8, 0, 188.53, 12.55)" xlink:href="#a"/><radialGradient id="n" cx="68.07" cy="136.71" r="77.61" gradientTransform="matrix(0, 1, -0.8, 0, 195.64, -0.43)" xlink:href="#a"/><radialGradient id="o" cx="68.07" cy="136.71" r="77.61" gradientTransform="matrix(0, 1, -0.8, 0, 202.79, -13.36)" xlink:href="#a"/><radialGradient id="p" cx="65.57" cy="138.68" r="77.61" gradientTransform="matrix(0, 1, -0.8, 0, 172.91, 41.01)" xlink:href="#a"/><radialGradient id="q" cx="65.56" cy="138.68" r="77.61" gradientTransform="matrix(0, 1, -0.8, 0, 180, 27.97)" xlink:href="#a"/><radialGradient id="r" cx="65.56" cy="138.68" r="77.61" gradientTransform="matrix(0, 1, -0.8, 0, 187.13, 15.03)" xlink:href="#a"/><radialGradient id="s" cx="65.55" cy="138.68" r="77.61" gradientTransform="matrix(0, 1, -0.8, 0, 194.25, 2.07)" xlink:href="#a"/><radialGradient id="t" cx="65.54" cy="138.68" r="77.62" gradientTransform="matrix(0, 1, -0.8, 0, 201.4, -10.85)" xlink:href="#a"/><radialGradient id="u" cx="-18.2" cy="245.49" r="18.05" gradientTransform="matrix(0.64, 0.35, -0.41, 0.74, 132.39, -66.62)" gradientUnits="userSpaceOnUse"><stop offset="0" stop-color="#ccdbe4"/><stop offset="0.1" stop-color="#c7d8e1"/><stop offset="0.22" stop-color="#baced9"/><stop offset="0.34" stop-color="#a3becb"/><stop offset="0.46" stop-color="#86a9ba"/><stop offset="0.54" stop-color="#7597a8"/><stop offset="0.7" stop-color="#486978"/><stop offset="0.71" stop-color="#456675"/></radialGradient><radialGradient id="v" cx="-18.55" cy="253.63" r="0.03" gradientTransform="matrix(0.64, 0.35, -0.41, 0.74, 130.42, -68.56)" gradientUnits="userSpaceOnUse"><stop offset="0" stop-color="#fff"/><stop offset="0.12" stop-color="#f9fdff"/><stop offset="0.27" stop-color="#e8f7fd"/><stop offset="0.44" stop-color="#cdedfb"/><stop offset="0.63" stop-color="#a7dff9"/><stop offset="0.68" stop-color="#9cdbf8"/><stop offset="0.73" stop-color="#98daf8"/><stop offset="0.79" stop-color="#8ed7f7"/><stop offset="0.83" stop-color="#7bd1f6"/><stop offset="0.88" stop-color="#61caf4"/><stop offset="0.93" stop-color="#40c0f2"/><stop offset="0.98" stop-color="#18b4f0"/><stop offset="1" stop-color="#00adee"/></radialGradient><radialGradient id="w" cx="-22.19" cy="241.04" r="62.93" gradientTransform="matrix(0.64, 0.35, -0.41, 0.74, 132.39, -66.62)" gradientUnits="userSpaceOnUse"><stop offset="0" stop-color="#fff"/><stop offset="0.06" stop-color="#fafcfd"/><stop offset="0.13" stop-color="#edf4f8"/><stop offset="0.2" stop-color="#d6e7ef"/><stop offset="0.28" stop-color="#b6d4e2"/><stop offset="0.36" stop-color="#8ebcd2"/><stop offset="0.38" stop-color="#81b5cd"/><stop offset="0.46" stop-color="#6fa7bf"/><stop offset="0.64" stop-color="#3f839b"/><stop offset="0.71" stop-color="#29728b"/></radialGradient><radialGradient id="x" cx="15.4" cy="253.44" r="18.05" xlink:href="#u"/><radialGradient id="y" cx="15.06" cy="261.58" r="0.03" xlink:href="#v"/><radialGradient id="z" cx="11.42" cy="248.99" r="62.91" xlink:href="#w"/><radialGradient id="aa" cx="0.1" cy="231.32" r="9.59" xlink:href="#u"/><radialGradient id="ab" cx="-0.08" cy="235.64" r="0.02" xlink:href="#v"/><radialGradient id="ac" cx="-2.01" cy="228.95" r="33.4" xlink:href="#w"/><radialGradient id="ad" cx="-36.64" cy="226.77" r="9.59" xlink:href="#u"/><radialGradient id="ae" cx="-36.83" cy="231.08" r="0.02" xlink:href="#v"/><radialGradient id="af" cx="-38.76" cy="224.4" r="33.42" xlink:href="#w"/><radialGradient id="ag" cx="103.02" cy="169.6" r="9.59" xlink:href="#u"/><radialGradient id="ah" cx="102.84" cy="173.92" r="0.02" xlink:href="#v"/><radialGradient id="ai" cx="100.91" cy="167.24" r="33.42" xlink:href="#w"/><radialGradient id="aj" cx="56.76" cy="204.19" r="9.59" xlink:href="#u"/><radialGradient id="ak" cx="56.57" cy="208.51" r="0.01" xlink:href="#v"/><radialGradient id="al" cx="54.64" cy="201.82" r="33.42" xlink:href="#w"/><radialGradient id="am" cx="74.52" cy="225.13" r="18.05" xlink:href="#u"/><radialGradient id="an" cx="74.18" cy="233.27" r="0.03" xlink:href="#v"/><radialGradient id="ao" cx="70.54" cy="220.68" r="62.91" xlink:href="#w"/><radialGradient id="ap" cx="39.31" cy="225.11" r="18.06" xlink:href="#u"/><radialGradient id="aq" cx="38.97" cy="233.24" r="0.03" xlink:href="#v"/><radialGradient id="ar" cx="35.33" cy="220.65" r="62.95" xlink:href="#w"/><radialGradient id="as" cx="96.22" cy="197.86" r="18.06" xlink:href="#u"/><radialGradient id="at" cx="95.87" cy="206" r="0.03" xlink:href="#v"/><radialGradient id="au" cx="92.23" cy="193.4" r="62.95" xlink:href="#w"/><radialGradient id="av" cx="200.47" cy="302.03" r="24.88" gradientTransform="matrix(-0.02, 1, -1, -0.02, 339.25, -139.34)" gradientUnits="userSpaceOnUse"><stop offset="0" stop-color="#e3e4e5"/><stop offset="0.2" stop-color="#e0e1e2"/><stop offset="0.35" stop-color="#d6d8d9"/><stop offset="0.49" stop-color="#c5c8c9"/><stop offset="0.63" stop-color="#aeb1b3"/><stop offset="0.75" stop-color="#8f9497"/><stop offset="0.87" stop-color="#6a7174"/><stop offset="0.99" stop-color="#3e474c"/><stop offset="1" stop-color="#3b4449"/></radialGradient><radialGradient id="aw" cx="74.16" cy="46.4" r="45.55" gradientUnits="userSpaceOnUse"><stop offset="0" stop-color="#e3e4e5"/><stop offset="0.23" stop-color="#e0e1e2"/><stop offset="0.41" stop-color="#d6d8da"/><stop offset="0.58" stop-color="#c5cacd"/><stop offset="0.74" stop-color="#aeb5ba"/><stop offset="0.88" stop-color="#909aa1"/><stop offset="1" stop-color="#728089"/></radialGradient><radialGradient id="ax" cx="62.54" cy="5.79" r="23.94" gradientUnits="userSpaceOnUse"><stop offset="0" stop-color="#e3e4e5"/><stop offset="0.2" stop-color="#dbdddf"/><stop offset="0.51" stop-color="#c5cace"/><stop offset="0.9" stop-color="#a1abb2"/><stop offset="1" stop-color="#96a2aa"/></radialGradient><radialGradient id="ay" cx="193.93" cy="312.31" r="24.74" xlink:href="#av"/><radialGradient id="az" cx="48.81" cy="62.97" r="27.41" gradientTransform="matrix(1, 0, 0, 1, 0, 0)" xlink:href="#av"/><radialGradient id="ba" cx="-17.98" cy="-48.78" r="24.4" gradientTransform="matrix(0.87, -0.33, 0.34, 0.9, 41.66, 82.03)" xlink:href="#aw"/><radialGradient id="bb" cx="196.36" cy="293.21" r="28.07" gradientTransform="matrix(-0.02, 1, -1, -0.02, 339.25, -139.34)" xlink:href="#aw"/><radialGradient id="bc" cx="367.73" cy="-91.31" r="28.35" gradientTransform="translate(343.22 354.76) rotate(-111.89)" gradientUnits="userSpaceOnUse"><stop offset="0" stop-color="#e3e4e5"/><stop offset="0.21" stop-color="#e0e1e2"/><stop offset="0.37" stop-color="#d6d8d9"/><stop offset="0.52" stop-color="#c5c8ca"/><stop offset="0.66" stop-color="#aeb2b5"/><stop offset="0.79" stop-color="#8f969a"/><stop offset="0.92" stop-color="#6a7379"/><stop offset="1" stop-color="#4f5a61"/></radialGradient><radialGradient id="bd" cx="195.5" cy="221.29" r="33.61" gradientTransform="matrix(-0.02, 1, -1, -0.02, 339.25, -139.34)" xlink:href="#bc"/><radialGradient id="be" cx="202.73" cy="213.38" r="21.11" gradientTransform="matrix(-0.02, 1, -1, -0.02, 339.25, -139.34)" xlink:href="#bc"/><radialGradient id="bf" cx="209.9" cy="261.37" r="28.9" xlink:href="#av"/><radialGradient id="bg" cx="78.87" cy="59.73" r="22.66" gradientUnits="userSpaceOnUse"><stop offset="0" stop-color="#e3e4e5"/><stop offset="0.28" stop-color="#e1e2e3"/><stop offset="0.44" stop-color="#d8dadc"/><stop offset="0.58" stop-color="#cacdcf"/><stop offset="0.69" stop-color="#b7bbbd"/><stop offset="0.79" stop-color="#9da3a6"/><stop offset="0.89" stop-color="#7d858a"/><stop offset="0.98" stop-color="#586369"/><stop offset="1" stop-color="#4f5a61"/></radialGradient><radialGradient id="bh" cx="190.52" cy="244.31" r="37.12" gradientTransform="matrix(-0.02, 1, -1, -0.02, 339.25, -139.34)" xlink:href="#aw"/><radialGradient id="bi" cx="140.71" cy="-10.66" r="31.51" gradientTransform="matrix(0.89, -0.45, 0.45, 0.89, -30.24, 137)" xlink:href="#av"/><radialGradient id="bj" cx="117.19" cy="61.39" r="21.89" gradientTransform="matrix(1, 0, 0, 1, 0, 0)" xlink:href="#av"/><radialGradient id="bk" cx="64.76" cy="44.57" r="28.87" gradientTransform="matrix(1, 0, 0, 1, 0, 0)" xlink:href="#bc"/><radialGradient id="bl" cx="4.08" cy="-56.07" r="24.4" gradientTransform="matrix(0.87, -0.33, 0.36, 0.93, 41.93, 82.76)" xlink:href="#aw"/><radialGradient id="bm" cx="92.58" cy="51.72" r="43.92" gradientTransform="matrix(0.98, 0.2, -0.2, 0.98, 1, -59.19)" xlink:href="#aw"/></defs><title>forecast-stormy-rain</title><rect class="a" x="-1.32" y="85.97" width="98.48" height="1.37" transform="translate(-52.9 78.83) rotate(-57.65)"/><rect class="b" x="14.01" y="85.97" width="98.48" height="1.37" transform="translate(-45.77 91.72) rotate(-57.61)"/><rect class="c" x="29.35" y="85.97" width="98.48" height="1.37" transform="matrix(0.54, -0.84, 0.84, 0.54, -38.65, 104.71)"/><rect class="d" x="44.68" y="85.97" width="98.48" height="1.37" transform="translate(-31.53 117.62) rotate(-57.61)"/><rect class="e" x="60.02" y="85.97" width="98.48" height="1.37" transform="translate(-24.4 130.6) rotate(-57.63)"/><rect class="f" x="-4.14" y="85.97" width="98.48" height="1.37" transform="translate(-54.21 76.43) rotate(-57.63)"/><rect class="g" x="11.2" y="85.97" width="98.48" height="1.37" transform="translate(-47.08 89.34) rotate(-57.62)"/><rect class="h" x="26.53" y="85.97" width="98.48" height="1.37" transform="matrix(0.54, -0.84, 0.84, 0.54, -39.96, 102.32)"/><rect class="i" x="41.86" y="85.97" width="98.48" height="1.37" transform="translate(-32.84 115.24) rotate(-57.61)"/><rect class="j" x="57.2" y="85.97" width="98.48" height="1.37" transform="translate(-25.71 128.22) rotate(-57.63)"/><rect class="k" x="-11.18" y="85.97" width="98.48" height="1.37" transform="translate(-57.47 70.44) rotate(-57.61)"/><rect class="l" x="4.15" y="85.97" width="98.48" height="1.37" transform="translate(-50.35 83.39) rotate(-57.61)"/><rect class="m" x="19.49" y="85.97" width="98.48" height="1.37" transform="translate(-43.23 96.41) rotate(-57.65)"/><rect class="n" x="34.82" y="85.97" width="98.48" height="1.37" transform="translate(-36.1 109.33) rotate(-57.63)"/><rect class="o" x="50.16" y="85.97" width="98.48" height="1.37" transform="translate(-28.97 122.32) rotate(-57.65)"/><rect class="p" x="-14.15" y="85.97" width="98.48" height="1.37" transform="translate(-58.87 68.02) rotate(-57.67)"/><rect class="q" x="1.19" y="85.97" width="98.48" height="1.37" transform="matrix(0.54, -0.84, 0.84, 0.54, -51.73, 80.92)"/><rect class="r" x="16.52" y="85.97" width="98.48" height="1.37" transform="matrix(0.54, -0.84, 0.84, 0.54, -44.61, 93.87)"/><rect class="s" x="31.85" y="85.97" width="98.48" height="1.37" transform="translate(-37.48 106.82) rotate(-57.63)"/><rect class="t" x="47.19" y="85.97" width="98.48" height="1.37" transform="translate(-30.35 119.81) rotate(-57.65)"/><path class="u" d="M25.62,104.16a13.17,13.17,0,0,1,.7-7.1,13.11,13.11,0,0,1-5.63,4.37c-2.37,1-4.21,2-5.43,4.22-1.68,3-.84,6.71,1.79,8.16h0l.06-.11,0,.12h0c2.62,1.45,6.18.21,7.87-2.82C26.17,108.79,26.06,106.69,25.62,104.16Z" transform="translate(-1.97 -1.93)"/><polygon class="v" points="15.15 111.78 15.12 111.83 15.15 111.77 15.15 111.78"/><path class="w" d="M16.63,105.18a10,10,0,0,1,5-3.56,3.53,3.53,0,0,0-1.39,2A9,9,0,0,0,16.63,105.18Z" transform="translate(-1.97 -1.93)"/><path class="x" d="M43.81,121.88a13.23,13.23,0,0,1,.69-7.11,13.09,13.09,0,0,1-5.62,4.38c-2.38,1-4.21,2-5.44,4.22-1.68,3-.84,6.7,1.79,8.16h0l.07-.11,0,.12h0c2.62,1.45,6.18.22,7.86-2.81C44.35,126.5,44.24,124.41,43.81,121.88Z" transform="translate(-1.97 -1.93)"/><polygon class="y" points="33.33 129.49 33.3 129.54 33.33 129.49 33.33 129.49"/><path class="z" d="M34.81,122.9a10,10,0,0,1,5-3.56,3.52,3.52,0,0,0-1.4,2A8.79,8.79,0,0,0,34.81,122.9Z" transform="translate(-1.97 -1.93)"/><path class="aa" d="M40.74,101.92a7,7,0,0,1,.37-3.78,7,7,0,0,1-3,2.33,5.18,5.18,0,0,0-2.89,2.24,3.17,3.17,0,0,0,1,4.33h0l0-.06,0,.07h0a3.16,3.16,0,0,0,4.17-1.5A5.09,5.09,0,0,0,40.74,101.92Z" transform="translate(-1.97 -1.93)"/><polygon class="ab" points="34.25 105.05 34.24 105.08 34.25 105.05 34.25 105.05"/><path class="ac" d="M36,102.46a5.31,5.31,0,0,1,2.64-1.89,1.87,1.87,0,0,0-.74,1.08A4.57,4.57,0,0,0,36,102.46Z" transform="translate(-1.97 -1.93)"/><path class="ad" d="M19.17,85.59a6.93,6.93,0,0,1,.37-3.77,7,7,0,0,1-3,2.32,5.24,5.24,0,0,0-2.89,2.25,3.17,3.17,0,0,0,.95,4.33h0l0-.06,0,.07h0a3.16,3.16,0,0,0,4.17-1.5A5.11,5.11,0,0,0,19.17,85.59Z" transform="translate(-1.97 -1.93)"/><polygon class="ae" points="12.68 88.73 12.67 88.75 12.68 88.72 12.68 88.73"/><path class="af" d="M14.39,86.14A5.29,5.29,0,0,1,17,84.24a1.92,1.92,0,0,0-.74,1.08A4.65,4.65,0,0,0,14.39,86.14Z" transform="translate(-1.97 -1.93)"/><path class="ag" d="M131.53,92.76A7.16,7.16,0,0,1,131.9,89a7,7,0,0,1-3,2.33A5.11,5.11,0,0,0,126,93.55a3.16,3.16,0,0,0,1,4.33h0l0-.06,0,.07h0a3.17,3.17,0,0,0,4.18-1.5A5.14,5.14,0,0,0,131.53,92.76Z" transform="translate(-1.97 -1.93)"/><polygon class="ah" points="125.04 95.89 125.03 95.92 125.04 95.89 125.04 95.89"/><path class="ai" d="M126.76,93.3a5.31,5.31,0,0,1,2.64-1.89,1.87,1.87,0,0,0-.74,1.08A4.72,4.72,0,0,0,126.76,93.3Z" transform="translate(-1.97 -1.93)"/><path class="aj" d="M87.92,101.92a7.17,7.17,0,0,1,.37-3.78,7,7,0,0,1-3,2.33,5.11,5.11,0,0,0-2.89,2.24,3.17,3.17,0,0,0,1,4.33h0l0-.06,0,.07h0a3.17,3.17,0,0,0,4.18-1.5A5.09,5.09,0,0,0,87.92,101.92Z" transform="translate(-1.97 -1.93)"/><polygon class="ak" points="81.44 105.05 81.42 105.08 81.44 105.05 81.44 105.05"/><path class="al" d="M83.15,102.46a5.31,5.31,0,0,1,2.64-1.89,1.82,1.82,0,0,0-.74,1.08A4.57,4.57,0,0,0,83.15,102.46Z" transform="translate(-1.97 -1.93)"/><path class="am" d="M93.05,121.88a13.23,13.23,0,0,1,.69-7.11,13,13,0,0,1-5.62,4.38c-2.38,1-4.21,2-5.44,4.22-1.67,3-.83,6.7,1.79,8.16h0l.07-.11-.05.12h0c2.62,1.45,6.18.22,7.86-2.81C93.59,126.5,93.48,124.41,93.05,121.88Z" transform="translate(-1.97 -1.93)"/><polygon class="an" points="82.57 129.49 82.54 129.54 82.57 129.49 82.57 129.49"/><path class="ao" d="M84.05,122.9a10,10,0,0,1,5-3.56,3.52,3.52,0,0,0-1.4,2A8.79,8.79,0,0,0,84.05,122.9Z" transform="translate(-1.97 -1.93)"/><path class="ap" d="M70.61,109.43a13.19,13.19,0,0,1,.69-7.1,13,13,0,0,1-5.62,4.38c-2.38,1-4.21,2-5.44,4.22-1.67,3-.83,6.71,1.79,8.16h0l.06-.12-.05.13h0c2.62,1.45,6.18.21,7.86-2.82C71.15,114.06,71,112,70.61,109.43Z" transform="translate(-1.97 -1.93)"/><polygon class="aq" points="60.13 117.05 60.11 117.1 60.13 117.04 60.13 117.05"/><path class="ar" d="M61.62,110.46a10,10,0,0,1,5-3.57,3.57,3.57,0,0,0-1.4,2A8.72,8.72,0,0,0,61.62,110.46Z" transform="translate(-1.97 -1.93)"/><path class="as" d="M118,109.43a13.18,13.18,0,0,1,.7-7.1,13.09,13.09,0,0,1-5.62,4.38c-2.38,1-4.21,2-5.44,4.22-1.68,3-.84,6.71,1.79,8.16h0l.06-.12,0,.13h0c2.62,1.45,6.19.21,7.87-2.82C118.55,114.06,118.44,112,118,109.43Z" transform="translate(-1.97 -1.93)"/><polygon class="at" points="107.53 117.05 107.5 117.1 107.53 117.04 107.53 117.05"/><path class="au" d="M109,110.46a10,10,0,0,1,5-3.57,3.52,3.52,0,0,0-1.4,2A8.79,8.79,0,0,0,109,110.46Z" transform="translate(-1.97 -1.93)"/><polygon class="av" points="15.91 53.65 63.79 13.53 98.15 35.48 126.96 39.47 137.6 58.09 120.46 74.08 97.26 82.03 68.88 84.02 44.5 80.7 22.11 68.95 15.91 53.65"/><path class="aw" d="M30.81,82.61a9.5,9.5,0,1,0-9.28-9.7A9.5,9.5,0,0,0,30.81,82.61Z" transform="translate(-1.97 -1.93)"/><path class="ax" d="M90.26,25.93a24,24,0,1,0-24,24A24,24,0,0,0,90.26,25.93Z" transform="translate(-1.97 -1.93)"/><path class="ay" d="M63.68,7.62c8.17-1.24,15.89,1.55,20.62,6.73a21.41,21.41,0,0,0-39.14,7.91C47.58,14.94,54.62,9,63.68,7.62Z" transform="translate(-1.97 -1.93)"/><path class="az" d="M17.88,74A16.26,16.26,0,1,0,2,57.38,16.26,16.26,0,0,0,17.88,74Z" transform="translate(-1.97 -1.93)"/><path class="ba" d="M77.29,73a24,24,0,1,0-24,24A24,24,0,0,0,77.29,73Z" transform="translate(-1.97 -1.93)"/><path class="bb" d="M12.1,46.91A15.56,15.56,0,0,1,27,46.3,14.58,14.58,0,0,0,13,44.19a14.87,14.87,0,0,0-9,17A15.73,15.73,0,0,1,12.1,46.91Z" transform="translate(-1.97 -1.93)"/><path class="bc" d="M33.94,58.59A16.25,16.25,0,1,0,18,42,16.25,16.25,0,0,0,33.94,58.59Z" transform="translate(-1.97 -1.93)"/><path class="bd" d="M128.4,43.33a16.25,16.25,0,1,0,21.14,9A16.25,16.25,0,0,0,128.4,43.33Z" transform="translate(-1.97 -1.93)"/><path class="be" d="M124.45,57.71a13.15,13.15,0,1,0-12.86-13.42A13.14,13.14,0,0,0,124.45,57.71Z" transform="translate(-1.97 -1.93)"/><path class="bf" d="M128.42,76.57a13.15,13.15,0,1,0-12.87-13.43A13.17,13.17,0,0,0,128.42,76.57Z" transform="translate(-1.97 -1.93)"/><path class="bg" d="M73.38,100.7A16.26,16.26,0,1,0,57.47,84.1,16.26,16.26,0,0,0,73.38,100.7Z" transform="translate(-1.97 -1.93)"/><path class="bh" d="M81.87,64.88A9.9,9.9,0,1,1,72,55,9.89,9.89,0,0,1,81.87,64.88Z" transform="translate(-1.97 -1.93)"/><path class="bi" d="M101.87,53.88a21,21,0,1,0-20.5-21.4A21,21,0,0,0,101.87,53.88Z" transform="translate(-1.97 -1.93)"/><path class="bj" d="M114.82,71.53a18.25,18.25,0,1,0-8,24.55A18.25,18.25,0,0,0,114.82,71.53Z" transform="translate(-1.97 -1.93)"/><path class="bk" d="M133.66,76a11.23,11.23,0,1,0-11.23,11.23A11.23,11.23,0,0,0,133.66,76Z" transform="translate(-1.97 -1.93)"/><path class="bl" d="M69.6,52.39A13.94,13.94,0,1,0,55.66,66.33,13.94,13.94,0,0,0,69.6,52.39Z" transform="translate(-1.97 -1.93)"/><path class="bm" d="M28.24,31.8a15.21,15.21,0,0,1,15-.42A14.43,14.43,0,0,0,29.08,29c-6.79,2.6-10.38,10.06-8.83,17.46A15.94,15.94,0,0,1,28.24,31.8Z" transform="translate(-1.97 -1.93)"/><path class="bn" d="M103.29,16.52a20.75,20.75,0,0,1,16.86,9.68A19.18,19.18,0,0,0,84.38,26C87.84,20,95.1,16.08,103.29,16.52Z" transform="translate(-1.97 -1.93)"/></svg>