<svg xmlns="http://www.w3.org/2000/svg" viewBox="0 0 516.03 204.04"><defs><style>.a{opacity:0.1;}.b{fill:#eaeaea;}.c{fill:#fff;}</style></defs><title>header-clouds-s</title><g class="a"><path d="M0,177.73c17.05-2,32.94-11.54,43-31.81.54-1.11,6.53-19.16,4.65-19.42,89.48,12.29,99.63-72.39,99.63-72.39,20.71,43,62,20.27,62,20.27C210.47,74,220.56,97.17,222,99.87c18.79,35.63,52.46,54.93,95.11,32.37,2.63-1.39,15.75-12.23,18.7-11.11,51.42,35,81.72-7.28,81.72-7.28,19.88,42.26,59.07,20.27,59.07,20.27C469.27,178,491.09,196.6,516,204V9H0Z" transform="translate(0)"/></g><path class="b" d="M0,168.72c17.05-2,32.94-11.53,43-31.81.54-1.1,6.53-19.16,4.65-19.42,89.48,12.29,99.63-72.38,99.63-72.38,20.71,43,62,20.26,62,20.26,1.15-.34,11.24,22.79,12.67,25.5,18.79,35.62,52.46,54.92,95.11,32.36,2.63-1.39,15.75-12.23,18.7-11.1,51.42,35,81.72-7.29,81.72-7.29,19.88,42.26,59.07,20.27,59.07,20.27C469.27,169,491.09,187.59,516,195V0H0Z" transform="translate(0)"/><g class="a"><path d="M0,120c7.55,3.62,42.42,17.57,61.14-22.24,0,0,32.14,44.81,86.67,7.72,3.12-1.19,17,10.31,19.82,11.78,45.23,23.92,80.93,3.46,100.85-34.32,1.52-2.87,12.22-27.4,13.44-27,0,0,43.84,24.11,65.79-21.48,0,0,10.76,89.79,105.65,76.75-2,.28,4.36,19.42,4.93,20.59,13,26.28,35.29,35.59,57.73,34V7.29H0Z" transform="translate(0)"/></g><path class="c" d="M0,112.83c7.55,3.61,42.42,17.57,61.14-22.24,0,0,32.14,44.81,86.67,7.72,3.12-1.2,17,10.31,19.82,11.78,45.23,23.92,80.93,3.45,100.85-34.32,1.52-2.87,12.22-27.41,13.44-27,0,0,43.84,24.11,65.79-21.49,0,0,10.76,89.8,105.65,76.76-2,.27,4.36,19.42,4.93,20.59,13,26.27,35.29,35.59,57.73,34V.08H0Z" transform="translate(0)"/></svg>