<svg xmlns="http://www.w3.org/2000/svg" viewBox="0 0 302.78 158.38"><defs><style>.a{opacity:0.2;}.b{fill:#fff;}.c{fill:#231f20;}.d{fill:none;}.e{fill:#f58120;}</style></defs><title>Untitled-3d</title><g class="a"><path d="M106.85,252.13c-3,18.77,12.71,37,35.32,41.23,2.1,20.3,26,39.32,57.73,44.41,27,4.33,51.86-2.72,63.77-16.43a48.64,48.64,0,0,0,14.2,4.56c16.3,2.62,31.72-3.1,40.66-13.65,4,8.79,11,15.12,19.83,16.53,15.75,2.53,31.12-11.6,34.32-31.55.16-1,.28-2,.37-3,16.24-3,28.37-12,30.34-24.25,1.57-9.85-3.75-19.74-13.42-27.38-7.86-6.2-18.59-10.92-30.83-12.88a77.4,77.4,0,0,0-8.93-.9,45.07,45.07,0,0,0-82,.74c-4.31-17.67-20.31-32.33-41.28-35.69-27-4.34-52.07,11.69-56,35.81a50.49,50.49,0,0,0-16.19-5.46c-13.4-2.15-26.17,1.05-35.2,7.78A31.38,31.38,0,0,0,106.85,252.13Z" transform="translate(-106.49 -180.66)"/></g><path class="b" d="M110.42,250c-3,18.36,12.43,36.15,34.53,40.32,2.06,19.84,25.47,38.45,56.45,43.42,26.42,4.24,50.72-2.66,62.36-16.07a47.93,47.93,0,0,0,13.89,4.47c15.94,2.55,31-3,39.76-13.35,3.87,8.59,10.77,14.78,19.39,16.16,15.4,2.48,30.43-11.34,33.56-30.85.16-1,.27-2,.37-2.94,15.87-2.95,27.73-11.73,29.66-23.71,1.54-9.63-3.67-19.3-13.12-26.76-7.69-6.07-18.18-10.68-30.15-12.61a75.83,75.83,0,0,0-8.74-.87,44.07,44.07,0,0,0-80.21.72c-4.22-17.28-19.86-31.61-40.37-34.9-26.42-4.25-50.91,11.43-54.73,35a49.89,49.89,0,0,0-15.83-5.34c-13.11-2.1-25.59,1-34.42,7.62A30.62,30.62,0,0,0,110.42,250Z" transform="translate(-106.49 -180.66)"/><path class="c" d="M167.13,249.76h6.41l-11,26.41H157l-4.53-11.6-4.49,11.6h-5.54l-11-26.41h6.35l7.86,20.06,3.23-8.57-4.64-11.44h5.44l2.78,8.11,2.82-8.11h5.44l-4.58,11.44,3.17,8.57Z" transform="translate(-106.49 -180.66)"/><path class="c" d="M188,276.67a14.65,14.65,0,0,1-5.74-1.08A13,13,0,0,1,175,268.3a14,14,0,0,1-1-5.19,14.72,14.72,0,0,1,1-5.32,13,13,0,0,1,2.77-4.38,13.26,13.26,0,0,1,4.41-3A14.66,14.66,0,0,1,188,249.3a14.28,14.28,0,0,1,5.77,1.11,13.39,13.39,0,0,1,4.34,3,12.7,12.7,0,0,1,2.72,4.34,14.48,14.48,0,0,1,.93,5.14c0,.44,0,.86,0,1.26a5.19,5.19,0,0,1-.13,1H181.2a7.91,7.91,0,0,0,.75,2.77,6.91,6.91,0,0,0,1.57,2.07,6.73,6.73,0,0,0,2.16,1.31,7.2,7.2,0,0,0,2.52.45,7.83,7.83,0,0,0,3.81-1,5.18,5.18,0,0,0,2.44-2.6l5.8,1.62a11.84,11.84,0,0,1-4.66,5A14.51,14.51,0,0,1,188,276.67Zm6.86-15.93a7,7,0,0,0-2.2-4.76,7,7,0,0,0-7.25-1.31,6.61,6.61,0,0,0-2.1,1.34,6.91,6.91,0,0,0-1.48,2.06,7.11,7.11,0,0,0-.68,2.67Z" transform="translate(-106.49 -180.66)"/><path class="c" d="M213.1,276.67a10.06,10.06,0,0,1-3.58-.63,8.81,8.81,0,0,1-2.87-1.76,8.29,8.29,0,0,1-1.89-2.65,8.09,8.09,0,0,1-.68-3.33,7.38,7.38,0,0,1,.83-3.45,7.87,7.87,0,0,1,2.32-2.69,11.53,11.53,0,0,1,3.55-1.74,15.52,15.52,0,0,1,4.54-.63,19.59,19.59,0,0,1,3.45.3,13.82,13.82,0,0,1,3,.86v-1.52a5.3,5.3,0,0,0-1.48-4,6.21,6.21,0,0,0-4.41-1.41,11.58,11.58,0,0,0-4.14.76,19.21,19.21,0,0,0-4.13,2.21l-2.07-4.28a19.54,19.54,0,0,1,11-3.38q5.7,0,8.85,2.8t3.15,8.09v8.22a2.34,2.34,0,0,0,.38,1.51,1.64,1.64,0,0,0,1.23.5v5.75a15.36,15.36,0,0,1-3,.35,4.51,4.51,0,0,1-2.95-.86,3.67,3.67,0,0,1-1.29-2.27l-.15-1.46a11.61,11.61,0,0,1-4.28,3.53A12.27,12.27,0,0,1,213.1,276.67Zm1.92-4.94a8.89,8.89,0,0,0,3.25-.6,5.91,5.91,0,0,0,2.39-1.62,2.42,2.42,0,0,0,1.11-1.91v-3a17.19,17.19,0,0,0-2.62-.73,14.49,14.49,0,0,0-2.72-.27,7.17,7.17,0,0,0-4.28,1.18,3.56,3.56,0,0,0-1.67,3,3.63,3.63,0,0,0,1.31,2.85A4.8,4.8,0,0,0,215,271.73Z" transform="translate(-106.49 -180.66)"/><path class="c" d="M250.45,274.81a32.44,32.44,0,0,1-3.32,1.21,14.1,14.1,0,0,1-4.14.6,9.74,9.74,0,0,1-2.64-.35,5.72,5.72,0,0,1-2.17-1.14,5.57,5.57,0,0,1-1.49-2,7.31,7.31,0,0,1-.55-3V255h-3.48v-5.19h3.48v-8.57h6.75v8.57h5.55V255h-5.55v12.9a2.41,2.41,0,0,0,.73,2,2.79,2.79,0,0,0,1.79.58,6.34,6.34,0,0,0,2.07-.35c.67-.24,1.21-.44,1.61-.61Z" transform="translate(-106.49 -180.66)"/><path class="c" d="M278.53,276.17h-6.76V261.35a7.43,7.43,0,0,0-1.16-4.61,3.91,3.91,0,0,0-3.27-1.49,5.12,5.12,0,0,0-1.92.4,7.38,7.38,0,0,0-1.91,1.14,9.24,9.24,0,0,0-1.67,1.74,7.07,7.07,0,0,0-1.11,2.21v15.43H254v-36.8h6.75v15.27a10.23,10.23,0,0,1,4-3.95,11.1,11.1,0,0,1,5.52-1.39,8.76,8.76,0,0,1,4.18.88,6.57,6.57,0,0,1,2.52,2.35,9.4,9.4,0,0,1,1.26,3.32,20.21,20.21,0,0,1,.36,3.83Z" transform="translate(-106.49 -180.66)"/><path class="c" d="M296.67,276.67a14.68,14.68,0,0,1-5.74-1.08,13,13,0,0,1-7.19-7.29,14,14,0,0,1-1-5.19,14.72,14.72,0,0,1,1-5.32,13,13,0,0,1,2.77-4.38,13.26,13.26,0,0,1,4.41-3,14.66,14.66,0,0,1,5.82-1.11,14.28,14.28,0,0,1,5.77,1.11,13.28,13.28,0,0,1,4.34,3,12.7,12.7,0,0,1,2.72,4.34,14.48,14.48,0,0,1,.93,5.14c0,.44,0,.86,0,1.26a5.19,5.19,0,0,1-.13,1H289.92a7.91,7.91,0,0,0,.75,2.77,6.91,6.91,0,0,0,1.57,2.07,6.73,6.73,0,0,0,2.16,1.31,7.2,7.2,0,0,0,2.52.45,7.83,7.83,0,0,0,3.81-1,5.18,5.18,0,0,0,2.44-2.6l5.8,1.62a11.78,11.78,0,0,1-4.66,5A14.51,14.51,0,0,1,296.67,276.67Zm6.86-15.93a7,7,0,0,0-2.2-4.76,7,7,0,0,0-7.25-1.31A6.61,6.61,0,0,0,292,256a6.91,6.91,0,0,0-1.48,2.06,7.11,7.11,0,0,0-.68,2.67Z" transform="translate(-106.49 -180.66)"/><path class="c" d="M330.34,255.6a13.33,13.33,0,0,0-5.49,1.19,6.91,6.91,0,0,0-3.48,3.4v16h-6.75V249.76h6.2v5.64a11.78,11.78,0,0,1,1.66-2.44,12.21,12.21,0,0,1,2.07-1.89,9.4,9.4,0,0,1,2.24-1.24,6.3,6.3,0,0,1,2.19-.43h.83a3,3,0,0,1,.53,0Z" transform="translate(-106.49 -180.66)"/><path class="d" d="M334.12,246.08v-6.71h6.76v6.71Zm0,30.09V249.76h6.76v26.41Z" transform="translate(-106.49 -180.66)"/><path class="c" d="M362.8,274.81a31.84,31.84,0,0,1-3.33,1.21,14,14,0,0,1-4.13.6,9.74,9.74,0,0,1-2.64-.35,5.72,5.72,0,0,1-2.17-1.14,5.57,5.57,0,0,1-1.49-2,7.31,7.31,0,0,1-.55-3V255H345v-5.19h3.48v-8.57h6.75v8.57h5.55V255h-5.55v12.9a2.38,2.38,0,0,0,.73,2,2.79,2.79,0,0,0,1.79.58,6.34,6.34,0,0,0,2.07-.35c.67-.24,1.21-.44,1.61-.61Z" transform="translate(-106.49 -180.66)"/><path class="e" d="M342.16,201.36a4.22,4.22,0,0,1-4.22,4.22h0a4.21,4.21,0,0,1-4.2-4.22V184.87a4.21,4.21,0,0,1,4.2-4.21h0a4.23,4.23,0,0,1,4.22,4.21Z" transform="translate(-106.49 -180.66)"/><path class="e" d="M388.35,230.5a29.18,29.18,0,0,1,20.81,9.12h.1c-11.19-26.75-34.58-46.17-62.48-49.85,11.27,7,19.56,26.43,20.53,49.85h.26A29.15,29.15,0,0,1,388.35,230.5Z" transform="translate(-106.49 -180.66)"/><path class="e" d="M286.48,229.71c8.23,0,15.71,3.71,21.41,9.78,1-23.5,9.38-43,20.71-49.86-28.29,3.32-52.09,22.81-63.45,49.8C270.82,233.4,278.29,229.71,286.48,229.71Z" transform="translate(-106.49 -180.66)"/><path class="e" d="M337.81,230.5a29.17,29.17,0,0,1,21,9.32c.13-2,.22-4,.22-6,0-24.91-9.67-45.09-21.58-45.09s-21.58,20.18-21.58,45.09c0,2.31.1,4.56.26,6.79C321.83,234.35,329.45,230.5,337.81,230.5Z" transform="translate(-106.49 -180.66)"/><path class="e" d="M340.71,244.58v-6.13a3.33,3.33,0,0,0-1-2.35l-.16-.15a3.32,3.32,0,0,0-4.72,0l-.21.21a3.35,3.35,0,0,0-.94,2.32v6.08Z" transform="translate(-106.49 -180.66)"/><rect class="e" x="227.22" y="68.98" width="7" height="26.73"/></svg>