<svg xmlns="http://www.w3.org/2000/svg" viewBox="0 0 134.79 76.41"><defs><style>.a{font-size:33.29px;font-family:MuktaMahee-Bold, Mukta Mahee;font-weight:700;}.a,.b{fill:#3c749e;}.b{font-size:22.37px;font-family:MuktaMahee-Light, Mukta Mahee Light;font-weight:300;}.c{fill:#6a6b1e;}.d{fill:#c6c8c3;}</style></defs><title>logo-final</title><text class="a" transform="translate(21.52 47.24)">TEMPLE</text><text class="b" transform="translate(25.89 64.67)">Inn &amp; Suites</text><path class="c" d="M4.77,36h0Z"/><path class="c" d="M4.75,67.57l.11-.1.48.2a4.53,4.53,0,0,1,.11-.49A2.83,2.83,0,0,0,5.51,65c0-.12.06-.33.14-.48.2-.4.17-.54-.19-.8-.24.73-.24.73-.71.64a3.46,3.46,0,0,1,.18-.67,4.1,4.1,0,0,1,.46-.57L5.28,63a2.52,2.52,0,0,0-.59.39,8.91,8.91,0,0,1-1,1.21c-.5.39-.4,1-.67,1.39-.47.71.29.92.46,1.36a2.27,2.27,0,0,0,.48.6,2.6,2.6,0,0,1,.23.28c.22-.12.46-.23.69-.33C4.87,67.78,4.81,67.66,4.75,67.57Z"/><path class="c" d="M32.64.06c-.57-.19-1,.08-1,.66a10.51,10.51,0,0,0,.17,1.68.83.83,0,0,1-.45,1,10.28,10.28,0,0,0-.93.49C28.8,5,27.17,6.17,25.52,7.32c0,0-.1,0-.18,0L25.46,7l-.12-.09c-.45.52-.89,1-1.33,1.57l-.17-.12.2-.51-.1-.14c-.47.28-.93.57-1.39.86a.2.2,0,0,0,0,.21c.53.71-.1,1.22-.41,1.66a3.77,3.77,0,0,0-.89,1.7.59.59,0,0,1-.19.28,13.36,13.36,0,0,0-1.2,1,25.94,25.94,0,0,1-4.62,3.68A28.76,28.76,0,0,1,11.93,19c-.39.19-1,.37-1.23-.14s.27-.78.61-1c1.24-.85,2.52-1.64,3.76-2.5s2.23-1.63,3.35-2.45q.42-.3.87-.57a12,12,0,0,1,1.52-.85c.48-.2.42-.41.14-.85l-1.66,1.17c-1.17.83-2.35,1.63-3.51,2.48-1.5,1.09-3,2.23-4.48,3.32-.33.24-.73.48-.84-.23,0-.13-.19-.25-.3-.36L7.89,15c-.13-.12-.3-.27-.45-.26-.42,0-1-.2-1,.62a.51.51,0,0,1-.36.11.83.83,0,0,0-1,.43l.25.12-1,.54.89.35,0,.19-.68,0,.83,2.39.19-.61.44.31-.37.15c-.1.34.31.92-.46.93a14.9,14.9,0,0,0-.57,1.71c0,.15.26.49.45.55a.85.85,0,0,0,1-.9,1.67,1.67,0,0,1,.22-.95,2.89,2.89,0,0,0,.32-1.88c0-.1-.24-.2-.36-.3l-.14.15L6,18l-.09.22-.15-.07.3-.58c.2.14.51.23.57.41.24.68.83,1.3.47,2.11-.1.24-.21.48-.31.71.47.25.9.53,1.37.73A14.19,14.19,0,0,0,9.58,22V22L7.94,20.57l.14-.23,3,1.08c-.22-.69-1.13-.79-1-1.62,0,0,.06,0,.08,0a.34.34,0,0,1,.17,0,1,1,0,0,0,1.35-.08,10.32,10.32,0,0,1,3-1.24c-.09.53-.18,1.13-.31,1.87l1.83-1.82.17.07a2.65,2.65,0,0,1-.2.64c-.09.16-.28.25-.41.4-.93,1.05-1.83,2.14-2.8,3.16-.27.28-.76.33-1.25.53l1.47-2.12a1.75,1.75,0,0,0-.84.5,2.45,2.45,0,0,1-3.14.69,1.35,1.35,0,0,0-.9-.19,2.55,2.55,0,0,0-1.91,2.2c-.33,2.46-.69,4.91-1,7.42,1.42-2,1.4-4.32,1.77-6.64.38.38-.09,1.26.79,1.08.31.79-.81,1.39-.12,2.43l1.19-1.36-.2.41a26.88,26.88,0,0,0-2,4,2.29,2.29,0,0,1-1.08,1.52l-.19-.45-.6.08c.13.48.28,1,.44,1.58a5.18,5.18,0,0,1,2.36-2.14.39.39,0,0,0-.3.06A3.24,3.24,0,0,1,7,32.6c.73-.85.76-.86,1.22-.48l-.28,1.32c-.26.45-.94-.38-1.26.35L7.1,34l-1,.73c.41.7.31,1-.4,1.23l-.15-.76L4.78,36v1.62L5,37.5c.59-.36.79-.28.92.39a1.58,1.58,0,0,1,0,.53c-.26,1.51-.56,3-.79,4.54a1.84,1.84,0,0,0,.16,1.53A7.61,7.61,0,0,0,6,42.7c.21-1.11.34-2.23.51-3.35a4.22,4.22,0,0,1,.2-.6l.19,0c.29,1.1-.14,2.19-.17,3.29l.15,0,1.27-3.79a3.7,3.7,0,0,1-.05,1.37C7.75,41,7.38,42.27,7,43.56c0,.12-.12.31-.22.33-.66.17-.58.91-1,1.28l.43-.34A10.18,10.18,0,0,1,6,47a23.82,23.82,0,0,1-1.17,2.64c-.17.41-.28.84-.42,1.26l.14.09,1-1.15a1.24,1.24,0,0,1-.09,1.23c-.35.56-.67,1.15-1,1.75s-.42,1.07-.69,1.57C3.24,55.5,2.58,56.54,2,57.62S1.25,58.76.29,58c0,0-.07,0-.21,0a7.71,7.71,0,0,1,.5.67,2.18,2.18,0,0,1,.4.9c0,1.45,1.09,2,2.07,2.89,0-.69.46-.6.84-.61.71,0,.32.56.53.86a7,7,0,0,0,.46-1.36c.06-.33.15-.52.54-.4a5.85,5.85,0,0,0,.71.12L6.22,61a2.19,2.19,0,0,1,.34.66,19.64,19.64,0,0,1,.25,2.64c0,1-.33,2,.54,2.93a4.24,4.24,0,0,1-.74-.12,1.58,1.58,0,0,0-.42.06,1.38,1.38,0,0,0,.08.29A8.09,8.09,0,0,1,8,67.28a7.92,7.92,0,0,1,2.77.51,16.87,16.87,0,0,1-1.24-1.16,1.77,1.77,0,0,1-.45-2.16,1.12,1.12,0,0,0,0-.63c0-.22-.12-.43-.13-.64a2.38,2.38,0,0,1,.82-2.08,30.52,30.52,0,0,0,2.29-2.64,5.13,5.13,0,0,0,1.33-2.17A6.55,6.55,0,0,0,13.73,53c-.34-1.36-.55-2.75-.86-4.12a11.32,11.32,0,0,1-.66-3.65,26.32,26.32,0,0,0,.21-3.43A27.82,27.82,0,0,1,13.25,35a33.22,33.22,0,0,0,.4-3.31,1,1,0,0,0,0-.42,7.22,7.22,0,0,1-.38-2.92,6.06,6.06,0,0,0-.41-2.62,5.9,5.9,0,0,1-.31-1.32.85.85,0,0,1,.47-.93,7.86,7.86,0,0,0,1.15-.92c1-.91,1.92-1.91,3-2.73a12,12,0,0,0,3.61-4.18c.64-1.31,1.46-2.53,2.15-3.81a4.46,4.46,0,0,0,.54-1.6,1.24,1.24,0,0,1,.56-1c1.75-1.2,3.47-2.45,5.24-3.6,1-.65,1.83-1.64,3.15-1.68a7.51,7.51,0,0,1,1.34,0c.64.1,1-.08,1.09-.57A4.09,4.09,0,0,0,32.64.06ZM3.9,59.66a1.47,1.47,0,0,1-.31,0c-.2,0-.39-.12-.59-.18.1-.16.19-.33.3-.48.3-.44.6-.88.92-1.3A9.19,9.19,0,0,1,4.86,57L5,57.1Z"/><path class="d" d="M8,67.28a8,8,0,0,0-8,8H16A8,8,0,0,0,8,67.28Z"/></svg>