<svg xmlns="http://www.w3.org/2000/svg" viewBox="0 0 133.69 75.27"><defs><style>.a{fill:#3c749e;}.b{fill:#6a6b1e;}.c{fill:#c6c8c3;}</style></defs><title>logo-final</title><path class="a" d="M38.13,26.27v3.59H32.21V47.24H27.65V29.86h-5.8V26.27Z"/><path class="a" d="M40.73,26.27H54.38V29.8H45.29v4.79h8.22v3.49H45.29v5.63h9.19v3.53H40.73Z"/><path class="a" d="M59.27,26.27H65l3,9.55c.14.42.27.88.42,1.37s.28,1,.41,1.46.26,1,.37,1.43.2.9.27,1.3h.13c.07-.35.15-.77.27-1.25s.23-1,.36-1.48.27-1,.4-1.5.26-.93.37-1.33l2.89-9.55h5.76l1.57,21h-4.3q-.19-3.47-.4-6.93t-.26-7l0-2.72h-.1c-.28,1.22-.6,2.49-.94,3.82s-.68,2.5-1,3.5l-3,9.32H67.72l-3-9.35c-.37-1.2-.73-2.47-1.06-3.8s-.6-2.5-.8-3.49h-.1c0,.79,0,1.63,0,2.51s-.05,1.75-.09,2.61-.06,1.72-.1,2.55-.07,1.59-.11,2.28L62,47.24H57.77Z"/><path class="a" d="M85.66,26.27H93a11.7,11.7,0,0,1,3.31.43A7.25,7.25,0,0,1,98.86,28a5.63,5.63,0,0,1,1.62,2,6.31,6.31,0,0,1,.56,2.71,6.78,6.78,0,0,1-.66,3.1,6.09,6.09,0,0,1-1.82,2.14,7.92,7.92,0,0,1-2.68,1.27,12.29,12.29,0,0,1-3.26.42h-2.4v7.62H85.66Zm4.56,9.85h1.87A8.8,8.8,0,0,0,93.74,36a3.83,3.83,0,0,0,1.36-.53,2.85,2.85,0,0,0,.92-1,3.26,3.26,0,0,0,.33-1.55,2.71,2.71,0,0,0-1.1-2.39,4.76,4.76,0,0,0-2.79-.77H90.22Z"/><path class="a" d="M104.3,26.27h4.56V43.64h8.46v3.6h-13Z"/><path class="a" d="M119.88,26.27h13.65V29.8h-9.09v4.79h8.23v3.49h-8.23v5.63h9.19v3.53H119.88Z"/><path class="a" d="M29.29,50.57v14.1H27.68V50.57Z"/><path class="a" d="M34.24,64.67H32.67V54.15h1.19l.24,1.46a6.84,6.84,0,0,1,1.65-1.17,4.44,4.44,0,0,1,2-.42,3.52,3.52,0,0,1,2.53.89,3.35,3.35,0,0,1,.91,2.51v7.25H39.61v-7A2.69,2.69,0,0,0,39.07,56a2.13,2.13,0,0,0-1.79-.69,3.65,3.65,0,0,0-1.59.39,4.8,4.8,0,0,0-1.45,1.11Z"/><path class="a" d="M46,64.67H44.39V54.15h1.19l.25,1.46a6.8,6.8,0,0,1,1.64-1.17,4.44,4.44,0,0,1,2-.42,3.5,3.5,0,0,1,2.53.89,3.35,3.35,0,0,1,.91,2.51v7.25H51.33v-7A2.69,2.69,0,0,0,50.79,56,2.13,2.13,0,0,0,49,55.29a3.65,3.65,0,0,0-1.59.39A4.93,4.93,0,0,0,46,56.79Z"/><path class="a" d="M60,60.57a3.75,3.75,0,0,1,1-2.7,7.2,7.2,0,0,1,2.67-1.68,8,8,0,0,1-1.13-1.52,3.68,3.68,0,0,1-.48-1.88,2.85,2.85,0,0,1,.29-1.32,2.9,2.9,0,0,1,.79-1,3.82,3.82,0,0,1,1.15-.6,4.5,4.5,0,0,1,1.39-.21,4.25,4.25,0,0,1,1.41.22,3.34,3.34,0,0,1,1.12.64,2.9,2.9,0,0,1,.72,1,3,3,0,0,1,.26,1.27,3.13,3.13,0,0,1-.6,1.94,4.73,4.73,0,0,1-1.72,1.37l-.77-.92a3.49,3.49,0,0,0,1.15-.94,2.2,2.2,0,0,0,.42-1.36,2,2,0,0,0-.55-1.42,2,2,0,0,0-1.51-.57,1.91,1.91,0,0,0-1.52.56,1.94,1.94,0,0,0-.49,1.34,3.27,3.27,0,0,0,.56,1.87,13,13,0,0,0,1.45,1.71l4.32,4.38a12.43,12.43,0,0,0,.73-1.4,15,15,0,0,0,.66-1.71l1.27.52a14.37,14.37,0,0,1-.8,1.94,14.84,14.84,0,0,1-.92,1.61l2.91,3h-1.9l-1.84-1.88a6.12,6.12,0,0,1-.87.8,5,5,0,0,1-1.1.66,6.29,6.29,0,0,1-1.35.44,8.37,8.37,0,0,1-1.64.16A6.08,6.08,0,0,1,63,64.52a5.06,5.06,0,0,1-1.6-.89,4.05,4.05,0,0,1-1-1.36A3.88,3.88,0,0,1,60,60.57Zm1.57,0a2.77,2.77,0,0,0,1,2.27,4.18,4.18,0,0,0,2.68.82,5,5,0,0,0,1.22-.16,6.65,6.65,0,0,0,1.09-.4,5,5,0,0,0,.9-.57,4.18,4.18,0,0,0,.63-.64L64.5,57.11a5.87,5.87,0,0,0-2.13,1.38A2.85,2.85,0,0,0,61.6,60.53Z"/><path class="a" d="M84.14,50.39a10.14,10.14,0,0,1,1.94.18,7.86,7.86,0,0,1,1.85.61l-.41,1.32a9,9,0,0,0-1.73-.63,7,7,0,0,0-1.58-.18,3.58,3.58,0,0,0-2.19.62,2.23,2.23,0,0,0-.2,3.29,5.28,5.28,0,0,0,1.94,1l1.5.49a5.34,5.34,0,0,1,2.52,1.58,3.53,3.53,0,0,1,.79,2.27,3.76,3.76,0,0,1-.34,1.64,3.37,3.37,0,0,1-1,1.23,4.5,4.5,0,0,1-1.49.79,6.57,6.57,0,0,1-1.93.28,11.73,11.73,0,0,1-2.13-.2,9.39,9.39,0,0,1-2.14-.7L80,62.65a8.75,8.75,0,0,0,1.85.69,8.41,8.41,0,0,0,1.91.21A3.94,3.94,0,0,0,86,62.94a2.06,2.06,0,0,0,.91-1.85,2.84,2.84,0,0,0-.12-.84,2,2,0,0,0-.44-.73,3.55,3.55,0,0,0-.85-.64,7.66,7.66,0,0,0-1.37-.57l-1.45-.47a5.42,5.42,0,0,1-2.28-1.31,3.06,3.06,0,0,1-.87-2.29,3.55,3.55,0,0,1,1.18-2.81A5,5,0,0,1,84.14,50.39Z"/><path class="a" d="M98.24,54.15H99.8V64.67H98.62l-.23-1.32h-.06a5.31,5.31,0,0,1-1.46,1.07,4.37,4.37,0,0,1-2,.45A3.77,3.77,0,0,1,92.2,64a3.55,3.55,0,0,1-1-2.78v-7h1.57v6.78a4,4,0,0,0,.18,1.3,2.07,2.07,0,0,0,.5.83,1.86,1.86,0,0,0,.76.43,3.57,3.57,0,0,0,1,.13,3.73,3.73,0,0,0,1.76-.43,4.19,4.19,0,0,0,1.33-1.1Z"/><path class="a" d="M104,51.45a1,1,0,0,1-.75-.3,1,1,0,0,1-.3-.76,1,1,0,0,1,.3-.77,1,1,0,0,1,.75-.3,1.09,1.09,0,0,1,.73.29,1,1,0,0,1,.32.78,1,1,0,0,1-.31.78A1.12,1.12,0,0,1,104,51.45Zm-.78,13.22V54.15h1.56V64.67Z"/><path class="a" d="M113.65,55.34h-3.31v6.51a1.44,1.44,0,0,0,.44,1.23,1.91,1.91,0,0,0,1.15.31,5.6,5.6,0,0,0,1.09-.11A8.88,8.88,0,0,0,114,63l.25,1.19a6.49,6.49,0,0,1-1.12.31,7.36,7.36,0,0,1-1.45.14c-1.91,0-2.87-.88-2.87-2.62V55.34h-1.72V54.15h1.72V50.8h1.57v3.35h3.31Z"/><path class="a" d="M124.72,59.52h-7.51v.2a4,4,0,0,0,1,2.89,3.72,3.72,0,0,0,2.76,1,7.38,7.38,0,0,0,1.45-.13,7.23,7.23,0,0,0,1.39-.41l.33,1.16a7.21,7.21,0,0,1-1.46.44,9.27,9.27,0,0,1-1.78.17,6.58,6.58,0,0,1-2.06-.32,4.53,4.53,0,0,1-1.69-1A4.6,4.6,0,0,1,116,61.89a6.45,6.45,0,0,1-.43-2.46,6.66,6.66,0,0,1,.36-2.24,5,5,0,0,1,1-1.71,4.21,4.21,0,0,1,1.54-1.08,5.1,5.1,0,0,1,2-.38,4.52,4.52,0,0,1,1.73.32,3.9,3.9,0,0,1,1.33.93,4.2,4.2,0,0,1,.86,1.45,5.66,5.66,0,0,1,.3,1.88Zm-1.61-1.16a4.7,4.7,0,0,0-.15-1.2,3.37,3.37,0,0,0-.48-1,2.36,2.36,0,0,0-.84-.69,2.79,2.79,0,0,0-1.23-.26,2.9,2.9,0,0,0-2.14.85,3.89,3.89,0,0,0-1,2.33Z"/><path class="a" d="M132.84,55.81a5.67,5.67,0,0,0-1.24-.45,5.55,5.55,0,0,0-1.24-.13,2.74,2.74,0,0,0-1.7.44,1.44,1.44,0,0,0-.56,1.17,1.25,1.25,0,0,0,.44,1,4.82,4.82,0,0,0,1.64.73l.67.2A5.29,5.29,0,0,1,133,59.92a2.52,2.52,0,0,1,.72,1.86,2.82,2.82,0,0,1-1,2.22,4.3,4.3,0,0,1-2.89.87,9.81,9.81,0,0,1-1.86-.17,5.77,5.77,0,0,1-1.47-.48l.4-1.23a5.61,5.61,0,0,0,1.3.48,6.55,6.55,0,0,0,1.52.17,3.14,3.14,0,0,0,1.78-.44,1.47,1.47,0,0,0,.64-1.29,1.39,1.39,0,0,0-.51-1.13A5.09,5.09,0,0,0,130,60l-.71-.22a4.91,4.91,0,0,1-2.06-1.13,2.34,2.34,0,0,1-.67-1.73,2.53,2.53,0,0,1,1-2.11,3.67,3.67,0,0,1,1.15-.59,4.81,4.81,0,0,1,1.46-.21,9.44,9.44,0,0,1,1.55.13,6,6,0,0,1,1.49.45Z"/><path class="b" d="M4.77,36h0Z"/><path class="b" d="M4.75,67.57l.11-.1.48.2a4.53,4.53,0,0,1,.11-.49A2.83,2.83,0,0,0,5.51,65c0-.12.06-.33.14-.48.2-.4.17-.54-.19-.8-.24.73-.24.73-.71.64a3.46,3.46,0,0,1,.18-.67,4.1,4.1,0,0,1,.46-.57L5.28,63a2.52,2.52,0,0,0-.59.39,8.91,8.91,0,0,1-1,1.21c-.5.39-.4,1-.67,1.39-.47.71.29.92.46,1.36a2.27,2.27,0,0,0,.48.6,2.6,2.6,0,0,1,.23.28c.22-.12.46-.23.69-.33C4.87,67.78,4.81,67.66,4.75,67.57Z"/><path class="b" d="M32.64.06c-.57-.19-1,.08-1,.66a10.51,10.51,0,0,0,.17,1.68.83.83,0,0,1-.45,1,10.28,10.28,0,0,0-.93.49C28.8,5,27.17,6.17,25.52,7.32c0,0-.1,0-.18,0L25.46,7l-.12-.09c-.45.52-.89,1-1.33,1.57l-.17-.12.2-.51-.1-.14c-.47.28-.93.57-1.39.86a.2.2,0,0,0,0,.21c.53.71-.1,1.22-.41,1.66a3.77,3.77,0,0,0-.89,1.7.59.59,0,0,1-.19.28,13.36,13.36,0,0,0-1.2,1,25.94,25.94,0,0,1-4.62,3.68A28.76,28.76,0,0,1,11.93,19c-.39.19-1,.37-1.23-.14s.27-.78.61-1c1.24-.85,2.52-1.64,3.76-2.5s2.23-1.63,3.35-2.45q.42-.3.87-.57a12,12,0,0,1,1.52-.85c.48-.2.42-.41.14-.85l-1.66,1.17c-1.17.83-2.35,1.63-3.51,2.48-1.5,1.09-3,2.23-4.48,3.32-.33.24-.73.48-.84-.23,0-.13-.19-.25-.3-.36L7.89,15c-.13-.12-.3-.27-.45-.26-.42,0-1-.2-1,.62a.51.51,0,0,1-.36.11.83.83,0,0,0-1,.43l.25.12-1,.54.89.35,0,.19-.68,0,.83,2.39.19-.61.44.31-.37.15c-.1.34.31.92-.46.93a14.9,14.9,0,0,0-.57,1.71c0,.15.26.49.45.55a.85.85,0,0,0,1-.9,1.67,1.67,0,0,1,.22-.95,2.89,2.89,0,0,0,.32-1.88c0-.1-.24-.2-.36-.3l-.14.15L6,18l-.09.22-.15-.07.3-.58c.2.14.51.23.57.41.24.68.83,1.3.47,2.11-.1.24-.21.48-.31.71.47.25.9.53,1.37.73A14.19,14.19,0,0,0,9.58,22V22L7.94,20.57l.14-.23,3,1.08c-.22-.69-1.13-.79-1-1.62,0,0,.06,0,.08,0a.34.34,0,0,1,.17,0,1,1,0,0,0,1.35-.08,10.32,10.32,0,0,1,3-1.24c-.09.53-.18,1.13-.31,1.87l1.83-1.82.17.07a2.65,2.65,0,0,1-.2.64c-.09.16-.28.25-.41.4-.93,1.05-1.83,2.14-2.8,3.16-.27.28-.76.33-1.25.53l1.47-2.12a1.75,1.75,0,0,0-.84.5,2.45,2.45,0,0,1-3.14.69,1.35,1.35,0,0,0-.9-.19,2.55,2.55,0,0,0-1.91,2.2c-.33,2.46-.69,4.91-1,7.42,1.42-2,1.4-4.32,1.77-6.64.38.38-.09,1.26.79,1.08.31.79-.81,1.39-.12,2.43l1.19-1.36-.2.41a26.88,26.88,0,0,0-2,4,2.29,2.29,0,0,1-1.08,1.52l-.19-.45-.6.08c.13.48.28,1,.44,1.58a5.18,5.18,0,0,1,2.36-2.14.39.39,0,0,0-.3.06A3.24,3.24,0,0,1,7,32.6c.73-.85.76-.86,1.22-.48l-.28,1.32c-.26.45-.94-.38-1.26.35L7.1,34l-1,.73c.41.7.31,1-.4,1.23l-.15-.76L4.78,36v1.62L5,37.5c.59-.36.79-.28.92.39a1.58,1.58,0,0,1,0,.53c-.26,1.51-.56,3-.79,4.54a1.84,1.84,0,0,0,.16,1.53A7.61,7.61,0,0,0,6,42.7c.21-1.11.34-2.23.51-3.35a4.22,4.22,0,0,1,.2-.6l.19,0c.29,1.1-.14,2.19-.17,3.29l.15,0,1.27-3.79a3.7,3.7,0,0,1-.05,1.37C7.75,41,7.38,42.27,7,43.56c0,.12-.12.31-.22.33-.66.17-.58.91-1,1.28l.43-.34A10.18,10.18,0,0,1,6,47a23.82,23.82,0,0,1-1.17,2.64c-.17.41-.28.84-.42,1.26l.14.09,1-1.15a1.24,1.24,0,0,1-.09,1.23c-.35.56-.67,1.15-1,1.75s-.42,1.07-.69,1.57C3.24,55.5,2.58,56.54,2,57.62S1.25,58.76.29,58c0,0-.07,0-.21,0a7.71,7.71,0,0,1,.5.67,2.18,2.18,0,0,1,.4.9c0,1.45,1.09,2,2.07,2.89,0-.69.46-.6.84-.61.71,0,.32.56.53.86a7,7,0,0,0,.46-1.36c.06-.33.15-.52.54-.4a5.85,5.85,0,0,0,.71.12L6.22,61a2.19,2.19,0,0,1,.34.66,19.64,19.64,0,0,1,.25,2.64c0,1-.33,2,.54,2.93a4.24,4.24,0,0,1-.74-.12,1.58,1.58,0,0,0-.42.06,1.38,1.38,0,0,0,.08.29A8.09,8.09,0,0,1,8,67.28a7.92,7.92,0,0,1,2.77.51,16.87,16.87,0,0,1-1.24-1.16,1.77,1.77,0,0,1-.45-2.16,1.12,1.12,0,0,0,0-.63c0-.22-.12-.43-.13-.64a2.38,2.38,0,0,1,.82-2.08,30.52,30.52,0,0,0,2.29-2.64,5.13,5.13,0,0,0,1.33-2.17A6.55,6.55,0,0,0,13.73,53c-.34-1.36-.55-2.75-.86-4.12a11.32,11.32,0,0,1-.66-3.65,26.32,26.32,0,0,0,.21-3.43A27.82,27.82,0,0,1,13.25,35a33.22,33.22,0,0,0,.4-3.31,1,1,0,0,0,0-.42,7.22,7.22,0,0,1-.38-2.92,6.06,6.06,0,0,0-.41-2.62,5.9,5.9,0,0,1-.31-1.32.85.85,0,0,1,.47-.93,7.86,7.86,0,0,0,1.15-.92c1-.91,1.92-1.91,3-2.73a12,12,0,0,0,3.61-4.18c.64-1.31,1.46-2.53,2.15-3.81a4.46,4.46,0,0,0,.54-1.6,1.24,1.24,0,0,1,.56-1c1.75-1.2,3.47-2.45,5.24-3.6,1-.65,1.83-1.64,3.15-1.68a7.51,7.51,0,0,1,1.34,0c.64.1,1-.08,1.09-.57A4.09,4.09,0,0,0,32.64.06ZM3.9,59.66a1.47,1.47,0,0,1-.31,0c-.2,0-.39-.12-.59-.18.1-.16.19-.33.3-.48.3-.44.6-.88.92-1.3A9.19,9.19,0,0,1,4.86,57L5,57.1Z"/><path class="c" d="M8,67.28a8,8,0,0,0-8,8H16A8,8,0,0,0,8,67.28Z"/></svg>