<svg xmlns="http://www.w3.org/2000/svg" xmlns:xlink="http://www.w3.org/1999/xlink" viewBox="0 0 134.84 130.09"><defs><style>.a{fill:url(#a);}.b{fill:url(#b);}.c{fill:url(#c);}.d{fill:url(#d);}.e{fill:url(#e);}.f{fill:url(#f);}.g{fill:url(#g);}.h{fill:url(#h);}.i{fill:url(#i);}.j{fill:url(#j);}.k{fill:url(#k);}.l{fill:url(#l);}.m{fill:url(#m);}.n{fill:url(#n);}.o{fill:url(#o);}.p{fill:url(#p);}.q{fill:url(#q);}.r{fill:url(#r);}.s{fill:url(#s);}.t{fill:url(#t);}.u{fill:url(#u);}.v{fill:url(#v);}.w{fill:url(#w);}.x{fill:url(#x);}.y{fill:url(#y);}.z{fill:url(#z);}.aa{fill:#fff;}.ab{fill:url(#aa);}.ac{fill:url(#ab);}.ad{fill:url(#ac);}.ae{fill:url(#ad);}.af{fill:url(#ae);}.ag{fill:url(#af);}.ah{fill:url(#ag);}.ai{fill:url(#ah);}.aj{fill:url(#ai);}.ak{fill:url(#aj);}.al{fill:url(#ak);}.am{fill:url(#al);}.an{fill:url(#am);}.ao{fill:url(#an);}.ap{fill:url(#ao);}.aq{fill:url(#ap);}.ar{fill:url(#aq);}.as{fill:url(#ar);}.at{fill:url(#as);}.au{fill:url(#at);}.av{fill:url(#au);}.aw{fill:url(#av);}.ax{fill:url(#aw);}.ay{fill:url(#ax);}.az{fill:url(#ay);}</style><radialGradient id="a" cx="60.49" cy="51.56" r="85.21" gradientUnits="userSpaceOnUse"><stop offset="0" stop-color="#f68c1e"/><stop offset="0.06" stop-color="#f8a517"/><stop offset="0.15" stop-color="#fbc60d"/><stop offset="0.24" stop-color="#fdde06"/><stop offset="0.32" stop-color="#ffec01"/><stop offset="0.38" stop-color="#fff100"/><stop offset="0.39" stop-color="#fff102"/><stop offset="0.47" stop-color="#fff335"/><stop offset="0.56" stop-color="#fff561"/><stop offset="0.65" stop-color="#fff685"/><stop offset="0.74" stop-color="#fff8a1"/><stop offset="0.82" stop-color="#fff8b5"/><stop offset="0.91" stop-color="#fff9c1"/><stop offset="1" stop-color="#fff9c5"/></radialGradient><radialGradient id="b" cx="218.95" cy="276.86" r="171.98" gradientTransform="translate(-121.6 -328.53) rotate(45) scale(1.84 0.53)" xlink:href="#a"/><radialGradient id="c" cx="149.65" cy="114.41" r="171.99" gradientTransform="translate(-176.77 211.54) rotate(-45) scale(1.84 0.53)" xlink:href="#a"/><radialGradient id="d" cx="196.03" cy="-128.34" r="171.97" gradientTransform="translate(363.29 266.72) rotate(-135) scale(1.84 0.53)" xlink:href="#a"/><radialGradient id="e" cx="30.66" cy="-98.98" r="85.21" gradientTransform="translate(151.76 89.94) rotate(-90)" xlink:href="#a"/><radialGradient id="f" cx="60.49" cy="59.28" r="28.82" gradientUnits="userSpaceOnUse"><stop offset="0" stop-color="#fff100"/><stop offset="0.29" stop-color="#ffee01"/><stop offset="0.48" stop-color="#fee603"/><stop offset="0.63" stop-color="#fdd708"/><stop offset="0.77" stop-color="#fbc20e"/><stop offset="0.9" stop-color="#f8a816"/><stop offset="1" stop-color="#f68c1e"/></radialGradient><radialGradient id="g" cx="59.79" cy="59.8" r="32.03" gradientUnits="userSpaceOnUse"><stop offset="0" stop-color="#fff"/><stop offset="0.07" stop-color="#fffdd6"/><stop offset="0.28" stop-color="#fff664"/><stop offset="0.43" stop-color="#fff31c"/><stop offset="0.49" stop-color="#fff100"/><stop offset="0.58" stop-color="#ffec02"/><stop offset="0.69" stop-color="#fddd06"/><stop offset="0.81" stop-color="#fbc40d"/><stop offset="0.94" stop-color="#f8a118"/><stop offset="1" stop-color="#f68c1e"/></radialGradient><linearGradient id="h" x1="60.49" y1="53.99" x2="60.49" y2="36.45" gradientUnits="userSpaceOnUse"><stop offset="0" stop-color="#f6d029"/><stop offset="0.11" stop-color="#f6d32f"/><stop offset="0.25" stop-color="#f7dc3f"/><stop offset="0.41" stop-color="#f9ea5b"/><stop offset="0.46" stop-color="#f9ef64"/><stop offset="0.53" stop-color="#f9ef6a"/><stop offset="0.63" stop-color="#f8ef7a"/><stop offset="0.74" stop-color="#f8ef96"/><stop offset="0.85" stop-color="#f7efbc"/><stop offset="0.98" stop-color="#f5efec"/><stop offset="1" stop-color="#f5eff6"/></linearGradient><radialGradient id="i" cx="53.3" cy="46.3" r="30" xlink:href="#f"/><linearGradient id="j" x1="83.87" y1="48.75" x2="63.27" y2="55.62" xlink:href="#h"/><linearGradient id="k" x1="48.92" y1="78.55" x2="55.2" y2="75.02" xlink:href="#h"/><radialGradient id="l" cx="14.04" cy="232.25" r="12.9" gradientTransform="matrix(0.64, 0.35, -0.41, 0.74, 132.39, -66.62)" gradientUnits="userSpaceOnUse"><stop offset="0" stop-color="#def2fc"/><stop offset="0.08" stop-color="#d9effa"/><stop offset="0.17" stop-color="#cce7f4"/><stop offset="0.26" stop-color="#b5daeb"/><stop offset="0.36" stop-color="#95c7dd"/><stop offset="0.46" stop-color="#6dafcc"/><stop offset="0.46" stop-color="#6cafcc"/><stop offset="0.52" stop-color="#5aa4c3"/><stop offset="0.62" stop-color="#2a87ac"/><stop offset="0.71" stop-color="#006e97"/></radialGradient><radialGradient id="m" cx="13.8" cy="238.06" r="0.02" gradientTransform="matrix(0.64, 0.35, -0.41, 0.74, 130.13, -67.68)" gradientUnits="userSpaceOnUse"><stop offset="0" stop-color="#fff"/><stop offset="0.12" stop-color="#f9fdff"/><stop offset="0.27" stop-color="#e8f7fd"/><stop offset="0.44" stop-color="#cdedfb"/><stop offset="0.63" stop-color="#a7dff9"/><stop offset="0.68" stop-color="#9cdbf8"/><stop offset="0.73" stop-color="#98daf8"/><stop offset="0.79" stop-color="#8ed7f7"/><stop offset="0.83" stop-color="#7bd1f6"/><stop offset="0.88" stop-color="#61caf4"/><stop offset="0.93" stop-color="#40c0f2"/><stop offset="0.98" stop-color="#18b4f0"/><stop offset="1" stop-color="#00adee"/></radialGradient><radialGradient id="n" cx="11.19" cy="229.07" r="44.99" gradientTransform="matrix(0.64, 0.35, -0.41, 0.74, 132.39, -66.62)" gradientUnits="userSpaceOnUse"><stop offset="0" stop-color="#fff"/><stop offset="0.06" stop-color="#fafcfd"/><stop offset="0.13" stop-color="#edf4f8"/><stop offset="0.2" stop-color="#d6e7ef"/><stop offset="0.28" stop-color="#b6d4e2"/><stop offset="0.36" stop-color="#8ebcd2"/><stop offset="0.38" stop-color="#81b5cd"/><stop offset="0.46" stop-color="#6fa7bf"/><stop offset="0.64" stop-color="#3f839b"/><stop offset="0.71" stop-color="#29728b"/></radialGradient><radialGradient id="o" cx="37.83" cy="241.63" r="12.9" xlink:href="#l"/><radialGradient id="p" cx="37.59" cy="247.44" r="0.02" xlink:href="#m"/><radialGradient id="q" cx="34.98" cy="238.45" r="44.99" xlink:href="#n"/><radialGradient id="r" cx="83.57" cy="221.98" r="12.9" xlink:href="#l"/><radialGradient id="s" cx="83.32" cy="227.79" r="0.02" xlink:href="#m"/><radialGradient id="t" cx="80.72" cy="218.79" r="44.98" xlink:href="#n"/><radialGradient id="u" cx="57.15" cy="223.38" r="12.9" xlink:href="#l"/><radialGradient id="v" cx="56.9" cy="229.2" r="0.02" xlink:href="#m"/><radialGradient id="w" cx="54.3" cy="220.2" r="44.98" xlink:href="#n"/><radialGradient id="x" cx="96.88" cy="202.5" r="12.9" xlink:href="#l"/><radialGradient id="y" cx="96.64" cy="208.32" r="0.02" xlink:href="#m"/><radialGradient id="z" cx="94.03" cy="199.32" r="44.99" xlink:href="#n"/><radialGradient id="aa" cx="264.64" cy="833.37" r="13.84" gradientTransform="matrix(-0.01, 0.6, -0.64, -0.02, 557.73, -63.55)" gradientUnits="userSpaceOnUse"><stop offset="0" stop-color="#fff"/><stop offset="0.24" stop-color="#fcfdfe"/><stop offset="0.42" stop-color="#f2f7fa"/><stop offset="0.59" stop-color="#e1edf2"/><stop offset="0.75" stop-color="#cadfe9"/><stop offset="0.9" stop-color="#acccdc"/><stop offset="1" stop-color="#94bed2"/></radialGradient><radialGradient id="ab" cx="253.21" cy="520.03" r="8.27" gradientTransform="matrix(-0.02, 0.89, -0.92, -0.02, 613.49, -128.64)" gradientUnits="userSpaceOnUse"><stop offset="0" stop-color="#fff"/><stop offset="0.42" stop-color="#fdfefe"/><stop offset="0.57" stop-color="#f6fafb"/><stop offset="0.68" stop-color="#ebf2f6"/><stop offset="0.76" stop-color="#dae8ef"/><stop offset="0.84" stop-color="#c4dbe5"/><stop offset="0.91" stop-color="#a8cad9"/><stop offset="0.96" stop-color="#89b7cb"/><stop offset="1" stop-color="#71a8c1"/></radialGradient><radialGradient id="ac" cx="258.45" cy="534.93" r="8.61" gradientTransform="matrix(-0.02, 0.89, -0.9, -0.02, 609, -128.64)" xlink:href="#ab"/><radialGradient id="ad" cx="259.29" cy="631.7" r="25.18" gradientTransform="matrix(-0.02, 0.89, -0.87, -0.02, 621.02, -128.74)" xlink:href="#aa"/><radialGradient id="ae" cx="-183.18" cy="90" r="14.92" gradientTransform="translate(286.77)" gradientUnits="userSpaceOnUse"><stop offset="0" stop-color="#fff"/><stop offset="0.21" stop-color="#fcfdfe"/><stop offset="0.38" stop-color="#f2f7f9"/><stop offset="0.53" stop-color="#e1edf2"/><stop offset="0.67" stop-color="#cadee8"/><stop offset="0.81" stop-color="#abccda"/><stop offset="0.94" stop-color="#86b5ca"/><stop offset="1" stop-color="#71a8c1"/></radialGradient><radialGradient id="af" cx="-172.31" cy="69.31" r="17.2" gradientTransform="translate(286.77)" xlink:href="#aa"/><radialGradient id="ag" cx="319.85" cy="190.2" r="7.48" gradientTransform="matrix(-0.9, -0.43, -0.43, 0.9, 498.57, 23.85)" gradientUnits="userSpaceOnUse"><stop offset="0" stop-color="#fff"/><stop offset="0.28" stop-color="#fcfdfe"/><stop offset="0.51" stop-color="#f2f7fa"/><stop offset="0.71" stop-color="#e1edf3"/><stop offset="0.9" stop-color="#cadfe9"/><stop offset="1" stop-color="#bad5e3"/></radialGradient><radialGradient id="ah" cx="-169.82" cy="81.78" r="23.37" gradientTransform="translate(286.77)" xlink:href="#aa"/><radialGradient id="ai" cx="257.55" cy="576.24" r="9.78" gradientTransform="matrix(-0.02, 0.89, -1, -0.02, 625.79, -128.64)" xlink:href="#ae"/><radialGradient id="aj" cx="-210.33" cy="78.34" r="22" gradientTransform="translate(286.77)" gradientUnits="userSpaceOnUse"><stop offset="0" stop-color="#fff"/><stop offset="0.44" stop-color="#fdfefe"/><stop offset="0.6" stop-color="#f6fafb"/><stop offset="0.72" stop-color="#ebf3f6"/><stop offset="0.81" stop-color="#dae8ef"/><stop offset="0.89" stop-color="#c4dbe6"/><stop offset="0.96" stop-color="#a9cbdb"/><stop offset="1" stop-color="#94bed2"/></radialGradient><radialGradient id="ak" cx="521.67" cy="-237.14" r="15.35" gradientTransform="matrix(-0.74, 0.67, 0.58, 0.64, 596.06, -128.99)" gradientUnits="userSpaceOnUse"><stop offset="0" stop-color="#fff"/><stop offset="0.32" stop-color="#ecf4f7"/><stop offset="0.97" stop-color="#bcd6e4"/><stop offset="1" stop-color="#bad5e3"/></radialGradient><radialGradient id="al" cx="268.32" cy="652.36" r="9.49" gradientTransform="matrix(-0.01, 0.82, -0.84, -0.02, 588.72, -122.86)" xlink:href="#aa"/><radialGradient id="am" cx="-226.69" cy="85.46" r="15.29" xlink:href="#ae"/><radialGradient id="an" cx="551.69" cy="-236.97" r="10.71" gradientTransform="matrix(-0.74, 0.67, 0.67, 0.74, 607.75, -116.08)" xlink:href="#ag"/><radialGradient id="ao" cx="249.61" cy="570.71" r="15.16" gradientTransform="matrix(-0.02, 0.91, -1, -0.02, 625.82, -130.27)" xlink:href="#aa"/><radialGradient id="ap" cx="545.64" cy="-241.05" r="9.13" gradientTransform="matrix(-0.74, 0.67, 0.67, 0.74, 607.75, -116.08)" xlink:href="#ag"/><radialGradient id="aq" cx="447.02" cy="-380.62" r="18.92" gradientTransform="translate(629.98 354.76) rotate(-111.89)" xlink:href="#ab"/><radialGradient id="ar" cx="216.07" cy="519.41" r="25.12" gradientTransform="matrix(-0.02, 1, -1, -0.02, 626.01, -139.34)" xlink:href="#ae"/><radialGradient id="as" cx="240.26" cy="544.44" r="16.84" gradientTransform="matrix(-0.02, 1, -1, -0.02, 626.01, -139.34)" gradientUnits="userSpaceOnUse"><stop offset="0" stop-color="#fff"/><stop offset="0.28" stop-color="#fcfdfe"/><stop offset="0.44" stop-color="#f4f8fa"/><stop offset="0.58" stop-color="#e6f0f4"/><stop offset="0.69" stop-color="#d2e3eb"/><stop offset="0.8" stop-color="#b8d3e0"/><stop offset="0.9" stop-color="#98c0d2"/><stop offset="1" stop-color="#73a9c2"/><stop offset="1" stop-color="#71a8c1"/></radialGradient><radialGradient id="at" cx="-124.93" cy="-122.6" r="23.45" gradientTransform="matrix(0.89, -0.45, 0.45, 0.89, 256.53, 137)" gradientUnits="userSpaceOnUse"><stop offset="0" stop-color="#fff"/><stop offset="0.41" stop-color="#fdfefe"/><stop offset="0.56" stop-color="#f6f9fa"/><stop offset="0.67" stop-color="#ebf1f4"/><stop offset="0.75" stop-color="#dae5eb"/><stop offset="0.82" stop-color="#c4d6df"/><stop offset="0.89" stop-color="#a8c4d0"/><stop offset="0.95" stop-color="#89aebf"/><stop offset="1" stop-color="#6595ac"/><stop offset="1" stop-color="#6394ab"/></radialGradient><radialGradient id="au" cx="-221.09" cy="79.46" r="21.23" gradientTransform="translate(286.77)" xlink:href="#aa"/><radialGradient id="av" cx="219.98" cy="531.65" r="26.13" gradientTransform="matrix(-0.02, 1, -1, -0.02, 626.01, -139.34)" xlink:href="#aa"/><radialGradient id="aw" cx="449.3" cy="50.96" r="16.81" gradientTransform="matrix(-1, 0, 0, 1, 556.78, 0)" xlink:href="#ag"/><radialGradient id="ax" cx="506.09" cy="-226.31" r="14.29" gradientTransform="matrix(-0.74, 0.67, 0.67, 0.74, 607.75, -116.08)" xlink:href="#ag"/><radialGradient id="ay" cx="531.29" cy="-232.75" r="12.8" gradientTransform="matrix(-0.74, 0.67, 0.67, 0.74, 607.75, -116.08)" xlink:href="#ag"/></defs><title>forecast-partial-cloudy-rainy</title><path class="a" d="M60.49,1.06v.83a208,208,0,0,1-2.22,26.18C57.06,35.44,54.5,36,54.5,36h12s-2.56-.57-3.78-7.94A205.8,205.8,0,0,1,60.5,1.89Z" transform="translate(-2.27 -1.06)"/><path class="b" d="M95.49,24.93l-.31.31C93.1,27.08,81.59,37.08,76.12,38.55c-4.32,1.15-7.87-2-7.87-2L83.86,52.19s-3.12-3.55-2-7.87c1.47-5.47,11.47-17,13.31-19.06Z" transform="translate(-2.27 -1.06)"/><path class="c" d="M26.15,24.28l.31.31c1.84,2.08,11.84,13.59,13.3,19.06,1.16,4.32-2,7.87-2,7.87L53.4,35.91s-3.55,3.12-7.87,2c-5.47-1.46-17-11.46-19-13.3Z" transform="translate(-2.27 -1.06)"/><path class="d" d="M25.5,93.62l.31-.31C27.89,91.47,39.39,81.47,44.86,80c4.32-1.16,7.87,2,7.87,2L37.12,66.37s3.13,3.55,2,7.87c-1.46,5.47-11.46,17-13.3,19.05Z" transform="translate(-2.27 -1.06)"/><path class="e" d="M2.27,59.28H3.1a209.43,209.43,0,0,1,26.18,2.21c7.38,1.22,7.95,3.79,7.95,3.79v-12s-.57,2.57-7.95,3.78A205.66,205.66,0,0,1,3.1,59.27Z" transform="translate(-2.27 -1.06)"/><path class="f" d="M85.07,59.28A24.58,24.58,0,1,1,60.49,34.7,24.58,24.58,0,0,1,85.07,59.28Z" transform="translate(-2.27 -1.06)"/><path class="g" d="M60.49,81.05A23.11,23.11,0,0,1,37.23,58.7c0,.19,0,.38,0,.58a23.28,23.28,0,1,0,46.56,0c0-.2,0-.39,0-.58A23.12,23.12,0,0,1,60.49,81.05Z" transform="translate(-2.27 -1.06)"/><path class="h" d="M81.64,49.72a23.17,23.17,0,0,0-21.1-13.6h-.09a23.16,23.16,0,0,0-21.1,13.6c-.72,1.59-.54,1.93-.23,2.13s.76.12,1.52-.62c4.31-3.8,11.57-6.29,19.81-6.29h.09c8.24,0,15.5,2.49,19.8,6.29.77.74,1.23.77,1.52.62S82.36,51.31,81.64,49.72Z" transform="translate(-2.27 -1.06)"/><path class="i" d="M38.79,70.81A24.57,24.57,0,1,0,81.74,46.94a15.93,15.93,0,0,0-7.89,6c-.53-.05-1.06-.08-1.6-.08a15.11,15.11,0,0,0-13.84,9.05A13.44,13.44,0,0,0,51.06,67a13.57,13.57,0,0,0-2.4-.27h-.3A13.09,13.09,0,0,0,38.79,70.81Z" transform="translate(-2.27 -1.06)"/><path class="j" d="M80.34,51.23c.77.74,1.23.77,1.52.62s.5-.54-.22-2.13c-.36-.78-.77-1.53-1.2-2.26a16.15,16.15,0,0,0-2.93,1.71A20,20,0,0,1,80.34,51.23Z" transform="translate(-2.27 -1.06)"/><path class="k" d="M60.49,82.56A23.28,23.28,0,0,0,83.77,59.28c0-.2,0-.39,0-.58A23.35,23.35,0,0,1,40.27,69.47l-.5.41A23.27,23.27,0,0,0,60.49,82.56Z" transform="translate(-2.27 -1.06)"/><path class="l" d="M50.16,106.84a9.3,9.3,0,0,1,.5-5.07,9.35,9.35,0,0,1-4,3.12,6.93,6.93,0,0,0-3.89,3A4.25,4.25,0,0,0,44,113.74h0l0-.08,0,.09h0a4.27,4.27,0,0,0,5.62-2A6.93,6.93,0,0,0,50.16,106.84Z" transform="translate(-2.27 -1.06)"/><polygon class="m" points="41.81 112.61 41.8 112.65 41.81 112.61 41.81 112.61"/><path class="n" d="M43.73,107.57A7.13,7.13,0,0,1,47.29,105a2.54,2.54,0,0,0-1,1.45A6.34,6.34,0,0,0,43.73,107.57Z" transform="translate(-2.27 -1.06)"/><path class="o" d="M61.5,122.15a9.35,9.35,0,0,1,.5-5.08,9.3,9.3,0,0,1-4,3.13,6.93,6.93,0,0,0-3.89,3,4.28,4.28,0,0,0,1.28,5.83h0l.05-.08,0,.09h0A4.26,4.26,0,0,0,61,127,6.89,6.89,0,0,0,61.5,122.15Z" transform="translate(-2.27 -1.06)"/><polygon class="p" points="53.16 127.92 53.14 127.96 53.16 127.92 53.16 127.92"/><path class="q" d="M55.07,122.88a7.17,7.17,0,0,1,3.56-2.55,2.54,2.54,0,0,0-1,1.46A6.34,6.34,0,0,0,55.07,122.88Z" transform="translate(-2.27 -1.06)"/><path class="r" d="M98.68,123.81a9.44,9.44,0,0,1,.49-5.08,9.38,9.38,0,0,1-4,3.13,6.92,6.92,0,0,0-3.88,3,4.25,4.25,0,0,0,1.28,5.83h0l0-.08,0,.09h0a4.26,4.26,0,0,0,5.62-2A7,7,0,0,0,98.68,123.81Z" transform="translate(-2.27 -1.06)"/><polygon class="s" points="90.33 129.57 90.31 129.61 90.33 129.57 90.33 129.57"/><path class="t" d="M92.25,124.54A7.17,7.17,0,0,1,95.8,122a2.5,2.5,0,0,0-1,1.45A6.43,6.43,0,0,0,92.25,124.54Z" transform="translate(-2.27 -1.06)"/><path class="u" d="M81.26,115.52a9.33,9.33,0,0,1,.5-5.08,9.5,9.5,0,0,1-4,3.13,7,7,0,0,0-3.89,3,4.25,4.25,0,0,0,1.28,5.83h0l.05-.08,0,.08h0a4.27,4.27,0,0,0,5.62-2A6.9,6.9,0,0,0,81.26,115.52Z" transform="translate(-2.27 -1.06)"/><polygon class="v" points="72.91 121.28 72.89 121.32 72.91 121.28 72.91 121.28"/><path class="w" d="M74.83,116.25a7.17,7.17,0,0,1,3.56-2.55,2.54,2.54,0,0,0-1,1.46A6.34,6.34,0,0,0,74.83,116.25Z" transform="translate(-2.27 -1.06)"/><path class="x" d="M115.11,114.15a9.3,9.3,0,0,1,.5-5.07,9.29,9.29,0,0,1-4,3.12,6.93,6.93,0,0,0-3.89,3,4.26,4.26,0,0,0,1.28,5.83h0l0-.08,0,.09h0a4.27,4.27,0,0,0,5.62-2A6.93,6.93,0,0,0,115.11,114.15Z" transform="translate(-2.27 -1.06)"/><polygon class="y" points="106.76 119.92 106.75 119.96 106.76 119.92 106.76 119.92"/><path class="z" d="M108.68,114.89a7.17,7.17,0,0,1,3.56-2.55,2.54,2.54,0,0,0-1,1.45A6.27,6.27,0,0,0,108.68,114.89Z" transform="translate(-2.27 -1.06)"/><polygon class="aa" points="31.71 82.77 59.38 74.33 67.41 61.17 83.77 58.61 112.01 53.8 123.89 71.45 134.48 85.89 127.42 89.42 93.4 96.48 69.33 96.48 42.07 89.52 31.71 82.77"/><path class="ab" d="M28.28,87.08a2.77,2.77,0,0,0,2.93-2.64,2.85,2.85,0,0,0-2.85-2.79,2.75,2.75,0,0,0-2.92,2.63A2.84,2.84,0,0,0,28.28,87.08Z" transform="translate(-2.27 -1.06)"/><path class="ac" d="M132.71,91.39a4.22,4.22,0,0,0,4.4-4,4.32,4.32,0,1,0-4.4,4Z" transform="translate(-2.27 -1.06)"/><path class="ad" d="M126,97.22a5.72,5.72,0,0,0,5.89-5.58,5.79,5.79,0,0,0-5.67-5.85,5.72,5.72,0,0,0-5.89,5.58A5.78,5.78,0,0,0,126,97.22Z" transform="translate(-2.27 -1.06)"/><path class="ae" d="M64.11,105.36a5.72,5.72,0,1,0-5.47-5.83A5.65,5.65,0,0,0,64.11,105.36Z" transform="translate(-2.27 -1.06)"/><path class="af" d="M113.61,97.29a7.64,7.64,0,1,0-7.64,7.64A7.64,7.64,0,0,0,113.61,97.29Z" transform="translate(-2.27 -1.06)"/><path class="ag" d="M129.16,66.37A7.64,7.64,0,1,0,121.52,74,7.64,7.64,0,0,0,129.16,66.37Z" transform="translate(-2.27 -1.06)"/><path class="ah" d="M124.76,61.47A7.27,7.27,0,0,0,118,60.6a6.71,6.71,0,0,1,10,7.49A7.13,7.13,0,0,0,124.76,61.47Z" transform="translate(-2.27 -1.06)"/><path class="ai" d="M136.91,77.78a10.37,10.37,0,1,0-10.37,10.37A10.37,10.37,0,0,0,136.91,77.78Z" transform="translate(-2.27 -1.06)"/><path class="aj" d="M44.22,96.29c3.57.08,6.51-2.42,6.57-5.58S48,84.94,44.46,84.86s-6.5,2.43-6.57,5.58S40.66,96.22,44.22,96.29Z" transform="translate(-2.27 -1.06)"/><path class="ak" d="M82.29,68.65a11.2,11.2,0,1,0-11.2,11.19A11.19,11.19,0,0,0,82.29,68.65Z" transform="translate(-2.27 -1.06)"/><path class="al" d="M66.11,61.39a10.83,10.83,0,0,0-4.84,7.73,9.51,9.51,0,0,1,3.25-7.85c3.34-3,8-3.44,11.06-1.18C73,58.78,69.31,59.18,66.11,61.39Z" transform="translate(-2.27 -1.06)"/><path class="am" d="M35.06,89.86A6.06,6.06,0,0,0,41.33,84a6.15,6.15,0,0,0-6.06-6.18A6,6,0,0,0,29,83.67,6.16,6.16,0,0,0,35.06,89.86Z" transform="translate(-2.27 -1.06)"/><path class="an" d="M69,91.59A10.21,10.21,0,1,0,58.8,101.8,10.21,10.21,0,0,0,69,91.59Z" transform="translate(-2.27 -1.06)"/><path class="ao" d="M32.49,80.09a6.34,6.34,0,0,0-2.93,5.13,5.83,5.83,0,0,1,9.33-5.56A6.2,6.2,0,0,0,32.49,80.09Z" transform="translate(-2.27 -1.06)"/><path class="ap" d="M46.12,87.8c4.85.11,8.86-3.37,9-7.77s-3.76-8-8.61-8.15-8.85,3.38-8.94,7.78S41.27,87.7,46.12,87.8Z" transform="translate(-2.27 -1.06)"/><path class="aq" d="M42.4,74.8a8.67,8.67,0,0,0-4,7.06,8,8,0,0,1,12.87-7.65A8.54,8.54,0,0,0,42.4,74.8Z" transform="translate(-2.27 -1.06)"/><path class="ar" d="M112.55,77.89A11,11,0,1,0,126.92,84,11.05,11.05,0,0,0,112.55,77.89Z" transform="translate(-2.27 -1.06)"/><path class="as" d="M106.85,75A14.24,14.24,0,1,0,92.91,60.5,14.24,14.24,0,0,0,106.85,75Z" transform="translate(-2.27 -1.06)"/><path class="at" d="M75,107.33A11.05,11.05,0,1,0,64.14,96.05,11,11,0,0,0,75,107.33Z" transform="translate(-2.27 -1.06)"/><path class="au" d="M101.29,90.24a12.4,12.4,0,1,0-5.41,16.69A12.4,12.4,0,0,0,101.29,90.24Z" transform="translate(-2.27 -1.06)"/><path class="av" d="M69.86,75.84a9.48,9.48,0,1,0-9.48,9.47A9.47,9.47,0,0,0,69.86,75.84Z" transform="translate(-2.27 -1.06)"/><path class="aw" d="M86.13,74.46a12,12,0,1,0-11.79-12.3A12,12,0,0,0,86.13,74.46Z" transform="translate(-2.27 -1.06)"/><path class="ax" d="M108.78,50.05a14,14,0,0,0-12.44,4.06A12.92,12.92,0,0,1,120,58.88C118.5,54.47,114.24,50.89,108.78,50.05Z" transform="translate(-2.27 -1.06)"/><path class="ay" d="M81,54.64a11.87,11.87,0,0,0-5.53,9.66,11,11,0,0,1,17.6-10.47A11.64,11.64,0,0,0,81,54.64Z" transform="translate(-2.27 -1.06)"/><path class="az" d="M56.23,69.75a9.44,9.44,0,0,0-4.38,7.66,8.72,8.72,0,0,1,14-8.3A9.28,9.28,0,0,0,56.23,69.75Z" transform="translate(-2.27 -1.06)"/></svg>