<svg xmlns="http://www.w3.org/2000/svg" xmlns:xlink="http://www.w3.org/1999/xlink" viewBox="0 0 257.85 235.41"><defs><style>.a{fill:url(#a);}.b{fill:url(#b);}.c{fill:url(#c);}.d{fill:url(#d);}.e{fill:url(#e);}.f{fill:url(#g);}.g{fill:url(#h);}.h{fill:url(#i);}.i{fill:url(#j);}.j{fill:url(#k);}.k{fill:url(#l);}.l{fill:url(#m);}.m{fill:#ffc20e;}.n{fill:url(#n);}.o{fill:url(#o);}.p{fill:url(#p);}.q{fill:url(#q);}</style><radialGradient id="a" cx="125.81" cy="117.7" r="117.7" gradientUnits="userSpaceOnUse"><stop offset="0" stop-color="#00c1f3"/><stop offset="0.1" stop-color="#26caf5"/><stop offset="0.29" stop-color="#67daf8"/><stop offset="0.47" stop-color="#9de7fa"/><stop offset="0.63" stop-color="#c7f1fc"/><stop offset="0.78" stop-color="#e6f9fe"/><stop offset="0.91" stop-color="#f8fdff"/><stop offset="1" stop-color="#fff"/></radialGradient><radialGradient id="b" cx="125.81" cy="117.7" r="117.71" gradientUnits="userSpaceOnUse"><stop offset="0" stop-color="#00c1f3"/><stop offset="0.37" stop-color="#69dbf8"/><stop offset="0.68" stop-color="#baeefc"/><stop offset="0.89" stop-color="#ecfafe"/><stop offset="1" stop-color="#fff"/></radialGradient><radialGradient id="c" cx="125.81" cy="117.7" r="117.7" gradientUnits="userSpaceOnUse"><stop offset="0" stop-color="#00c1f3"/><stop offset="0.1" stop-color="#11c5f4"/><stop offset="0.3" stop-color="#3ed0f6"/><stop offset="0.58" stop-color="#87e2f9"/><stop offset="0.93" stop-color="#e9fafe"/><stop offset="1" stop-color="#fff"/></radialGradient><radialGradient id="d" cx="19.53" cy="119.1" r="211.33" gradientUnits="userSpaceOnUse"><stop offset="0" stop-color="#fff200"/><stop offset="1" stop-color="#ffc20e"/></radialGradient><radialGradient id="e" cx="139.67" cy="76.31" r="199.3" gradientTransform="matrix(0.96, -0.27, 0.27, 0.96, -81.55, 14.28)" xlink:href="#d"/><radialGradient id="g" cx="115.58" cy="407.71" r="146.41" gradientTransform="matrix(-0.24, -0.97, 0.97, -0.24, -280.17, 383.9)" xlink:href="#d"/><radialGradient id="h" cx="110.76" cy="101.4" r="141.44" gradientTransform="matrix(0.96, -0.27, 0.27, 0.96, -81.55, 14.28)" xlink:href="#d"/><radialGradient id="i" cx="135.33" cy="54.4" r="144.39" gradientTransform="matrix(0.96, -0.27, 0.22, 0.76, -67.39, 65.56)" gradientUnits="userSpaceOnUse"><stop offset="0.01" stop-color="#fff9b0"/><stop offset="0.04" stop-color="#fff9ab"/><stop offset="0.09" stop-color="#fff89c"/><stop offset="0.14" stop-color="#fff783"/><stop offset="0.2" stop-color="#fff661"/><stop offset="0.25" stop-color="#fff435"/><stop offset="0.31" stop-color="#fff200"/><stop offset="0.71" stop-color="#ffc20e"/></radialGradient><radialGradient id="j" cx="144.33" cy="104.48" r="188.54" gradientTransform="matrix(0.96, -0.27, 0.27, 0.96, -81.55, 14.28)" gradientUnits="userSpaceOnUse"><stop offset="0.01" stop-color="#fffbca"/><stop offset="0.04" stop-color="#fffbc1"/><stop offset="0.11" stop-color="#fffaaa"/><stop offset="0.18" stop-color="#fff883"/><stop offset="0.27" stop-color="#fff54d"/><stop offset="0.37" stop-color="#fff20a"/><stop offset="0.39" stop-color="#fff200"/><stop offset="0.71" stop-color="#ffc20e"/></radialGradient><radialGradient id="k" cx="144.32" cy="104.48" r="188.6" xlink:href="#j"/><radialGradient id="l" cx="144.32" cy="104.48" r="188.55" xlink:href="#j"/><radialGradient id="m" cx="144.32" cy="104.48" r="188.56" xlink:href="#j"/><radialGradient id="n" cx="-291.71" cy="282.58" r="261.11" gradientTransform="matrix(-1, 0, 0, 1.12, -150.12, -59.04)" gradientUnits="userSpaceOnUse"><stop offset="0" stop-color="#fff"/><stop offset="1" stop-color="#85d5f6"/></radialGradient><radialGradient id="o" cx="5.46" cy="320.68" r="496.98" gradientTransform="translate(5.71 -59.04) scale(1.11 1.12)" xlink:href="#n"/><radialGradient id="p" cx="157.89" cy="170.45" r="153.56" gradientTransform="translate(-0.94 -59.04) scale(1 1.12)" xlink:href="#n"/><radialGradient id="q" cx="186.27" cy="195.59" r="138.78" gradientTransform="translate(-0.94 -59.04) scale(1 1.12)" xlink:href="#n"/></defs><title>Asset 1</title><path class="a" d="M243.51,117.71A117.71,117.71,0,1,1,125.81,0,117.7,117.7,0,0,1,243.51,117.71Z"/><path class="b" d="M46.71,204.87a211.86,211.86,0,0,1,195.59-70.3,118,118,0,0,0-10.52-68.15c-5.82-.48-11.71-.74-17.66-.74A211.67,211.67,0,0,0,26,180.16,117.92,117.92,0,0,0,46.71,204.87Z"/><path class="c" d="M46.71,204.87a117.7,117.7,0,0,0,195.59-70.3,211.86,211.86,0,0,0-195.59,70.3Z"/><path class="d" d="M196,95.66c-7.62.79-17.23,1.78-24.22-2.17-6.13-3.45,6.9-9.18,9.15-10.16,2.56-1.1.69-5.55-1.9-4.51s-15.27,6.17-14.13-.69c1.25-7.54,9.43-14.09,14.88-18.64,2.47-2.06-1-5.46-3.49-3.49-5.77,4.62-13.39,10.62-21.17,10.82-6.65.17.85-11.26,2.17-13.24,1.77-2.68-2.47-5.07-4.27-2.5-1.67,2.37-8.58,12.39-11.65,6.78-3.55-6.49.15-17.35,2.1-23.72.93-3.06-3.79-4.32-4.77-1.31-2.25,6.89-5.23,15.84-11.42,20.32-5.85,4.23-5.91-9.09-5.9-11.85,0-3.19-4.85-3.18-4.94,0-.08,2.7-.34,15-5.81,12.05-6.56-3.56-9.47-14.49-11.36-21a2.33,2.33,0,0,0-3-1.64,2.29,2.29,0,0,0-1.73,2.95C96.34,40.65,99,50.06,96,57.1c-2.71,6.41-10-4.51-11.45-6.72-1.74-2.65-6-.24-4.27,2.49,1.51,2.43,8.21,13,1.6,13.24-7.4.22-15.54-6.89-20.7-11.26-2.41-2-5.9,1.37-3.5,3.49,5.57,4.91,12,10.76,14.09,18.14,2.19,7.57-10.43,2.59-13.2,1.4s-5.41,2.92-2.49,4.27c2.69,1.24,14.52,6.58,8.63,10.33-6.46,4.11-17,2.56-24,1.67C37.91,93.8,37.27,98.6,40,99c7.41,1.07,16.66,2.47,22.32,7.88,5.39,5.15-8.74,7.74-11.43,8.19-3.16.54-1.77,5.22,1.32,4.77s15.67-2.19,12.35,4.25c-3.51,6.83-12.75,11.06-19.28,14.2-2.89,1.39-.37,5.58,2.49,4.27,6.66-3.05,15.77-7.16,23.3-5.19,6.36,1.68-4.16,11.4-5.86,12.95-2.38,2.16,1.1,5.56,3.49,3.5,2-1.75,12.26-10.59,13-3.55.79,7.75-4.8,16.38-8.67,22.6-1.69,2.72,2.54,5.15,4.27,2.49,4-6.16,9.26-14.26,16.5-17,6.9-2.64,3.18,11.29,2.46,13.88-.85,3.09,3.84,4.36,4.77,1.32.74-2.45,4.42-15.11,8.85-10.72,5.43,5.4,5.07,17.29,5.1,24.18,0,3.19,4.9,3.18,4.94,0,.1-7.7.38-16.82,4.84-23.45,4.2-6.25,8.72,8.1,9.39,10.36.9,3,5.59,1.77,4.76-1.32-.68-2.51-4.27-15.39,1.82-14,7.45,1.69,13.44,11.82,17.12,17.61,1.7,2.68,5.93.25,4.26-2.49-4-6.63-8.84-14.7-8.44-22.77.36-7.15,11.55,2.44,13.18,3.88,2.37,2.1,5.84-1.31,3.49-3.49-2-1.85-12-11-5.76-13C171.72,136,181.83,141,188,144c2.85,1.36,5.36-2.84,2.5-4.27-6.86-3.42-14.91-7.55-19.07-14.3s9.87-4.68,12.58-4.25c3.1.51,4.47-4.17,1.32-4.76-2.69-.51-15.23-2.62-12.18-7.6,3.8-6.2,16.56-7.4,22.81-8.17C199.06,100.22,199.14,95.32,196,95.66Z"/><path class="e" d="M96.83,33.06c7.56,26.67,21.63,31.94,22,8.24C118.46,65,132.65,60,141,33.49c-8.38,26.51.61,38.56,14.07,18.84-13.46,19.72,1.17,23.18,22.88,5.42-21.71,17.76-20.66,32.76,1.65,23.45-22.31,9.31-11.87,20.13,16.32,16.93-28.19,3.2-35.41,16.39-11.29,20.62-24.12-4.23-21.2,10.51,4.58,23.07-25.78-12.56-39-5.37-20.65,11.24-18.33-16.61-23.84-2.62-8.62,21.88-15.22-24.5-30.21-25.59-23.45-1.71-6.76-23.88-19-15.1-19.08,13.75.12-28.85-11.9-37.87-18.81-14.12,6.91-23.75-8.11-23-23.48,1.25,15.37-24.2,10.14-38.29-8.19-22,18.33-16.25,5.27-23.7-20.42-11.64,25.69-12.06,28.9-26.74,5-23,23.88-3.77,16.92-17.09-10.89-20.84C68.48,100.37,79.12,89.75,57.32,80c21.8,9.74,23.15-5.24,2.1-23.42,21,18.18,35.74,15,23-5C95.16,71.6,104.39,59.73,96.83,33.06Z"/><path class="e" d="M96.83,33.06c7.56,26.67,21.63,31.94,22,8.24C118.46,65,132.65,60,141,33.49c-8.38,26.51.61,38.56,14.07,18.84-13.46,19.72,1.17,23.18,22.88,5.42-21.71,17.76-20.66,32.76,1.65,23.45-22.31,9.31-11.87,20.13,16.32,16.93-28.19,3.2-35.41,16.39-11.29,20.62-24.12-4.23-21.2,10.51,4.58,23.07-25.78-12.56-39-5.37-20.65,11.24-18.33-16.61-23.84-2.62-8.62,21.88-15.22-24.5-30.21-25.59-23.45-1.71-6.76-23.88-19-15.1-19.08,13.75.12-28.85-11.9-37.87-18.81-14.12,6.91-23.75-8.11-23-23.48,1.25,15.37-24.2,10.14-38.29-8.19-22,18.33-16.25,5.27-23.7-20.42-11.64,25.69-12.06,28.9-26.74,5-23,23.88-3.77,16.92-17.09-10.89-20.84C68.48,100.37,79.12,89.75,57.32,80c21.8,9.74,23.15-5.24,2.1-23.42,21,18.18,35.74,15,23-5C95.16,71.6,104.39,59.73,96.83,33.06Z"/><path class="f" d="M105.2,56.82a52.7,52.7,0,1,1-38.61,63.74A52.69,52.69,0,0,1,105.2,56.82Z"/><path class="g" d="M166.76,94.13A50.91,50.91,0,1,1,103.9,59,50.9,50.9,0,0,1,166.76,94.13Z"/><path class="h" d="M157.34,84.52c5.32,18.78-20.37,1.15-44,7.84S75.93,129.6,70.61,110.81s10.4-42.52,34-49.21S152,65.73,157.34,84.52Z"/><path class="i" d="M106.82,69.43a44.9,44.9,0,0,1,11.47-1.6c3.42,0,3.37-5.32,0-5.29a50.9,50.9,0,0,0-12.87,1.79c-3.3.9-1.85,6,1.44,5.1Z"/><path class="j" d="M100,72c3.28-.93,1.84-6-1.45-5.09s-1.84,6,1.45,5.09Z"/><path class="k" d="M93.68,75.41c3.28-.92,1.84-6-1.44-5.09s-1.85,6,1.44,5.09Z"/><path class="l" d="M76.54,105.33A43.76,43.76,0,0,1,89.6,79.14c2.44-2.38-1.37-6-3.82-3.67A48.27,48.27,0,0,0,71.42,104c-.44,3.34,4.68,4.7,5.12,1.32Z"/><path class="m" d="M150,143.53c-16.93,16.85-37.91,14.05-37.08,12.9-.37-1.55,18.6-1.21,33.61-16.37s14.83-34,16.38-33.62C164.07,105.62,166.87,126.6,150,143.53Z"/><path class="n" d="M28.72,196.21a7.66,7.66,0,0,1-.58-7,5.87,5.87,0,0,1,1.29-3.57,6,6,0,0,1-.33-7.81,4.58,4.58,0,0,1,5.49-1.42,1.14,1.14,0,0,1,.51-.91,1.21,1.21,0,0,1,.39-1.52,1,1,0,0,1,1.36.44,1.18,1.18,0,0,1,.38-1.51.9.9,0,0,1,1,0,5.22,5.22,0,0,1,.84-4.37,4.07,4.07,0,0,1,3.5-1.71,5,5,0,0,1,1.87-1c-.78-3.24.94-6.57,3.83-7.44a5.25,5.25,0,0,1,6.28,3.21,4.86,4.86,0,0,1,2.11-5.18,3.86,3.86,0,0,1,5.2,1.28,1.42,1.42,0,0,1,1.38-1.18,1.44,1.44,0,0,1,1.42-1.5,1.07,1.07,0,0,1,.41.08,8.33,8.33,0,0,1,1.51-9.27,6.31,6.31,0,0,1,9.61.66,6.42,6.42,0,0,1,1.48-1.12,5.83,5.83,0,0,1,4.23-.81c.61-3.95,4-6.6,7.47-5.92a7,7,0,0,1,5.33,6.25L95,145a7.25,7.25,0,0,1,7.52-5.32c4,.44,6.9,4.41,6.51,8.88,4,.43,6.9,4.41,6.51,8.87a2.73,2.73,0,0,1-.05.4,5.87,5.87,0,0,1,2.45,1.46,6.27,6.27,0,0,1,.9,1.1.77.77,0,0,1,.62-.26.86.86,0,0,1,.75,1,.8.8,0,1,1,1.59-.06,2.1,2.1,0,0,1,1-1,1.92,1.92,0,0,1,2.61,1.18,1.93,1.93,0,0,1,2.62,1.19,2.34,2.34,0,0,1-1.06,2.92,1.87,1.87,0,0,1,1.13-.14,5.2,5.2,0,0,1,2.21-.6,5.66,5.66,0,0,1,5.41,3.79,4.55,4.55,0,0,1,3.24,3,6.06,6.06,0,0,1,2.27,2.33,2,2,0,0,1,1.36.72h.21a1.66,1.66,0,0,1,1.86-1.51A1.79,1.79,0,0,1,146,175a1.65,1.65,0,0,1,1.85-1.52,1.79,1.79,0,0,1,1.35,2.07,1.81,1.81,0,0,1,1.36,2.08,2.61,2.61,0,0,1-.06.27l.14.09a1.12,1.12,0,0,1,.36.52,5.08,5.08,0,0,1,2.42.52,3.57,3.57,0,0,1,1.8-2,3.22,3.22,0,0,1,4.36,2,1.68,1.68,0,0,1,1.7-1.7,1.63,1.63,0,0,1,1.21.73l.15,0a3,3,0,0,1,.71.3,4.26,4.26,0,0,1,.4-1.22,3.21,3.21,0,0,1,4.64-1.38,3.2,3.2,0,0,1,4.64-1.38,4.07,4.07,0,0,1,1.23,5.2,3.2,3.2,0,0,1,4.64-1.38,4.07,4.07,0,0,1,1.23,5.2,4.05,4.05,0,0,1,1.23,5.19,3.41,3.41,0,0,1-2.36,1.85,3.39,3.39,0,0,1,1.38,2.21,3.47,3.47,0,0,1-2.37,4.09,3.49,3.49,0,0,1-2.38,4.1,3.1,3.1,0,0,1-3.65-2.67,3.49,3.49,0,0,1-2.38,4.1,2.78,2.78,0,0,1-1.62-.1,3.58,3.58,0,0,1-3.59,1.74,3.82,3.82,0,0,1-4.22,3.52,3.56,3.56,0,0,1-1.54-.67,3.45,3.45,0,0,1-4.41,2.55,3.77,3.77,0,0,1-2.35-2.81,2.4,2.4,0,0,1-1.13-.06,6.16,6.16,0,0,1,3,4.93c.26,3.35-1.95,6.3-4.94,6.6.26,3.34-1.95,6.31-4.94,6.6a5.53,5.53,0,0,1-5.74-4.6,5.25,5.25,0,0,1-3.48,5.48c-2.5.74-5.06-.94-5.72-3.75a4.67,4.67,0,0,1-5.73-3.73,6.65,6.65,0,0,1-.15-1.58,2.92,2.92,0,0,1-2.7-3,3.07,3.07,0,0,1,1.88-3,3.39,3.39,0,0,1-.4-.45,2.93,2.93,0,0,1-1.31-1.48,3.52,3.52,0,0,1-1.71,0,4.09,4.09,0,0,1-3.51,3.52,3.5,3.5,0,0,1-2.87,0,3.81,3.81,0,0,1-5.08,2.51,4,4,0,0,1-1.39-1,4.3,4.3,0,0,1-4.27,3.48,4.45,4.45,0,0,1-4.42,4.52,2,2,0,0,1-.35,0c.18,4-2.25,7.57-5.82,8.36a7,7,0,0,1-7.91-4.46l-.21,0a3.81,3.81,0,0,1-1.81,3.09A3.19,3.19,0,0,1,76.6,227a3.19,3.19,0,0,1-4.51-1.62,4.26,4.26,0,0,1-.32-2.27,3.06,3.06,0,0,1-1.75.13,3.39,3.39,0,0,1-4,2.92,3.57,3.57,0,0,1-2.57-2.8.61.61,0,0,1-.4,0,.76.76,0,0,1-.93.62.85.85,0,0,1-.55-1,.78.78,0,0,1-.93.62.82.82,0,0,1-.53-.53A6.57,6.57,0,0,1,53.85,228,6.23,6.23,0,0,1,49,225.35a2.37,2.37,0,0,1-1.33-.54,3,3,0,0,1-1-2.4,2.27,2.27,0,0,1-2,1,2.54,2.54,0,0,1-2.25-2.76,2.54,2.54,0,0,1-2.25-2.75,2.92,2.92,0,0,1,.4-1.36,4.38,4.38,0,0,1-5.88-1.7,5.79,5.79,0,0,1-.11-5.83,5.22,5.22,0,0,1-1-.35,5.9,5.9,0,0,1-6.42-2.78A7.51,7.51,0,0,1,28.72,196.21Z"/><path class="o" d="M101.27,162.49a5.84,5.84,0,0,0-5.52-2,6.73,6.73,0,0,0-.76-3.69,4.63,4.63,0,0,0-.07-.52,4,4,0,0,0,2.87-1.62A4.13,4.13,0,0,0,97,149a4.13,4.13,0,0,0-.8-5.72,4,4,0,0,0-5.64.81.53.53,0,0,0-.76.07.87.87,0,0,1,0,1,1.11,1.11,0,0,0-1,.94,1.14,1.14,0,0,0,.65,1.23l-.16.09a1.13,1.13,0,0,0-.86.93,1.09,1.09,0,0,0,0,.36,2.11,2.11,0,0,0,.91,2.23,2.07,2.07,0,0,0-2.87.64,2,2,0,0,0-.23.5,2.62,2.62,0,0,0-2-.17,6,6,0,0,0-1.12-.6A4.86,4.86,0,0,0,82,149a1.53,1.53,0,0,0,1.05-.65,1.58,1.58,0,0,0,0-1.73,1.42,1.42,0,0,0,1.36-.52A1.49,1.49,0,0,0,84.2,144a1.43,1.43,0,0,0,2-.2,1.48,1.48,0,0,0-.2-2.07,1.49,1.49,0,0,0-.19-2.08,1.46,1.46,0,0,0-2,.2,2.24,2.24,0,1,0-4.37-1,2.23,2.23,0,0,0-2.67,1.72,2.36,2.36,0,0,0,0,1,4.56,4.56,0,0,0-.52-.18,6.28,6.28,0,0,0-.7-.15l-.07,0a1.45,1.45,0,0,0-.54-2,1.41,1.41,0,0,0-1.2-.08,3,3,0,0,0-3.65-1.11A4.94,4.94,0,0,0,65.79,134,4.92,4.92,0,1,0,56,132.9a4.76,4.76,0,1,0-9.51.25,4.73,4.73,0,0,0-2.83,1l-.22-.05a1.59,1.59,0,0,0-1.8,1.34,6.71,6.71,0,0,0-13.22-.63l-.38.07a5,5,0,0,0-2,1,4.82,4.82,0,0,0-1.06.19,4.75,4.75,0,0,0-2.78,2.16,4.79,4.79,0,0,0-4-.24,5,5,0,0,0-3,5.92l-.1.1a4.61,4.61,0,0,0-6.58-.22,4.76,4.76,0,0,0-1.26,4.85A2.3,2.3,0,0,0,8,150.18l-.13.15a1.75,1.75,0,0,0-1.89.81,1.79,1.79,0,0,0,.59,2.43A1.79,1.79,0,0,0,7.13,156a1.73,1.73,0,0,0,1.81,0,3.72,3.72,0,0,0,.61,2.06,4,4,0,0,0,.71.81,2.56,2.56,0,0,0-1.56,1.21s0,.1-.08.16a3.48,3.48,0,0,0-.48.38,4.38,4.38,0,0,0-.34,6.12,4.24,4.24,0,0,0-6-.34,4.38,4.38,0,0,0-.33,6.13,4.38,4.38,0,0,0-.35,6.12,4.37,4.37,0,0,0,1.46,1.07,3.27,3.27,0,0,0,.74,3.63,3.14,3.14,0,0,0,4.5-.13,3.15,3.15,0,0,0,4.49-.14,3.26,3.26,0,0,0-.14-4.56,3.14,3.14,0,0,0,4.06.25,4.75,4.75,0,0,0,2.89,4.29c.16.06.32.12.47.16a2.88,2.88,0,0,0,1.53,1.56,2.94,2.94,0,0,0,1.52,3.83,2.87,2.87,0,0,0,1.89.13,1.9,1.9,0,0,0,.83.78,1.91,1.91,0,0,0,.89,2.54,1.85,1.85,0,0,0,1.17.15A6.18,6.18,0,0,0,29.47,194a3.65,3.65,0,0,0,5.89-.13,6,6,0,0,0,1.58-1.34,5.88,5.88,0,0,0,4,1.75,6,6,0,0,0,5.71,6.25,5.88,5.88,0,0,0,4.6-1.94,5.8,5.8,0,0,0,6.35.63l.42,0a4.84,4.84,0,0,0,4.34-4,2.16,2.16,0,0,0,1.1,0,2.2,2.2,0,0,0,1.6-2.37,5.41,5.41,0,0,0,.54-.53,6.43,6.43,0,0,0,6,.76A6.5,6.5,0,0,0,80,197a6.66,6.66,0,0,0,3.83-8.53,2.5,2.5,0,0,0,3.46.87,2.57,2.57,0,0,0,1-3.27c0-.13.06-.26.08-.39a2.79,2.79,0,0,0,.51-.52,6.53,6.53,0,0,0,8.33,1.27,6.74,6.74,0,0,0,3-7.24,6,6,0,0,0,1.88-5.06,6.85,6.85,0,0,0,0-5.15A6,6,0,0,0,101.27,162.49Z"/><path class="p" d="M236.07,82.4a5.48,5.48,0,0,0-7.47-2.16,8.43,8.43,0,0,0-.17-.9,7.21,7.21,0,0,0-3-7.93,5.47,5.47,0,0,0-4.5-.58h0a5.87,5.87,0,0,0-5.69,1.32,7.32,7.32,0,0,0-1.71-.89l-.24-.44a8.93,8.93,0,0,0-.9-2.35,8,8,0,0,0-6.25-7.12,6.81,6.81,0,0,0-5.2,1.23,6.67,6.67,0,0,0-7.59,3.6,6.13,6.13,0,0,0-3.85-3.93c-3.1-1-6.32,1-7.19,4.52a5.49,5.49,0,0,0-6.18,2.29,5.65,5.65,0,0,0-5.25-.65c-1.11-3.71-4.68-5.71-8-4.47a7.14,7.14,0,0,0-4.29,7.3.87.87,0,0,0-1.09.25.92.92,0,0,0-.52-.26,3.22,3.22,0,0,0-2-.36,3.63,3.63,0,0,0-2.76,2.32,5.34,5.34,0,0,0-.52-.18,5.12,5.12,0,0,0-4.25-3.72c-2.74-.28-5.15,2-5.4,5-2.73-.29-5.15,2-5.4,5a6,6,0,0,0,.07,1.54,3.25,3.25,0,0,0-.48.5,3.55,3.55,0,0,0-.72,1.11.72.72,0,0,0-.66-.33.83.83,0,0,0-.67.92.8.8,0,0,0-.66.91v.07a3.18,3.18,0,0,0-4.09.66,4.22,4.22,0,0,0,0,5.49,4.23,4.23,0,0,0,0,5.5,3.19,3.19,0,0,0,3.58.93,3.36,3.36,0,0,0,.54.39,4.26,4.26,0,0,0,.76,4.18,3.42,3.42,0,0,0,1.49,1,4.78,4.78,0,0,0,1,1,7,7,0,0,0,.65,1.74,5.56,5.56,0,0,0-2,4.78,4.91,4.91,0,0,0,5.07,4.84,5.28,5.28,0,0,0,2.79,4.41,7.77,7.77,0,0,0,2.43,1.89A7.13,7.13,0,0,0,154,119.4a4.4,4.4,0,0,0,1.36-.1,7.72,7.72,0,0,0,4.1,7.17,6.28,6.28,0,0,0,7.37-1.41H167a5.9,5.9,0,0,0,3.88-1.91,6.23,6.23,0,0,0,3-.62,4.55,4.55,0,0,0,2.23,1.57,4.36,4.36,0,0,0,4.55-1.28,6.05,6.05,0,0,0,3.68,2.57c3.32.74,6.55-1.68,7.2-5.4a5.74,5.74,0,0,0,5.48-1.82,1,1,0,0,0,1.43-.12,1.15,1.15,0,0,0,.26-.53,2.73,2.73,0,0,0,2.74,1.65,3,3,0,0,0,2.51-3.23,1.84,1.84,0,0,0,1.74.29,5.57,5.57,0,0,0,2.68.59,6.11,6.11,0,0,0,5.3-3.71,4.94,4.94,0,0,0,3.57-.84,5.67,5.67,0,0,0,3.91,2c3.25.2,6-2.6,6.21-6.25,3.26.21,6-2.59,6.23-6.24a7.87,7.87,0,0,0-.09-1.54,7.12,7.12,0,0,0,1.05-8.7A7.09,7.09,0,0,0,236.07,82.4Z"/><path class="q" d="M256.93,115.49a5,5,0,0,0-6.75-1.95,6.83,6.83,0,0,0-.16-.81,6.5,6.5,0,0,0-2.66-7.17,5,5,0,0,0-4.07-.53h0a5.3,5.3,0,0,0-5.14,1.19,6.86,6.86,0,0,0-1.54-.81l-.22-.39a8.68,8.68,0,0,0-.81-2.13,7.24,7.24,0,0,0-5.66-6.43,6.12,6.12,0,0,0-4.69,1.11,6,6,0,0,0-6.86,3.26,5.53,5.53,0,0,0-3.49-3.56c-2.79-.88-5.7,1-6.49,4.09a5,5,0,0,0-5.58,2.06,5.15,5.15,0,0,0-4.75-.58c-1-3.36-4.23-5.16-7.22-4a6.45,6.45,0,0,0-3.87,6.6,1.13,1.13,0,0,1-1.46,0,2.91,2.91,0,0,0-1.84-.33,3.25,3.25,0,0,0-2.48,2.1,4,4,0,0,0-.49-.16,4.6,4.6,0,0,0-3.83-3.36,4.65,4.65,0,0,0-4.88,4.55,4.68,4.68,0,0,0-4.88,4.57,5.37,5.37,0,0,0,.06,1.39,2.24,2.24,0,0,0-.42.45,3,3,0,0,0-.66,1,.64.64,0,0,0-.6-.29,125463106494059.05,125463106494059.05,0,0,0-1.2,1.64V117a2.87,2.87,0,0,0-3.7.6,3.82,3.82,0,0,0,0,5,3.82,3.82,0,0,0,0,5,2.9,2.9,0,0,0,3.24.85,2.43,2.43,0,0,0,.49.35,3.82,3.82,0,0,0,.69,3.78,3,3,0,0,0,1.34.9,4.89,4.89,0,0,0,.92.9,6.14,6.14,0,0,0,.59,1.57,5,5,0,0,0-1.84,4.32,4.43,4.43,0,0,0,4.58,4.38,4.76,4.76,0,0,0,2.52,4,7.25,7.25,0,0,0,2.2,1.71,6.44,6.44,0,0,0,7.48-1.35,3.62,3.62,0,0,0,1.23-.09,7,7,0,0,0,3.7,6.48,5.65,5.65,0,0,0,6.66-1.28h.16a5.42,5.42,0,0,0,3.51-1.73,5.55,5.55,0,0,0,2.68-.56,4.18,4.18,0,0,0,2,1.42,4,4,0,0,0,4.12-1.15,5.52,5.52,0,0,0,3.32,2.32c3,.67,5.92-1.52,6.52-4.89a5.12,5.12,0,0,0,4.94-1.64.88.88,0,0,0,1.3-.11,1.07,1.07,0,0,0,.22-.47,2.48,2.48,0,0,0,2.49,1.48,2.73,2.73,0,0,0,2.26-2.91,1.65,1.65,0,0,0,1.58.25,4.84,4.84,0,0,0,2.42.54,5.55,5.55,0,0,0,4.79-3.35,4.41,4.41,0,0,0,3.22-.77,5.05,5.05,0,0,0,3.53,1.81c3,.19,5.46-2.34,5.63-5.64,2.94.18,5.45-2.34,5.62-5.64a7.07,7.07,0,0,0-.08-1.39,6.46,6.46,0,0,0,.95-7.87A6.4,6.4,0,0,0,256.93,115.49Z"/></svg>