<svg xmlns="http://www.w3.org/2000/svg" xmlns:xlink="http://www.w3.org/1999/xlink" viewBox="0 0 119.57 76.7"><defs><style>.a{fill:#fff;}.b{fill:url(#a);}.c{fill:url(#b);}.d{fill:url(#c);}.e{fill:url(#d);}.f{fill:url(#e);}.g{fill:url(#f);}.h{fill:url(#g);}.i{fill:url(#h);}.j{fill:url(#i);}.k{fill:url(#j);}.l{fill:url(#k);}.m{fill:url(#l);}.n{fill:url(#m);}.o{fill:url(#n);}.p{fill:url(#o);}.q{fill:url(#p);}.r{fill:url(#q);}.s{fill:url(#r);}.t{fill:url(#s);}.u{fill:url(#t);}.v{fill:url(#u);}.w{fill:url(#v);}.x{fill:url(#w);}.y{fill:url(#x);}.z{fill:url(#y);}.aa{fill:url(#z);}.ab{fill:url(#aa);}.ac{fill:url(#ab);}.ad{fill:url(#ac);}.ae{fill:url(#ad);}.af{fill:url(#ae);}.ag{fill:url(#af);}.ah{fill:url(#ag);}.ai{fill:url(#ah);}.aj{fill:url(#ai);}.ak{fill:url(#aj);}.al{fill:url(#ak);}.am{fill:url(#al);}</style><radialGradient id="a" cx="209.02" cy="182.73" r="9.19" gradientTransform="matrix(0.02, 1, 1, -0.02, -99.42, -139.34)" gradientUnits="userSpaceOnUse"><stop offset="0" stop-color="#fff"/><stop offset="0.24" stop-color="#fcfdfe"/><stop offset="0.42" stop-color="#f2f7fa"/><stop offset="0.59" stop-color="#e1edf2"/><stop offset="0.75" stop-color="#cadfe9"/><stop offset="0.9" stop-color="#acccdc"/><stop offset="1" stop-color="#94bed2"/></radialGradient><radialGradient id="b" cx="182.11" cy="49.42" r="21.5" gradientTransform="matrix(-1, 0, 0, 1, 239.83, 0)" xlink:href="#a"/><radialGradient id="c" cx="180.1" cy="174.1" r="18.42" xlink:href="#a"/><radialGradient id="d" cx="180.75" cy="52.75" r="17.74" gradientTransform="matrix(-1, 0, 0, 1, 239.83, 0)" xlink:href="#a"/><radialGradient id="e" cx="194.43" cy="168.26" r="13.25" xlink:href="#a"/><radialGradient id="f" cx="331.53" cy="-20.58" r="18.19" gradientTransform="matrix(0.37, -0.93, -0.93, -0.37, -103.39, 354.76)" xlink:href="#a"/><radialGradient id="g" cx="194.02" cy="134.31" r="15.87" xlink:href="#a"/><radialGradient id="h" cx="200.82" cy="153.23" r="13.64" xlink:href="#a"/><radialGradient id="i" cx="184.33" cy="55.71" r="10.7" gradientTransform="matrix(-1, 0, 0, 1, 239.83, 0)" xlink:href="#a"/><radialGradient id="j" cx="191.67" cy="145.18" r="17.52" xlink:href="#a"/><radialGradient id="k" cx="232.05" cy="29.15" r="14.87" gradientTransform="matrix(-0.89, -0.45, -0.45, 0.89, 270.07, 137)" xlink:href="#a"/><radialGradient id="l" cx="202.42" cy="56.49" r="10.34" gradientTransform="matrix(-1, 0, 0, 1, 239.83, 0)" xlink:href="#a"/><radialGradient id="m" cx="177.67" cy="48.55" r="13.63" gradientTransform="matrix(-1, 0, 0, 1, 239.83, 0)" xlink:href="#a"/><radialGradient id="n" cx="83.73" cy="55.12" r="27.85" gradientTransform="matrix(1, 0, 0, 1, 0, 0)" xlink:href="#a"/><radialGradient id="o" cx="248.42" cy="341.98" r="12.65" gradientTransform="matrix(-0.01, 0.6, -0.87, -0.02, 332.87, -63.55)" xlink:href="#a"/><radialGradient id="p" cx="244.91" cy="209.38" r="9.49" gradientTransform="matrix(-0.02, 0.89, -0.9, -0.02, 324.97, -128.64)" xlink:href="#a"/><radialGradient id="q" cx="249.49" cy="209.34" r="7.22" gradientTransform="matrix(-0.02, 0.89, -0.9, -0.02, 324.81, -128.64)" xlink:href="#a"/><radialGradient id="r" cx="250.56" cy="293.79" r="23.02" gradientTransform="matrix(-0.02, 0.89, -0.87, -0.02, 334.25, -128.74)" xlink:href="#a"/><radialGradient id="s" cx="98.47" cy="82.96" r="23.35" gradientUnits="userSpaceOnUse"><stop offset="0" stop-color="#fff"/><stop offset="0.34" stop-color="#fdfefe"/><stop offset="0.5" stop-color="#f5f9fb"/><stop offset="0.62" stop-color="#e8f1f5"/><stop offset="0.72" stop-color="#d6e6ed"/><stop offset="0.82" stop-color="#bed7e3"/><stop offset="0.9" stop-color="#a1c5d6"/><stop offset="0.97" stop-color="#7eb0c7"/><stop offset="1" stop-color="#71a8c1"/></radialGradient><radialGradient id="t" cx="116.67" cy="69.51" r="15.72" gradientTransform="matrix(1, 0, 0, 1, 0, 0)" xlink:href="#a"/><radialGradient id="u" cx="118.95" cy="80.9" r="21.36" gradientTransform="matrix(1, 0, 0, 1, 0, 0)" xlink:href="#a"/><radialGradient id="v" cx="248.97" cy="281.36" r="8.94" gradientTransform="matrix(-0.02, 0.89, -1, -0.02, 339.02, -128.64)" xlink:href="#a"/><radialGradient id="w" cx="80.41" cy="77.63" r="19.43" gradientTransform="matrix(1, 0, 0, 1, 0, 0)" xlink:href="#a"/><radialGradient id="x" cx="257.67" cy="288.89" r="8.68" gradientTransform="matrix(-0.02, 0.82, -1, -0.02, 338.89, -122.86)" xlink:href="#a"/><radialGradient id="y" cx="66.97" cy="84.27" r="13.97" gradientUnits="userSpaceOnUse"><stop offset="0" stop-color="#fff"/><stop offset="0.21" stop-color="#fcfdfe"/><stop offset="0.38" stop-color="#f2f7f9"/><stop offset="0.53" stop-color="#e1edf2"/><stop offset="0.67" stop-color="#cadee8"/><stop offset="0.81" stop-color="#abccda"/><stop offset="0.94" stop-color="#86b5ca"/><stop offset="1" stop-color="#71a8c1"/></radialGradient><radialGradient id="z" cx="241.55" cy="276.31" r="13.86" gradientTransform="matrix(-0.02, 0.91, -1, -0.02, 339.06, -130.27)" xlink:href="#a"/><radialGradient id="aa" cx="332.64" cy="-108.52" r="16.4" gradientTransform="translate(343.22 354.76) rotate(-111.89)" xlink:href="#y"/><radialGradient id="ab" cx="210.43" cy="229.42" r="22.96" gradientTransform="matrix(-0.02, 1, -1, -0.02, 339.25, -139.34)" xlink:href="#y"/><radialGradient id="ac" cx="228.83" cy="253.46" r="19.16" gradientTransform="matrix(-0.02, 1, -1, -0.02, 339.25, -139.34)" xlink:href="#y"/><radialGradient id="ad" cx="135.48" cy="6.72" r="22.42" gradientTransform="matrix(0.89, -0.45, 0.45, 0.89, -30.24, 137)" xlink:href="#s"/><radialGradient id="ae" cx="72.09" cy="78.78" r="19.4" gradientTransform="matrix(1, 0, 0, 1, 0, 0)" xlink:href="#a"/><radialGradient id="af" cx="214" cy="240.61" r="23.89" gradientTransform="matrix(-0.02, 1, -1, -0.02, 339.25, -139.34)" xlink:href="#a"/><radialGradient id="ag" cx="90.08" cy="54.41" r="17.49" gradientUnits="userSpaceOnUse"><stop offset="0" stop-color="#fff"/><stop offset="0.28" stop-color="#fcfdfe"/><stop offset="0.51" stop-color="#f2f7fa"/><stop offset="0.71" stop-color="#e1edf3"/><stop offset="0.9" stop-color="#cadfe9"/><stop offset="1" stop-color="#bad5e3"/></radialGradient><radialGradient id="ah" cx="108.96" cy="82.46" r="11.97" gradientTransform="matrix(0.87, 0.49, -0.49, 0.87, 58.26, -74.98)" gradientUnits="userSpaceOnUse"><stop offset="0" stop-color="#fff"/><stop offset="0.44" stop-color="#f0f6f8"/><stop offset="1" stop-color="#d7e7ed"/></radialGradient><radialGradient id="ai" cx="88.77" cy="68.19" r="9.68" gradientTransform="translate(-43.67 33.71) rotate(-19.37)" xlink:href="#ah"/><radialGradient id="aj" cx="77.64" cy="25.2" r="4.92" gradientTransform="translate(-43.67 33.71) rotate(-19.37)" gradientUnits="userSpaceOnUse"><stop offset="0" stop-color="#fff"/><stop offset="0.35" stop-color="#f0f6f9"/><stop offset="1" stop-color="#c9dee9"/></radialGradient><radialGradient id="ak" cx="91.82" cy="90.1" r="9.52" gradientTransform="translate(55.39 -99.75) rotate(39.57)" xlink:href="#aj"/><radialGradient id="al" cx="140.49" cy="104.84" r="5.66" gradientTransform="matrix(0.71, 0.71, -0.71, 0.71, 109.1, -104.34)" xlink:href="#ah"/></defs><title>forecast-cloudy</title><polygon class="a" points="62.71 25.33 40.11 6.39 23.89 16.75 10.28 18.63 5.26 27.42 13.35 34.97 24.3 38.73 37.7 39.67 49.21 38.1 59.78 32.55 62.71 25.33"/><path class="b" d="M78.18,66.51a4.48,4.48,0,1,1,4.39-4.58A4.48,4.48,0,0,1,78.18,66.51Z" transform="translate(-21.58 -28.43)"/><path class="c" d="M50.12,39.75A11.33,11.33,0,1,1,61.44,51.08,11.32,11.32,0,0,1,50.12,39.75Z" transform="translate(-21.58 -28.43)"/><path class="d" d="M84.29,62.44A7.68,7.68,0,1,1,91.8,54.6,7.68,7.68,0,0,1,84.29,62.44Z" transform="translate(-21.58 -28.43)"/><path class="e" d="M56.24,62A11.33,11.33,0,1,1,67.57,73.29,11.33,11.33,0,0,1,56.24,62Z" transform="translate(-21.58 -28.43)"/><path class="f" d="M76.71,55.17a7.67,7.67,0,1,1,7.51-7.83A7.67,7.67,0,0,1,76.71,55.17Z" transform="translate(-21.58 -28.43)"/><path class="g" d="M32.11,48a7.67,7.67,0,1,1-10,4.26A7.66,7.66,0,0,1,32.11,48Z" transform="translate(-21.58 -28.43)"/><path class="h" d="M34,54.76a6.21,6.21,0,1,1,6.07-6.34A6.21,6.21,0,0,1,34,54.76Z" transform="translate(-21.58 -28.43)"/><path class="i" d="M58.09,75.05a7.67,7.67,0,1,1,7.51-7.84A7.68,7.68,0,0,1,58.09,75.05Z" transform="translate(-21.58 -28.43)"/><path class="j" d="M54.08,58.14a4.67,4.67,0,1,0,4.67-4.67A4.67,4.67,0,0,0,54.08,58.14Z" transform="translate(-21.58 -28.43)"/><path class="k" d="M44.63,53a9.9,9.9,0,1,1,9.69-10.1A9.9,9.9,0,0,1,44.63,53Z" transform="translate(-21.58 -28.43)"/><path class="l" d="M38.53,61.28a8.61,8.61,0,1,1,3.76,11.59A8.62,8.62,0,0,1,38.53,61.28Z" transform="translate(-21.58 -28.43)"/><path class="m" d="M29.63,63.4a5.3,5.3,0,1,1,5.3,5.3A5.3,5.3,0,0,1,29.63,63.4Z" transform="translate(-21.58 -28.43)"/><path class="n" d="M59.87,52.25a6.58,6.58,0,1,1,6.58,6.58A6.59,6.59,0,0,1,59.87,52.25Z" transform="translate(-21.58 -28.43)"/><path class="o" d="M79.24,56.12a12.25,12.25,0,0,0-2.2-.2,13,13,0,0,0-12.14,8.4,11.4,11.4,0,0,0-7.39,5.24,11.34,11.34,0,0,0-2.93-.44h-.25a10.87,10.87,0,0,0-9,4.63c2.29.24,5.59-.09,7.37-1.56,1.42,2,2.78,2.93,5.41,2.87a7.68,7.68,0,0,0,5.49-2.5A11.28,11.28,0,0,0,78,66.49l.23,0a4.46,4.46,0,0,0,4.36-4.24,8.38,8.38,0,0,0,1.75.17,7.66,7.66,0,0,0,5.42-12.92A13.74,13.74,0,0,0,79.24,56.12Z" transform="translate(-21.58 -28.43)"/><polygon class="a" points="21.54 54.35 46.83 46.63 54.16 34.61 69.12 32.26 94.94 27.86 105.79 43.99 115.47 57.19 109.02 60.42 77.92 66.87 55.92 66.87 31.01 60.52 21.54 54.35"/><path class="p" d="M36.93,85.74c2,0,3.62-1,3.65-2.4S39,80.82,37,80.78s-3.62,1-3.65,2.4S35,85.7,36.93,85.74Z" transform="translate(-21.58 -28.43)"/><path class="q" d="M137.22,88.32a3.81,3.81,0,0,0,3.93-3.7,3.85,3.85,0,0,0-3.79-3.89,3.8,3.8,0,0,0-3.92,3.7A3.85,3.85,0,0,0,137.22,88.32Z" transform="translate(-21.58 -28.43)"/><path class="r" d="M131.9,95.39A5.23,5.23,0,1,0,126.68,90,5.26,5.26,0,0,0,131.9,95.39Z" transform="translate(-21.58 -28.43)"/><path class="s" d="M70.66,102.45a5.22,5.22,0,1,0-5-5.33A5.16,5.16,0,0,0,70.66,102.45Z" transform="translate(-21.58 -28.43)"/><path class="t" d="M115.9,95.08a7,7,0,1,0-7,7A7,7,0,0,0,115.9,95.08Z" transform="translate(-21.58 -28.43)"/><path class="u" d="M130.11,66.81a7,7,0,1,0-7,7A7,7,0,0,0,130.11,66.81Z" transform="translate(-21.58 -28.43)"/><path class="v" d="M137.2,77.24a9.48,9.48,0,1,0-9.48,9.48A9.47,9.47,0,0,0,137.2,77.24Z" transform="translate(-21.58 -28.43)"/><path class="w" d="M52.48,94.16c3.25.07,5.94-2.21,6-5.09S56,83.79,52.7,83.72s-6,2.21-6,5.1S49.22,94.1,52.48,94.16Z" transform="translate(-21.58 -28.43)"/><path class="x" d="M87.27,68.9A10.24,10.24,0,1,0,77,79.13,10.23,10.23,0,0,0,87.27,68.9Z" transform="translate(-21.58 -28.43)"/><path class="y" d="M43,88.29c3.71.07,6.77-2.33,6.83-5.38s-2.89-5.57-6.59-5.65-6.77,2.33-6.83,5.37S39.3,88.21,43,88.29Z" transform="translate(-21.58 -28.43)"/><path class="z" d="M75.13,89.87a9.33,9.33,0,1,0-9.33,9.32A9.32,9.32,0,0,0,75.13,89.87Z" transform="translate(-21.58 -28.43)"/><path class="aa" d="M54.21,86.41c4.44.09,8.1-3.09,8.18-7.11S59,72,54.52,71.85,46.43,74.94,46.35,79,49.78,86.31,54.21,86.41Z" transform="translate(-21.58 -28.43)"/><path class="ab" d="M117.34,84.57a10.1,10.1,0,1,0,13.13,5.61A10.1,10.1,0,0,0,117.34,84.57Z" transform="translate(-21.58 -28.43)"/><path class="ac" d="M109.72,74.74A13,13,0,1,0,97,61.45,13,13,0,0,0,109.72,74.74Z" transform="translate(-21.58 -28.43)"/><path class="ad" d="M80.56,104.25a10.1,10.1,0,1,0-9.88-10.31A10.11,10.11,0,0,0,80.56,104.25Z" transform="translate(-21.58 -28.43)"/><path class="ae" d="M104.64,88.63a11.34,11.34,0,1,0-5,15.26A11.34,11.34,0,0,0,104.64,88.63Z" transform="translate(-21.58 -28.43)"/><path class="af" d="M75.91,75.47a8.66,8.66,0,1,0-8.66,8.66A8.66,8.66,0,0,0,75.91,75.47Z" transform="translate(-21.58 -28.43)"/><path class="ag" d="M90.78,74.21A11,11,0,1,0,80,63,11,11,0,0,0,90.78,74.21Z" transform="translate(-21.58 -28.43)"/><path class="ah" d="M89.81,54.94A10.68,10.68,0,0,1,99.33,58a9.89,9.89,0,0,0-18.07,3.65A10.5,10.5,0,0,1,89.81,54.94Z" transform="translate(-21.58 -28.43)"/><path class="ai" d="M113.65,52.3a12.8,12.8,0,0,1,8.14,8.79,11.82,11.82,0,0,0-21-6.71A12.58,12.58,0,0,1,113.65,52.3Z" transform="translate(-21.58 -28.43)"/><path class="aj" d="M64.23,69.59a7.86,7.86,0,0,1,7.35-.17A7.25,7.25,0,0,0,60,76.35,7.69,7.69,0,0,1,64.23,69.59Z" transform="translate(-21.58 -28.43)"/><path class="ak" d="M40.8,36.1a9.47,9.47,0,0,1,8.86-.2,8.75,8.75,0,0,0-14,8.36A9.33,9.33,0,0,1,40.8,36.1Z" transform="translate(-21.58 -28.43)"/><path class="al" d="M66.09,32.31a10.77,10.77,0,0,1,5.41,8.53,10,10,0,0,0-16.39-8.77A10.59,10.59,0,0,1,66.09,32.31Z" transform="translate(-21.58 -28.43)"/><path class="am" d="M132.23,71.4a9.32,9.32,0,0,1,4,7.79,8.63,8.63,0,0,0-13.41-8.9A9.17,9.17,0,0,1,132.23,71.4Z" transform="translate(-21.58 -28.43)"/></svg>