<svg xmlns="http://www.w3.org/2000/svg" xmlns:xlink="http://www.w3.org/1999/xlink" viewBox="0 0 170.02 133.81"><defs><style>.a{fill:url(#a);}.b{fill:url(#b);}.c{fill:url(#c);}.d{fill:url(#d);}.e{fill:url(#e);}.f{fill:url(#f);}.g{fill:url(#g);}.h{fill:url(#h);}.i{fill:url(#i);}.j{fill:url(#j);}.k{fill:url(#k);}.l{fill:url(#l);}.m{fill:#fff;}.n{fill:url(#m);}.o{fill:url(#n);}.p{fill:url(#o);}.q{fill:url(#p);}.r{fill:url(#q);}.s{fill:url(#r);}.t{fill:url(#s);}.u{fill:url(#t);}.v{fill:url(#u);}.w{fill:url(#v);}.x{fill:url(#w);}.y{fill:url(#x);}.z{fill:url(#y);}.aa{fill:url(#z);}.ab{fill:url(#aa);}.ac{fill:url(#ab);}.ad{fill:url(#ac);}.ae{fill:url(#ad);}.af{fill:url(#ae);}.ag{fill:url(#af);}.ah{fill:url(#ag);}.ai{fill:url(#ah);}.aj{fill:url(#ai);}.ak{fill:url(#aj);}.al{fill:url(#ak);}.am{fill:url(#al);}.an{fill:url(#am);}.ao{fill:url(#an);}</style><radialGradient id="a" cx="238.33" cy="74.62" r="108.56" gradientTransform="matrix(-1, 0, 0, 1, 398.32, 0)" gradientUnits="userSpaceOnUse"><stop offset="0" stop-color="#f68c1e"/><stop offset="0.06" stop-color="#f8a517"/><stop offset="0.15" stop-color="#fbc60d"/><stop offset="0.24" stop-color="#fdde06"/><stop offset="0.32" stop-color="#ffec01"/><stop offset="0.38" stop-color="#fff100"/><stop offset="0.39" stop-color="#fff102"/><stop offset="0.47" stop-color="#fff335"/><stop offset="0.56" stop-color="#fff561"/><stop offset="0.65" stop-color="#fff685"/><stop offset="0.74" stop-color="#fff8a1"/><stop offset="0.82" stop-color="#fff8b5"/><stop offset="0.91" stop-color="#fff9c1"/><stop offset="1" stop-color="#fff9c5"/></radialGradient><radialGradient id="b" cx="332.51" cy="154.2" r="219.12" gradientTransform="matrix(-1.3, 1.3, 0.37, 0.37, 535.43, -405.55)" xlink:href="#a"/><radialGradient id="c" cx="251.76" cy="297.74" r="219.12" gradientTransform="matrix(-1.3, -1.3, -0.37, 0.37, 598.25, 301.49)" xlink:href="#a"/><radialGradient id="d" cx="210.78" cy="14.88" r="219.11" gradientTransform="matrix(1.3, -1.3, -0.37, -0.37, -108.79, 364.3)" xlink:href="#a"/><radialGradient id="e" cx="79.92" cy="22.86" r="108.56" gradientTransform="matrix(0, -1, -1, 0, 192.69, 164.37)" xlink:href="#a"/><radialGradient id="f" cx="238.33" cy="84.46" r="36.72" gradientTransform="matrix(-1, 0, 0, 1, 398.32, 0)" gradientUnits="userSpaceOnUse"><stop offset="0" stop-color="#fff100"/><stop offset="0.29" stop-color="#ffee01"/><stop offset="0.48" stop-color="#fee603"/><stop offset="0.63" stop-color="#fdd708"/><stop offset="0.77" stop-color="#fbc20e"/><stop offset="0.9" stop-color="#f8a816"/><stop offset="1" stop-color="#f68c1e"/></radialGradient><radialGradient id="g" cx="237.44" cy="85.13" r="40.81" gradientTransform="matrix(-1, 0, 0, 1, 398.32, 0)" gradientUnits="userSpaceOnUse"><stop offset="0" stop-color="#fff"/><stop offset="0.07" stop-color="#fffdd6"/><stop offset="0.28" stop-color="#fff664"/><stop offset="0.43" stop-color="#fff31c"/><stop offset="0.49" stop-color="#fff100"/><stop offset="0.58" stop-color="#ffec02"/><stop offset="0.69" stop-color="#fddd06"/><stop offset="0.81" stop-color="#fbc40d"/><stop offset="0.94" stop-color="#f8a118"/><stop offset="1" stop-color="#f68c1e"/></radialGradient><linearGradient id="h" x1="238.33" y1="77.72" x2="238.33" y2="55.37" gradientTransform="matrix(-1, 0, 0, 1, 398.32, 0)" gradientUnits="userSpaceOnUse"><stop offset="0" stop-color="#f6d029"/><stop offset="0.11" stop-color="#f6d32f"/><stop offset="0.25" stop-color="#f7dc3f"/><stop offset="0.41" stop-color="#f9ea5b"/><stop offset="0.46" stop-color="#f9ef64"/><stop offset="0.53" stop-color="#f9ef6a"/><stop offset="0.63" stop-color="#f8ef7a"/><stop offset="0.74" stop-color="#f8ef96"/><stop offset="0.85" stop-color="#f7efbc"/><stop offset="0.98" stop-color="#f5efec"/><stop offset="1" stop-color="#f5eff6"/></linearGradient><radialGradient id="i" cx="229.17" cy="67.93" r="38.22" xlink:href="#f"/><linearGradient id="j" x1="268.11" y1="71.05" x2="241.87" y2="79.79" xlink:href="#h"/><linearGradient id="k" x1="223.59" y1="109.01" x2="231.59" y2="104.51" xlink:href="#h"/><radialGradient id="l" cx="329.76" cy="205.68" r="11.98" gradientTransform="matrix(0.02, 0.89, 0.9, -0.02, -5.53, -174.93)" gradientUnits="userSpaceOnUse"><stop offset="0" stop-color="#fff"/><stop offset="0.21" stop-color="#fcfdfe"/><stop offset="0.38" stop-color="#f2f7f9"/><stop offset="0.53" stop-color="#e1edf2"/><stop offset="0.67" stop-color="#cadee8"/><stop offset="0.81" stop-color="#abccda"/><stop offset="0.94" stop-color="#86b5ca"/><stop offset="1" stop-color="#71a8c1"/></radialGradient><radialGradient id="m" cx="357.3" cy="216.09" r="11.42" gradientTransform="matrix(0.01, 0.6, 0.64, -0.02, 56.08, -91.41)" gradientUnits="userSpaceOnUse"><stop offset="0" stop-color="#fff"/><stop offset="0.15" stop-color="#fffefc"/><stop offset="0.27" stop-color="#fdfcf2"/><stop offset="0.38" stop-color="#faf8e1"/><stop offset="0.49" stop-color="#f7f3ca"/><stop offset="0.59" stop-color="#f2ecab"/><stop offset="0.68" stop-color="#ece386"/><stop offset="0.71" stop-color="#eae078"/><stop offset="1" stop-color="#f5b427"/></radialGradient><radialGradient id="n" cx="329.25" cy="75.48" r="10.12" gradientTransform="matrix(0.02, 0.89, 0.92, -0.02, -3.12, -174.93)" gradientUnits="userSpaceOnUse"><stop offset="0" stop-color="#fff"/><stop offset="0.42" stop-color="#fdfefe"/><stop offset="0.57" stop-color="#f6fafb"/><stop offset="0.68" stop-color="#ebf2f6"/><stop offset="0.76" stop-color="#dae8ef"/><stop offset="0.84" stop-color="#c4dbe5"/><stop offset="0.91" stop-color="#a8cad9"/><stop offset="0.96" stop-color="#89b7cb"/><stop offset="1" stop-color="#71a8c1"/></radialGradient><radialGradient id="o" cx="335.33" cy="79.34" r="10.54" gradientTransform="matrix(0.02, 0.89, 0.9, -0.02, 1.65, -174.93)" xlink:href="#n"/><radialGradient id="p" cx="337.73" cy="174.95" r="30.84" gradientTransform="matrix(0.02, 0.89, 0.87, -0.02, -10.19, -175.06)" gradientUnits="userSpaceOnUse"><stop offset="0" stop-color="#fff"/><stop offset="0.24" stop-color="#fcfdfe"/><stop offset="0.42" stop-color="#f2f7fa"/><stop offset="0.59" stop-color="#e1edf2"/><stop offset="0.75" stop-color="#cadfe9"/><stop offset="0.9" stop-color="#acccdc"/><stop offset="1" stop-color="#94bed2"/></radialGradient><radialGradient id="q" cx="293.11" cy="121.69" r="18.27" gradientTransform="matrix(-1, 0, 0, 1, 398.32, 0)" xlink:href="#l"/><radialGradient id="r" cx="306.42" cy="96.35" r="21.07" gradientTransform="matrix(-1, 0, 0, 1, 398.32, 0)" xlink:href="#p"/><radialGradient id="s" cx="0.58" cy="34.31" r="9.16" gradientTransform="translate(60 52.35) rotate(-25.4)" gradientUnits="userSpaceOnUse"><stop offset="0" stop-color="#fff"/><stop offset="0.28" stop-color="#fcfdfe"/><stop offset="0.51" stop-color="#f2f7fa"/><stop offset="0.71" stop-color="#e1edf3"/><stop offset="0.9" stop-color="#cadfe9"/><stop offset="1" stop-color="#bad5e3"/></radialGradient><radialGradient id="t" cx="309.47" cy="111.62" r="28.63" gradientTransform="matrix(-1, 0, 0, 1, 398.32, 0)" xlink:href="#p"/><radialGradient id="u" cx="335.6" cy="187.24" r="11.98" gradientTransform="matrix(0.02, 0.89, 1, -0.02, -16.33, -174.93)" xlink:href="#l"/><radialGradient id="v" cx="255.99" cy="100.76" r="21.74" gradientTransform="matrix(-1, 0, 0, 1, 398.32, 0)" gradientUnits="userSpaceOnUse"><stop offset="0" stop-color="#fff"/><stop offset="0.15" stop-color="#fffefc"/><stop offset="0.27" stop-color="#fdfcf2"/><stop offset="0.38" stop-color="#faf8e1"/><stop offset="0.49" stop-color="#f7f3ca"/><stop offset="0.59" stop-color="#f2ecab"/><stop offset="0.68" stop-color="#ece386"/><stop offset="0.71" stop-color="#eae078"/><stop offset="1" stop-color="#f37928"/></radialGradient><radialGradient id="w" cx="292.19" cy="80.8" r="11.41" gradientTransform="matrix(0.74, 0.67, -0.58, 0.64, -16.7, -168.37)" gradientUnits="userSpaceOnUse"><stop offset="0" stop-color="#fff"/><stop offset="0.1" stop-color="#fffff9"/><stop offset="0.22" stop-color="#fffee9"/><stop offset="0.36" stop-color="#fffccf"/><stop offset="0.51" stop-color="#fffaaa"/><stop offset="0.67" stop-color="#fff87a"/><stop offset="0.83" stop-color="#fff541"/><stop offset="1" stop-color="#fff100"/></radialGradient><radialGradient id="x" cx="349.82" cy="190.8" r="13.93" gradientTransform="matrix(0.01, 0.82, 0.84, -0.02, 22.65, -165.06)" xlink:href="#m"/><radialGradient id="y" cx="239.82" cy="116.14" r="18.73" gradientTransform="matrix(-1, 0, 0, 1, 398.32, 0)" xlink:href="#l"/><radialGradient id="z" cx="339.08" cy="45.35" r="7.62" gradientTransform="matrix(0.74, 0.67, -0.67, 0.74, -27.46, -156.49)" xlink:href="#w"/><radialGradient id="aa" cx="326.52" cy="180.47" r="18.57" gradientTransform="matrix(0.02, 0.91, 1, -0.02, -16.4, -177.95)" gradientUnits="userSpaceOnUse"><stop offset="0" stop-color="#fff"/><stop offset="0.15" stop-color="#fffefc"/><stop offset="0.27" stop-color="#fdfcf2"/><stop offset="0.38" stop-color="#faf8e1"/><stop offset="0.49" stop-color="#f7f3ca"/><stop offset="0.59" stop-color="#f2ecab"/><stop offset="0.68" stop-color="#ece386"/><stop offset="0.71" stop-color="#eae078"/><stop offset="1" stop-color="#ee862a"/></radialGradient><radialGradient id="ab" cx="321.94" cy="42.45" r="16.5" gradientTransform="matrix(0.74, 0.67, -0.67, 0.74, -27.46, -156.49)" xlink:href="#w"/><radialGradient id="ac" cx="338.83" cy="6.16" r="23.17" gradientTransform="matrix(0.37, -0.93, -0.93, -0.37, -23.42, 428.4)" xlink:href="#n"/><radialGradient id="ad" cx="287.43" cy="117.63" r="30.76" gradientTransform="matrix(0.02, 1, 1, -0.02, -16.71, -192.99)" xlink:href="#l"/><radialGradient id="ae" cx="317.06" cy="148.29" r="20.63" gradientTransform="matrix(0.02, 1, 1, -0.02, -16.71, -192.99)" gradientUnits="userSpaceOnUse"><stop offset="0" stop-color="#fff"/><stop offset="0.28" stop-color="#fcfdfe"/><stop offset="0.44" stop-color="#f4f8fa"/><stop offset="0.58" stop-color="#e6f0f4"/><stop offset="0.69" stop-color="#d2e3eb"/><stop offset="0.8" stop-color="#b8d3e0"/><stop offset="0.9" stop-color="#98c0d2"/><stop offset="1" stop-color="#73a9c2"/><stop offset="1" stop-color="#71a8c1"/></radialGradient><radialGradient id="af" cx="294.36" cy="91.49" r="28.73" gradientTransform="matrix(-0.89, -0.45, -0.45, 0.89, 426.23, 167.27)" gradientUnits="userSpaceOnUse"><stop offset="0" stop-color="#fff"/><stop offset="0.41" stop-color="#fdfefe"/><stop offset="0.56" stop-color="#f6f9fa"/><stop offset="0.67" stop-color="#ebf1f4"/><stop offset="0.75" stop-color="#dae5eb"/><stop offset="0.82" stop-color="#c4d6df"/><stop offset="0.89" stop-color="#a8c4d0"/><stop offset="0.95" stop-color="#89aebf"/><stop offset="1" stop-color="#6595ac"/><stop offset="1" stop-color="#6394ab"/></radialGradient><radialGradient id="ag" cx="247.8" cy="110.47" r="23.62" gradientTransform="matrix(-1, 0, 0, 1, 398.32, 0)" xlink:href="#aa"/><radialGradient id="ah" cx="294.71" cy="129.03" r="28.29" gradientTransform="matrix(0.02, 1, 1, -0.02, -16.71, -192.99)" gradientUnits="userSpaceOnUse"><stop offset="0" stop-color="#fff"/><stop offset="0.33" stop-color="#fffffd"/><stop offset="0.46" stop-color="#fefdf6"/><stop offset="0.56" stop-color="#fcfaea"/><stop offset="0.64" stop-color="#f9f6d8"/><stop offset="0.71" stop-color="#f5f1c2"/><stop offset="0.77" stop-color="#f1eba6"/><stop offset="0.83" stop-color="#ece385"/><stop offset="0.85" stop-color="#eae078"/><stop offset="1" stop-color="#ee862a"/></radialGradient><radialGradient id="ai" cx="100.44" cy="73.87" r="20.58" gradientTransform="matrix(1, 0, 0, 1, 0, 0)" xlink:href="#s"/><radialGradient id="aj" cx="278.78" cy="56.49" r="19.78" gradientTransform="matrix(0.74, 0.67, -0.67, 0.74, -27.46, -156.49)" xlink:href="#w"/><radialGradient id="ak" cx="309.69" cy="53.55" r="8.92" gradientTransform="matrix(0.74, 0.67, -0.67, 0.74, -27.46, -156.49)" xlink:href="#w"/><radialGradient id="al" cx="288.22" cy="143.57" r="14.49" gradientTransform="matrix(0.02, 1, 1, -0.02, -16.71, -192.99)" xlink:href="#aa"/><radialGradient id="am" cx="300.68" cy="150.89" r="20.44" gradientTransform="matrix(0.02, 1, 1, -0.02, -16.71, -192.99)" xlink:href="#aa"/><radialGradient id="an" cx="314.29" cy="172.07" r="17.61" gradientTransform="matrix(0.02, 1, 1, -0.02, -16.71, -192.99)" gradientUnits="userSpaceOnUse"><stop offset="0" stop-color="#fff"/><stop offset="0.32" stop-color="#fffffd"/><stop offset="0.43" stop-color="#fefdf6"/><stop offset="0.52" stop-color="#fcfaeb"/><stop offset="0.58" stop-color="#f9f6da"/><stop offset="0.64" stop-color="#f6f1c4"/><stop offset="0.69" stop-color="#f2eba8"/><stop offset="0.73" stop-color="#ede489"/><stop offset="0.75" stop-color="#eae078"/><stop offset="1" stop-color="#ee862a"/></radialGradient></defs><title>forecast-partial-cloudy</title><path class="a" d="M160,10.28v1.06a263.89,263.89,0,0,0,2.82,33.36c1.55,9.39,4.81,10.12,4.81,10.12H152.35s3.27-.73,4.82-10.12A263.58,263.58,0,0,0,160,11.34Z" transform="translate(-64.15 -10.28)"/><path class="b" d="M115.41,40.7l.39.4c2.65,2.34,17.31,15.08,24.28,16.95,5.5,1.47,10-2.51,10-2.51L130.22,75.43s4-4.53,2.51-10c-1.87-7-14.61-21.63-16.95-24.28Z" transform="translate(-64.15 -10.28)"/><path class="c" d="M203.75,39.87l-.4.39c-2.34,2.66-15.08,17.31-16.94,24.28-1.48,5.51,2.5,10,2.5,10L169,54.68s4.52,4,10,2.51c7-1.87,21.63-14.61,24.28-16.95Z" transform="translate(-64.15 -10.28)"/><path class="d" d="M192.92,113.69c-2.67-3.78-4.95-7.53-5.66-10.17-1.47-5.51,2.51-10,2.51-10l-19.89,19.89s4.52-4,10-2.51c3.31.89,8.34,4.23,13,7.74Z" transform="translate(-64.15 -10.28)"/><path class="e" d="M234.17,84.47h-1.06a263.16,263.16,0,0,0-33.35,2.81c-9.4,1.55-10.13,4.82-10.13,4.82V76.82s.73,3.26,10.13,4.81a263.47,263.47,0,0,0,33.35,2.82Z" transform="translate(-64.15 -10.28)"/><path class="f" d="M128.68,84.46A31.31,31.31,0,1,0,160,53.15,31.31,31.31,0,0,0,128.68,84.46Z" transform="translate(-64.15 -10.28)"/><path class="g" d="M160,112.19a29.45,29.45,0,0,0,29.65-28.47c0,.24,0,.49,0,.74a29.66,29.66,0,1,1-59.32,0c0-.25,0-.5,0-.74A29.44,29.44,0,0,0,160,112.19Z" transform="translate(-64.15 -10.28)"/><path class="h" d="M133.06,72.28A29.48,29.48,0,0,1,159.93,55h.12a29.51,29.51,0,0,1,26.88,17.32c.92,2,.69,2.46.29,2.72s-1,.15-1.94-.79c-5.48-4.84-14.73-8-25.23-8h-.12c-10.49,0-19.74,3.18-25.23,8-1,.94-1.57,1-1.93.79S132.14,74.31,133.06,72.28Z" transform="translate(-64.15 -10.28)"/><path class="i" d="M187.64,99.16a31.31,31.31,0,1,1-54.72-30.42A20.33,20.33,0,0,1,143,76.4a19.61,19.61,0,0,1,2-.11,19.25,19.25,0,0,1,17.63,11.53A17.09,17.09,0,0,1,172,94.31a17.27,17.27,0,0,1,3.06-.34h.38A16.59,16.59,0,0,1,187.64,99.16Z" transform="translate(-64.15 -10.28)"/><path class="j" d="M134.7,74.21c-1,.94-1.57,1-1.93.79s-.63-.69.29-2.72a29.21,29.21,0,0,1,1.52-2.88,19.83,19.83,0,0,1,3.73,2.19A25,25,0,0,0,134.7,74.21Z" transform="translate(-64.15 -10.28)"/><path class="k" d="M160,114.12a29.66,29.66,0,0,1-29.66-29.66c0-.25,0-.5,0-.74a29.75,29.75,0,0,0,55.41,13.72l.64.52A29.66,29.66,0,0,1,160,114.12Z" transform="translate(-64.15 -10.28)"/><path class="l" d="M186.76,123.84a7,7,0,0,1-7.28-6.83,7.12,7.12,0,0,1,7-7.17,7,7,0,0,1,7.28,6.83A7.11,7.11,0,0,1,186.76,123.84Z" transform="translate(-64.15 -10.28)"/><polygon class="m" points="126.32 103.85 92.43 93.52 82.6 77.4 62.55 74.26 27.96 68.36 13.42 89.98 0.44 107.67 9.09 111.99 50.76 120.64 80.24 120.64 113.63 112.12 126.32 103.85"/><path class="n" d="M197.46,118.11a3.38,3.38,0,0,1-3.59-3.22,3.49,3.49,0,0,1,3.48-3.43,3.38,3.38,0,0,1,3.59,3.22A3.49,3.49,0,0,1,197.46,118.11Z" transform="translate(-64.15 -10.28)"/><path class="o" d="M69.53,123.4a5.09,5.09,0,1,1,5.19-5.21A5.18,5.18,0,0,1,69.53,123.4Z" transform="translate(-64.15 -10.28)"/><path class="p" d="M77.74,130.54a7,7,0,1,1,6.94-7.17A7,7,0,0,1,77.74,130.54Z" transform="translate(-64.15 -10.28)"/><path class="q" d="M153.57,140.5a7,7,0,1,1,6.69-7.14A6.91,6.91,0,0,1,153.57,140.5Z" transform="translate(-64.15 -10.28)"/><path class="r" d="M92.94,130.62a9.35,9.35,0,1,1,9.35,9.35A9.35,9.35,0,0,1,92.94,130.62Z" transform="translate(-64.15 -10.28)"/><path class="s" d="M73.89,92.74a9.36,9.36,0,1,1,9.35,9.35A9.35,9.35,0,0,1,73.89,92.74Z" transform="translate(-64.15 -10.28)"/><path class="t" d="M79.28,86.75a8.84,8.84,0,0,1,8.24-1.06,8.2,8.2,0,0,0-12.25,9.16A8.72,8.72,0,0,1,79.28,86.75Z" transform="translate(-64.15 -10.28)"/><path class="u" d="M64.39,106.72a12.71,12.71,0,1,1,12.7,12.7A12.71,12.71,0,0,1,64.39,106.72Z" transform="translate(-64.15 -10.28)"/><path class="v" d="M177.93,129.4c-4.37.09-8-3-8.05-6.83s3.39-7.08,7.75-7.17,8,3,8.05,6.83S182.29,129.31,177.93,129.4Z" transform="translate(-64.15 -10.28)"/><path class="w" d="M131.3,95.53A13.72,13.72,0,1,1,145,109.25,13.71,13.71,0,0,1,131.3,95.53Z" transform="translate(-64.15 -10.28)"/><path class="x" d="M151.11,86.65a13.28,13.28,0,0,1,5.94,9.47,11.69,11.69,0,0,0-4-9.62c-4.1-3.71-9.82-4.21-13.55-1.44C142.67,83.45,147.19,83.94,151.11,86.65Z" transform="translate(-64.15 -10.28)"/><path class="y" d="M189.16,121.52a7.41,7.41,0,0,1-7.68-7.2,7.53,7.53,0,0,1,7.41-7.58,7.41,7.41,0,0,1,7.68,7.2A7.54,7.54,0,0,1,189.16,121.52Z" transform="translate(-64.15 -10.28)"/><path class="z" d="M147.57,123.64a12.5,12.5,0,1,1,12.5,12.5A12.5,12.5,0,0,1,147.57,123.64Z" transform="translate(-64.15 -10.28)"/><path class="aa" d="M192.3,109.56a7.73,7.73,0,0,1,3.58,6.27,7.13,7.13,0,0,0-11.43-6.8A7.59,7.59,0,0,1,192.3,109.56Z" transform="translate(-64.15 -10.28)"/><path class="ab" d="M175.6,119c-5.94.13-10.84-4.14-11-9.52s4.61-9.86,10.55-10S186,103.63,186.14,109,181.54,118.88,175.6,119Z" transform="translate(-64.15 -10.28)"/><path class="ac" d="M180.16,103.07a10.64,10.64,0,0,1,5,8.65,9.83,9.83,0,0,0-15.76-9.37A10.44,10.44,0,0,1,180.16,103.07Z" transform="translate(-64.15 -10.28)"/><path class="ad" d="M94.24,106.86a13.54,13.54,0,1,1-17.61,7.51A13.53,13.53,0,0,1,94.24,106.86Z" transform="translate(-64.15 -10.28)"/><path class="ae" d="M101.22,103.37a17.45,17.45,0,1,1,17.07-17.82A17.44,17.44,0,0,1,101.22,103.37Z" transform="translate(-64.15 -10.28)"/><path class="af" d="M140.29,142.92a13.54,13.54,0,1,1,13.24-13.82A13.54,13.54,0,0,1,140.29,142.92Z" transform="translate(-64.15 -10.28)"/><path class="ag" d="M108,122a15.19,15.19,0,1,1,6.63,20.44A15.19,15.19,0,0,1,108,122Z" transform="translate(-64.15 -10.28)"/><path class="ah" d="M146.53,104.34A11.61,11.61,0,1,1,158.13,116,11.6,11.6,0,0,1,146.53,104.34Z" transform="translate(-64.15 -10.28)"/><path class="ai" d="M126.59,102.66A14.76,14.76,0,1,1,141,87.59,14.75,14.75,0,0,1,126.59,102.66Z" transform="translate(-64.15 -10.28)"/><path class="aj" d="M98.85,72.76a17.15,17.15,0,0,1,15.25,5,15.84,15.84,0,0,0-28.94,5.85C87,78.17,92.16,73.78,98.85,72.76Z" transform="translate(-64.15 -10.28)"/><path class="ak" d="M132.84,78.38a14.58,14.58,0,0,1,6.77,11.83A13.46,13.46,0,0,0,118,77.38C122.25,75,128,75.2,132.84,78.38Z" transform="translate(-64.15 -10.28)"/><path class="al" d="M163.21,96.89a11.53,11.53,0,0,1,5.37,9.38,10.67,10.67,0,0,0-17.1-10.17A11.32,11.32,0,0,1,163.21,96.89Z" transform="translate(-64.15 -10.28)"/><path class="am" d="M135,95a6.68,6.68,0,1,1,6.54-6.82A6.68,6.68,0,0,1,135,95Z" transform="translate(-64.15 -10.28)"/><path class="an" d="M143.4,108.46a9.43,9.43,0,1,1,9.22-9.63A9.43,9.43,0,0,1,143.4,108.46Z" transform="translate(-64.15 -10.28)"/><path class="ao" d="M166.07,119.71a7.45,7.45,0,1,1,7.29-7.6A7.44,7.44,0,0,1,166.07,119.71Z" transform="translate(-64.15 -10.28)"/></svg>