<svg xmlns="http://www.w3.org/2000/svg" xmlns:xlink="http://www.w3.org/1999/xlink" viewBox="0 0 235.56 99.51"><defs><style>.a{fill:#010101;}.b{font-size:42.72px;fill:#231f20;font-family:Raleway-Bold, Raleway;font-weight:700;}.c{letter-spacing:-0.02em;}.d{letter-spacing:0em;}.e{fill:none;}.f{fill:#f58120;}.g{mask:url(#a);}.h{filter:url(#b);}</style><filter id="b" x="137.55" y="46.03" width="59.97" height="90.76" filterUnits="userSpaceOnUse" color-interpolation-filters="sRGB"><feFlood flood-color="#fff" result="bg"/><feBlend in="SourceGraphic" in2="bg"/></filter><mask id="a" x="138.44" y="46.03" width="59.97" height="90.76" maskUnits="userSpaceOnUse"><g class="h"><g transform="translate(0.88)"><rect class="a" x="137.55" y="81.11" width="59.97" height="55.68"/><rect class="a" x="169.57" y="54.18" width="9.23" height="4.29"/></g></g></mask></defs><title>logo</title><text class="b" transform="translate(0 80.94)"><tspan class="c">w</tspan><tspan x="35.03" y="0">e</tspan><tspan class="d" x="60.61" y="0">a</tspan><tspan x="84.96" y="0">ther</tspan><tspan class="e" x="169.28" y="0">i</tspan><tspan x="180.17" y="0">t</tspan></text><path class="f" d="M177.81,17.55a3.57,3.57,0,0,1-3.57,3.57h0a3.57,3.57,0,0,1-3.57-3.57v-14A3.57,3.57,0,0,1,174.24,0h0a3.58,3.58,0,0,1,3.57,3.57Z" transform="translate(0.88)"/><path class="f" d="M217,42.24A24.74,24.74,0,0,1,234.59,50h.09c-9.49-22.67-29.31-39.12-53-42.24,9.54,5.91,16.57,22.39,17.4,42.24h.21A24.7,24.7,0,0,1,217,42.24Z" transform="translate(0.88)"/><path class="f" d="M130.63,41.57a24.87,24.87,0,0,1,18.14,8.29c.84-19.91,7.94-36.43,17.55-42.25-24,2.81-44.14,19.32-53.77,42.2A24.79,24.79,0,0,1,130.63,41.57Z" transform="translate(0.88)"/><path class="f" d="M174.12,42.24a24.75,24.75,0,0,1,17.78,7.9c.1-1.67.18-3.35.18-5.08,0-21.1-8.19-38.21-18.29-38.21S155.5,24,155.5,45.06c0,2,.09,3.87.22,5.75C160.58,45.5,167,42.24,174.12,42.24Z" transform="translate(0.88)"/><g class="g"><path class="f" d="M170.65,49V99.51l5.93-.08V49a2.82,2.82,0,0,0-.82-2l-.13-.13a2.82,2.82,0,0,0-4,0l-.17.18A2.81,2.81,0,0,0,170.65,49Z" transform="translate(0.88)"/></g></svg>